SplineFontDB: 2.0
FontName: THBaijam
FullName: THBaijam
FamilyName: TH Baijam
Weight: Book
Copyright: Copyright (c) 2006 by Department of Intellectual Property (DIP), Ministry of Commerce and Software Industry Promotion Agency (Public Organization) (SIPA). All rights reserved.
Version: 1.1
ItalicAngle: 0
UnderlinePosition: -35
UnderlineWidth: 30
Ascent: 800
Descent: 200
Order2: 1
XUID: [1021 375 425136265 7827742]
FSType: 0
OS2Version: 3
OS2_WeightWidthSlopeOnly: 0
OS2_UseTypoMetrics: 1
CreationTime: 1154326859
ModificationTime: 1196256030
PfmFamily: 17
TTFWeight: 400
TTFWidth: 5
LineGap: 60
VLineGap: 0
Panose: 2 0 5 6 0 0 0 2 0 4
OS2TypoAscent: 0
OS2TypoAOffset: 1
OS2TypoDescent: 0
OS2TypoDOffset: 1
OS2TypoLinegap: 0
OS2WinAscent: 0
OS2WinAOffset: 1
OS2WinDescent: -108
OS2WinDOffset: 1
HheadAscent: 0
HheadAOffset: 1
HheadDescent: 108
HheadDOffset: 1
OS2SubXSize: 700
OS2SubYSize: 650
OS2SubXOff: 0
OS2SubYOff: 140
OS2SupXSize: 700
OS2SupYSize: 650
OS2SupXOff: 0
OS2SupYOff: 477
OS2StrikeYSize: 30
OS2StrikeYPos: 250
OS2FamilyClass: 773
OS2Vendor: 'IPTH'
Lookup: 4 0 0 "'frac' Diagonal Fractions in Latin lookup 0"  {"'frac' Diagonal Fractions in Latin lookup 0 subtable"  } ['frac' ('latn' <'dflt' > ) ]
Lookup: 6 0 0 "'liga' Standard Ligatures in Latin lookup 1"  {"'liga' Standard Ligatures in Latin lookup 1 subtable"  } ['liga' ('latn' <'dflt' > ) ]
Lookup: 6 0 0 "'liga' Standard Ligatures in Latin lookup 2"  {"'liga' Standard Ligatures in Latin lookup 2 subtable"  } ['liga' ('latn' <'dflt' > ) ]
Lookup: 6 0 0 "'liga' Standard Ligatures in Latin lookup 3"  {"'liga' Standard Ligatures in Latin lookup 3 subtable"  } ['liga' ('latn' <'dflt' > ) ]
Lookup: 6 0 0 "'liga' Standard Ligatures in Latin lookup 4"  {"'liga' Standard Ligatures in Latin lookup 4 subtable"  } ['liga' ('latn' <'dflt' > ) ]
Lookup: 6 0 0 "'liga' Standard Ligatures in Latin lookup 5"  {"'liga' Standard Ligatures in Latin lookup 5 subtable"  } ['liga' ('latn' <'dflt' > ) ]

StartChar: .notdef
Encoding: 65536 -1 0
Width: 753
VWidth: 1507
Flags: W
HStem: 0 80<169 582> 974 74<169 582>
VStem: 95 74<80 974> 582 75<80 974>
Fore
582 80 m 1,0,-1
 582 974 l 1,1,-1
 169 974 l 1,2,-1
 169 80 l 1,3,-1
 582 80 l 1,0,-1
657 0 m 1,4,-1
 95 0 l 1,5,-1
 95 1048 l 1,6,-1
 657 1048 l 1,7,-1
 657 0 l 1,4,-1
EndSplineSet
EndChar
StartChar: numbersign
Encoding: 35 35 4
Width: 658
VWidth: 1507
Flags: W
HStem: 0 21G<176 240 433 496> 199 63<57 176 240 433 496 604> 470 64<57 176 240 433 496 604> 696 20G<176 240 433 496>
VStem: 176 64<0 199 262 470 534 716> 433 63<0 199 262 470 534 716>
Fore
433 199 m 1,0,-1
 240 199 l 1,1,-1
 240 0 l 1,2,-1
 176 0 l 1,3,-1
 176 199 l 1,4,-1
 57 199 l 1,5,-1
 57 262 l 1,6,-1
 176 262 l 1,7,-1
 176 470 l 1,8,-1
 57 470 l 1,9,-1
 57 534 l 1,10,-1
 176 534 l 1,11,-1
 176 716 l 1,12,-1
 240 716 l 1,13,-1
 240 534 l 1,14,-1
 433 534 l 1,15,-1
 433 716 l 1,16,-1
 496 716 l 1,17,-1
 496 534 l 1,18,-1
 604 534 l 1,19,-1
 604 470 l 1,20,-1
 496 470 l 1,21,-1
 496 262 l 1,22,-1
 604 262 l 1,23,-1
 604 199 l 1,24,-1
 496 199 l 1,25,-1
 496 0 l 1,26,-1
 433 0 l 1,27,-1
 433 199 l 1,0,-1
240 262 m 1,28,-1
 433 262 l 1,29,-1
 433 470 l 1,30,-1
 240 470 l 1,31,-1
 240 262 l 1,28,-1
EndSplineSet
EndChar
StartChar: dollar
Encoding: 36 36 5
Width: 547
VWidth: 1507
Flags: W
HStem: 0 68<125.693 252 315 355.105> 648 68<196.704 252 315 404.946>
VStem: 27 68<97.5221 152> 51 68<490.418 606.223> 252 63<-80 0 68 314 409 648 716 791> 436 67<564 618.478> 449 68<140.677 249.138>
Fore
252 0 m 1,0,-1
 194 0 l 2,1,2
 124 0 124 0 75.5 40.5 c 128,-1,3
 27 81 27 81 27 152 c 1,4,-1
 95 152 l 1,5,6
 95 112 95 112 124.5 90 c 128,-1,7
 154 68 154 68 194 68 c 2,8,-1
 252 68 l 1,9,-1
 252 341 l 1,10,-1
 169 377 l 2,11,12
 98 407 98 407 74.5 452 c 128,-1,13
 51 497 51 497 51 546 c 0,14,15
 51 583 51 583 66 614 c 128,-1,16
 81 645 81 645 107 667.5 c 128,-1,17
 133 690 133 690 165 703 c 128,-1,18
 197 716 197 716 232 716 c 2,19,-1
 252 716 l 1,20,-1
 252 791 l 1,21,-1
 315 791 l 1,22,-1
 315 716 l 1,23,-1
 336 716 l 2,24,25
 407 716 407 716 455 675.5 c 128,-1,26
 503 635 503 635 503 564 c 1,27,-1
 436 564 l 1,28,29
 436 604 436 604 406.5 626 c 128,-1,30
 377 648 377 648 336 648 c 2,31,-1
 315 648 l 1,32,-1
 315 381 l 1,33,-1
 399 345 l 2,34,35
 472 314 472 314 494.5 275.5 c 128,-1,36
 517 237 517 237 517 179 c 0,37,38
 517 148 517 148 502.5 115.5 c 128,-1,39
 488 83 488 83 464 57.5 c 128,-1,40
 440 32 440 32 407 16 c 128,-1,41
 374 0 374 0 336 0 c 2,42,-1
 315 0 l 1,43,-1
 315 -80 l 1,44,-1
 252 -80 l 1,45,-1
 252 0 l 1,0,-1
315 314 m 1,46,-1
 315 68 l 1,47,-1
 336 68 l 2,48,49
 350 68 350 68 369.5 77 c 128,-1,50
 389 86 389 86 406.5 102 c 128,-1,51
 424 118 424 118 436.5 137.5 c 128,-1,52
 449 157 449 157 449 178 c 0,53,54
 449 220 449 220 435.5 244 c 128,-1,55
 422 268 422 268 383 285 c 2,56,-1
 315 314 l 1,46,-1
119 547 m 0,57,58
 119 517 119 517 129.5 487 c 128,-1,59
 140 457 140 457 185 437 c 2,60,-1
 252 409 l 1,61,-1
 252 648 l 1,62,-1
 232 648 l 2,63,64
 190 648 190 648 154.5 619.5 c 128,-1,65
 119 591 119 591 119 547 c 0,57,58
EndSplineSet
EndChar
StartChar: percent
Encoding: 37 37 6
Width: 875
VWidth: 1507
Flags: W
HStem: 18 63<591.076 626 659 692.827> 304 62<603.627 635 671 708.383> 329 63<161.628 196 229 263.342> 615 63<174.139 205 241 278.383>
VStem: 93 61<400.051 430 556 592.311> 285 60<413.142 448 579 607.583> 523 60<88.6201 118 244 281.827> 715 60<102.142 137 268 296.034>
Fore
205 678 m 2,0,1
 182 678 182 678 162 667.5 c 128,-1,2
 142 657 142 657 127 640 c 128,-1,3
 112 623 112 623 102.5 601 c 128,-1,4
 93 579 93 579 93 556 c 2,5,-1
 93 430 l 2,6,7
 93 383 93 383 120.5 356 c 128,-1,8
 148 329 148 329 196 329 c 2,9,-1
 229 329 l 2,10,11
 277 329 277 329 311 365 c 128,-1,12
 345 401 345 401 345 448 c 2,13,-1
 345 579 l 2,14,15
 345 626 345 626 318.5 652 c 128,-1,16
 292 678 292 678 241 678 c 2,17,-1
 205 678 l 2,0,1
154 544 m 2,18,19
 154 571 154 571 173.5 593 c 128,-1,20
 193 615 193 615 223 615 c 2,21,-1
 229 615 l 2,22,23
 285 615 285 615 285 564 c 2,24,-1
 285 460 l 2,25,26
 285 433 285 433 264 412.5 c 128,-1,27
 243 392 243 392 216 392 c 2,28,-1
 210 392 l 2,29,30
 154 392 154 392 154 445 c 2,31,-1
 154 544 l 2,18,19
635 366 m 2,32,33
 612 366 612 366 591.5 355.5 c 128,-1,34
 571 345 571 345 556 328.5 c 128,-1,35
 541 312 541 312 532 289.5 c 128,-1,36
 523 267 523 267 523 244 c 2,37,-1
 523 118 l 2,38,39
 523 72 523 72 550 45 c 128,-1,40
 577 18 577 18 626 18 c 2,41,-1
 659 18 l 2,42,43
 707 18 707 18 741 53.5 c 128,-1,44
 775 89 775 89 775 137 c 2,45,-1
 775 268 l 2,46,47
 775 314 775 314 748.5 340 c 128,-1,48
 722 366 722 366 671 366 c 2,49,-1
 635 366 l 2,32,33
203 -26 m 1,50,-1
 591 739 l 1,51,-1
 657 739 l 1,52,-1
 273 -26 l 1,53,-1
 203 -26 l 1,50,-1
583 234 m 2,54,55
 583 261 583 261 603 282.5 c 128,-1,56
 623 304 623 304 653 304 c 2,57,-1
 659 304 l 2,58,59
 715 304 715 304 715 253 c 2,60,-1
 715 149 l 2,61,62
 715 122 715 122 693.5 101.5 c 128,-1,63
 672 81 672 81 645 81 c 2,64,-1
 639 81 l 2,65,66
 583 81 583 81 583 134 c 2,67,-1
 583 234 l 2,54,55
EndSplineSet
EndChar
StartChar: ampersand
Encoding: 38 38 7
Width: 657
VWidth: 1507
Flags: W
HStem: -9 68<217.375 361.874> 651 65<241.354 393.072>
VStem: 54 68<156.031 233.781> 134 66<514.732 610.02> 418 66<503.357 627.084>
Fore
567 318 m 1,0,1
 567 273 567 273 552 224.5 c 128,-1,2
 537 176 537 176 511 133 c 1,3,4
 534 104 534 104 554 80 c 128,-1,5
 574 56 574 56 589 38 c 0,6,7
 606 17 606 17 623 0 c 1,8,-1
 538 0 l 1,9,10
 529 11 529 11 519 23 c 0,11,12
 510 33 510 33 497.5 47.5 c 128,-1,13
 485 62 485 62 472 80 c 1,14,15
 436 41 436 41 388.5 16 c 128,-1,16
 341 -9 341 -9 285 -9 c 2,17,-1
 241 -9 l 2,18,19
 207 -9 207 -9 173 7.5 c 128,-1,20
 139 24 139 24 112.5 50.5 c 128,-1,21
 86 77 86 77 70 111 c 128,-1,22
 54 145 54 145 54 179 c 2,23,-1
 54 213 l 2,24,25
 54 243 54 243 67 269 c 128,-1,26
 80 295 80 295 102 318 c 128,-1,27
 124 341 124 341 151.5 359.5 c 128,-1,28
 179 378 179 378 210 395 c 1,29,-1
 184 425 l 2,30,31
 163 448 163 448 148.5 474 c 128,-1,32
 134 500 134 500 134 534 c 2,33,-1
 134 546 l 2,34,35
 134 582 134 582 147.5 613 c 128,-1,36
 161 644 161 644 184.5 666.5 c 128,-1,37
 208 689 208 689 239 702.5 c 128,-1,38
 270 716 270 716 304 716 c 2,39,-1
 344 716 l 2,40,41
 402 716 402 716 443 675.5 c 128,-1,42
 484 635 484 635 484 576 c 2,43,-1
 484 562 l 2,44,45
 484 528 484 528 471 500 c 128,-1,46
 458 472 458 472 435.5 451 c 128,-1,47
 413 430 413 430 383.5 412.5 c 128,-1,48
 354 395 354 395 321 380 c 2,49,-1
 309 374 l 1,50,51
 342 335 342 335 382 286.5 c 128,-1,52
 422 238 422 238 463 190 c 1,53,54
 479 223 479 223 489 257 c 128,-1,55
 499 291 499 291 499 318 c 1,56,-1
 567 318 l 1,0,1
250 347 m 1,57,58
 226 335 226 335 203.5 319.5 c 128,-1,59
 181 304 181 304 163 287 c 128,-1,60
 145 270 145 270 133.5 251 c 128,-1,61
 122 232 122 232 122 213 c 2,62,-1
 122 179 l 2,63,64
 122 158 122 158 133.5 137 c 128,-1,65
 145 116 145 116 161.5 98.5 c 128,-1,66
 178 81 178 81 199 70 c 128,-1,67
 220 59 220 59 241 59 c 2,68,-1
 285 59 l 2,69,70
 327 59 327 59 363 80 c 128,-1,71
 399 101 399 101 427 136 c 1,72,-1
 250 347 l 1,57,58
301 440 m 0,73,74
 348 461 348 461 383 490 c 128,-1,75
 418 519 418 519 418 562 c 2,76,-1
 418 574 l 2,77,78
 418 606 418 606 395 628.5 c 128,-1,79
 372 651 372 651 341 651 c 2,80,-1
 304 651 l 2,81,82
 261 651 261 651 230.5 620 c 128,-1,83
 200 589 200 589 200 546 c 2,84,-1
 200 535 l 2,85,86
 200 516 200 516 211 500.5 c 128,-1,87
 222 485 222 485 231 470 c 1,88,89
 234 463 234 463 267 424 c 1,90,91
 285 432 l 128,-1,92
 294 436 294 436 301 440 c 0,73,74
EndSplineSet
EndChar
StartChar: quotesingle
Encoding: 39 39 8
Width: 188
VWidth: 1507
Flags: W
VStem: 54 71<541 761 541 761 541 541>
Fore
54 761 m 1,0,-1
 125 761 l 1,1,-1
 125 541 l 1,2,-1
 54 541 l 1,3,-1
 54 761 l 1,0,-1
EndSplineSet
EndChar
StartChar: parenleft
Encoding: 40 40 9
Width: 327
VWidth: 1507
Flags: W
HStem: 696 20G<172.5 282>
VStem: 71 68<72.9375 445.234>
Fore
208 -207 m 1,0,1
 143 -103 143 -103 107 14 c 128,-1,2
 71 131 71 131 71 255 c 0,3,4
 71 383 71 383 104 495 c 128,-1,5
 137 607 137 607 208 716 c 1,6,-1
 282 716 l 1,7,8
 211 607 211 607 175 495 c 128,-1,9
 139 383 139 383 139 255 c 0,10,11
 139 131 139 131 178 14 c 128,-1,12
 217 -103 217 -103 282 -207 c 1,13,-1
 208 -207 l 1,0,1
EndSplineSet
EndChar
StartChar: parenright
Encoding: 41 41 10
Width: 327
VWidth: 1507
Flags: W
HStem: 696 20G<71 180.5>
VStem: 214 68<72.9375 445.234>
Fore
71 -207 m 1,0,1
 136 -103 136 -103 175 14 c 128,-1,2
 214 131 214 131 214 255 c 0,3,4
 214 383 214 383 178 495 c 128,-1,5
 142 607 142 607 71 716 c 1,6,-1
 145 716 l 1,7,8
 216 607 216 607 249 495 c 128,-1,9
 282 383 282 383 282 255 c 0,10,11
 282 131 282 131 246 14 c 128,-1,12
 210 -103 210 -103 145 -207 c 1,13,-1
 71 -207 l 1,0,1
EndSplineSet
EndChar
StartChar: asterisk
Encoding: 42 42 11
Width: 471
VWidth: 1507
Flags: W
VStem: 207 52<452 597 689 835 452 835 452 452>
Fore
207 687 m 1,0,-1
 207 835 l 1,1,-1
 259 835 l 1,2,-1
 259 689 l 1,3,-1
 386 763 l 1,4,5
 387 758 387 758 392 752 c 0,6,7
 395 746 395 746 400 738 c 128,-1,8
 405 730 405 730 413 718 c 1,9,-1
 283 644 l 1,10,-1
 413 570 l 1,11,-1
 386 525 l 1,12,-1
 259 597 l 1,13,-1
 259 452 l 1,14,-1
 207 452 l 1,15,-1
 207 598 l 1,16,-1
 80 526 l 1,17,-1
 53 571 l 1,18,-1
 178 644 l 1,19,-1
 53 716 l 1,20,21
 54 721 54 721 59 727 c 0,22,23
 62 733 62 733 67 741 c 128,-1,24
 72 749 72 749 80 761 c 1,25,-1
 207 687 l 1,0,-1
EndSplineSet
EndChar
StartChar: plus
Encoding: 43 43 12
Width: 574
VWidth: 1507
Flags: W
HStem: 300 63<56 256 320 520>
VStem: 256 64<99 300 363 564>
Fore
320 300 m 1,0,-1
 320 99 l 1,1,-1
 256 99 l 1,2,-1
 256 300 l 1,3,-1
 56 300 l 1,4,-1
 56 363 l 1,5,-1
 256 363 l 1,6,-1
 256 564 l 1,7,-1
 320 564 l 1,8,-1
 320 363 l 1,9,-1
 520 363 l 1,10,-1
 520 300 l 1,11,-1
 320 300 l 1,0,-1
EndSplineSet
EndChar
StartChar: comma
Encoding: 44 44 13
Width: 232
VWidth: 1507
Flags: W
HStem: -121 214<57 101 101 101>
VStem: 101 62<19.7426 93>
Fore
101 93 m 1,0,-1
 163 93 l 1,1,-1
 163 53 l 2,2,3
 163 9 163 9 151 -19.5 c 128,-1,4
 139 -48 139 -48 122.5 -67.5 c 128,-1,5
 106 -87 106 -87 87.5 -99.5 c 128,-1,6
 69 -112 69 -112 57 -121 c 1,7,-1
 23 -72 l 1,8,9
 33 -62 33 -62 47.5 -52 c 128,-1,10
 62 -42 62 -42 73 -28.5 c 128,-1,11
 84 -15 84 -15 92.5 4.5 c 128,-1,12
 101 24 101 24 101 53 c 2,13,-1
 101 93 l 1,0,-1
EndSplineSet
EndChar
StartChar: hyphen
Encoding: 45 45 14
Width: 357
VWidth: 1507
Flags: W
HStem: 282 69<42 314 42 314 42 42>
Fore
42 282 m 1,0,-1
 42 351 l 1,1,-1
 314 351 l 1,2,-1
 314 282 l 1,3,-1
 42 282 l 1,0,-1
EndSplineSet
EndChar
StartChar: period
Encoding: 46 46 15
Width: 272
VWidth: 1507
Flags: W
HStem: -8 106<104.471 178.53>
VStem: 89 105<7.98596 82.5293>
Fore
89 45 m 256,0,1
 89 68 89 68 104 83 c 128,-1,2
 119 98 119 98 142 98 c 256,3,4
 164 98 164 98 179 83 c 128,-1,5
 194 68 194 68 194 45 c 256,6,7
 194 23 194 23 179 7.5 c 128,-1,8
 164 -8 164 -8 142 -8 c 256,9,10
 119 -8 119 -8 104 7.5 c 128,-1,11
 89 23 89 23 89 45 c 256,0,1
EndSplineSet
EndChar
StartChar: slash
Encoding: 47 47 16
Width: 453
VWidth: 1507
Flags: W
VStem: -2 454<-26 739 -26 -26>
Fore
-2 -26 m 1,0,-1
 386 739 l 1,1,-1
 452 739 l 1,2,-1
 68 -26 l 1,3,-1
 -2 -26 l 1,0,-1
EndSplineSet
EndChar
StartChar: zero
Encoding: 48 48 17
Width: 574
VWidth: 1507
Flags: W
HStem: -8 61<176.615 347.999> 663 61<224.516 399.685>
VStem: 48 68<116.603 534.391> 460 68<178.063 514 514 599.625>
Fore
317 724 m 2,0,1
 419 724 419 724 473.5 666.5 c 128,-1,2
 528 609 528 609 528 514 c 2,3,-1
 528 246 l 2,4,5
 528 197 528 197 509 151.5 c 128,-1,6
 490 106 490 106 457 70.5 c 128,-1,7
 424 35 424 35 381 13.5 c 128,-1,8
 338 -8 338 -8 291 -8 c 2,9,-1
 258 -8 l 2,10,11
 158 -8 158 -8 103 51 c 128,-1,12
 48 110 48 110 48 205 c 2,13,-1
 48 464 l 2,14,15
 48 511 48 511 66 557.5 c 128,-1,16
 84 604 84 604 116 641 c 128,-1,17
 148 678 148 678 189.5 701 c 128,-1,18
 231 724 231 724 276 724 c 2,19,-1
 317 724 l 2,0,1
116 205 m 2,20,21
 116 139 116 139 152 96 c 128,-1,22
 188 53 188 53 256 53 c 2,23,-1
 282 53 l 2,24,25
 317 53 317 53 349 70 c 128,-1,26
 381 87 381 87 406 115 c 128,-1,27
 431 143 431 143 445.5 177 c 128,-1,28
 460 211 460 211 460 246 c 2,29,-1
 460 514 l 2,30,31
 460 580 460 580 423.5 621.5 c 128,-1,32
 387 663 387 663 318 663 c 2,33,-1
 292 663 l 2,34,35
 256 663 256 663 223.5 646 c 128,-1,36
 191 629 191 629 168 600 c 128,-1,37
 145 571 145 571 130.5 535.5 c 128,-1,38
 116 500 116 500 116 464 c 2,39,-1
 116 205 l 2,20,21
EndSplineSet
EndChar
StartChar: one
Encoding: 49 49 18
Width: 410
VWidth: 1507
Flags: W
HStem: 0 21G<213 280> 491 62<50 109.578> 696 20G<213 280>
VStem: 50 230<491 716 1146.91 1207> 213 67<0 555 655.907 716>
Fore
213 0 m 1,0,-1
 213 555 l 1,1,2
 179 522 179 522 138.5 507.5 c 128,-1,3
 98 493 98 493 50 491 c 1,4,-1
 50 553 l 1,5,6
 81 553 81 553 110.5 566.5 c 128,-1,7
 140 580 140 580 162.5 603 c 128,-1,8
 185 626 185 626 199 655 c 128,-1,9
 213 684 213 684 213 716 c 1,10,-1
 280 716 l 1,11,-1
 280 0 l 1,12,-1
 213 0 l 1,0,-1
EndSplineSet
EndChar
StartChar: two
Encoding: 50 50 19
Width: 584
VWidth: 1507
Flags: W
HStem: 0 60<122 537> 675 61<201.343 404.125>
VStem: 457 68<486.496 621.788>
Fore
314 736 m 2,0,1
 416 736 416 736 470.5 682.5 c 128,-1,2
 525 629 525 629 525 534 c 0,3,4
 525 484 525 484 506.5 448.5 c 128,-1,5
 488 413 488 413 436 374 c 2,6,-1
 184 188 l 2,7,8
 145 160 145 160 133.5 124.5 c 128,-1,9
 122 89 122 89 122 60 c 1,10,-1
 537 60 l 1,11,-1
 537 0 l 1,12,-1
 48 0 l 1,13,-1
 48 68 l 2,14,15
 48 121 48 121 69 161.5 c 128,-1,16
 90 202 90 202 128 231 c 2,17,-1
 415 443 l 2,18,19
 431 455 431 455 444 481.5 c 128,-1,20
 457 508 457 508 457 534 c 0,21,22
 457 675 457 675 315 675 c 2,23,-1
 289 675 l 2,24,25
 238 675 238 675 194.5 649.5 c 128,-1,26
 151 624 151 624 121 588 c 1,27,-1
 66 629 l 1,28,29
 106 678 106 678 164 707 c 128,-1,30
 222 736 222 736 289 736 c 2,31,-1
 314 736 l 2,0,1
EndSplineSet
EndChar
StartChar: three
Encoding: 51 51 20
Width: 590
VWidth: 1507
Flags: W
HStem: -6 60<184.935 359.477> 384 61<207 371.393> 675 61<184.139 385.75>
VStem: 439 67<475.404 621.788> 475 68<167.623 297.956>
Fore
207 445 m 1,0,-1
 348 445 l 2,1,2
 387 448 387 448 413 470.5 c 128,-1,3
 439 493 439 493 439 534 c 0,4,5
 439 675 439 675 297 675 c 2,6,-1
 271 675 l 2,7,8
 220 675 220 675 176.5 649.5 c 128,-1,9
 133 624 133 624 103 588 c 1,10,-1
 48 629 l 1,11,12
 87 678 87 678 145 707 c 128,-1,13
 203 736 203 736 271 736 c 2,14,-1
 295 736 l 2,15,16
 398 736 398 736 452 682.5 c 128,-1,17
 506 629 506 629 506 534 c 0,18,19
 506 458 506 458 455 416 c 1,20,21
 496 387 496 387 519.5 341 c 128,-1,22
 543 295 543 295 543 247 c 0,23,24
 543 190 543 190 522.5 144 c 128,-1,25
 502 98 502 98 466 64 c 128,-1,26
 430 30 430 30 381 12 c 128,-1,27
 332 -6 332 -6 276 -6 c 0,28,29
 193 -6 193 -6 137 25 c 128,-1,30
 81 56 81 56 33 116 c 1,31,-1
 84 161 l 1,32,33
 124 116 124 116 169 85 c 128,-1,34
 214 54 214 54 277 54 c 0,35,36
 317 54 317 54 353 69 c 128,-1,37
 389 84 389 84 416 110.5 c 128,-1,38
 443 137 443 137 459 172.5 c 128,-1,39
 475 208 475 208 475 247 c 0,40,41
 475 274 475 274 464.5 298.5 c 128,-1,42
 454 323 454 323 436 342.5 c 128,-1,43
 418 362 418 362 393.5 373 c 128,-1,44
 369 384 369 384 341 384 c 2,45,-1
 207 384 l 1,46,-1
 207 445 l 1,0,-1
EndSplineSet
EndChar
StartChar: four
Encoding: 52 52 21
Width: 589
VWidth: 1507
Flags: W
HStem: 0 21G<392 460> 148 60<131 392 460 552> 696 20G<378.376 460>
VStem: 392 68<0 148 208 598>
Fore
392 0 m 1,0,-1
 392 148 l 1,1,-1
 116 148 l 2,2,3
 84 148 84 148 66 163.5 c 128,-1,4
 48 179 48 179 48 211 c 1,5,-1
 392 716 l 1,6,-1
 460 716 l 1,7,-1
 460 208 l 1,8,-1
 552 208 l 1,9,-1
 552 148 l 1,10,-1
 460 148 l 1,11,-1
 460 0 l 1,12,-1
 392 0 l 1,0,-1
392 598 m 1,13,-1
 131 208 l 1,14,-1
 392 208 l 1,15,-1
 392 598 l 1,13,-1
EndSplineSet
EndChar
StartChar: five
Encoding: 53 53 22
Width: 605
VWidth: 1507
Flags: W
HStem: -6 60<199.935 374.477> 384 61<181 386.393> 656 60<181 519>
VStem: 113 68<445 656> 490 68<167.623 296.987>
Fore
519 656 m 1,0,-1
 181 656 l 1,1,-1
 181 445 l 1,2,-1
 375 445 l 2,3,4
 416 445 416 445 450 427.5 c 128,-1,5
 484 410 484 410 507.5 382 c 128,-1,6
 531 354 531 354 544.5 318.5 c 128,-1,7
 558 283 558 283 558 247 c 0,8,9
 558 190 558 190 537.5 144 c 128,-1,10
 517 98 517 98 481 64 c 128,-1,11
 445 30 445 30 396 12 c 128,-1,12
 347 -6 347 -6 291 -6 c 0,13,14
 208 -6 208 -6 152 25 c 128,-1,15
 96 56 96 56 48 116 c 1,16,-1
 99 161 l 1,17,18
 139 116 139 116 184 85 c 128,-1,19
 229 54 229 54 292 54 c 0,20,21
 332 54 332 54 368 69 c 128,-1,22
 404 84 404 84 431 110.5 c 128,-1,23
 458 137 458 137 474 172.5 c 128,-1,24
 490 208 490 208 490 247 c 0,25,26
 490 274 490 274 479.5 298.5 c 128,-1,27
 469 323 469 323 451 342.5 c 128,-1,28
 433 362 433 362 408.5 373 c 128,-1,29
 384 384 384 384 356 384 c 2,30,-1
 113 384 l 1,31,-1
 113 716 l 1,32,-1
 519 716 l 1,33,-1
 519 656 l 1,0,-1
EndSplineSet
EndChar
StartChar: six
Encoding: 54 54 23
Width: 598
VWidth: 1507
Flags: W
HStem: -6 60<196.934 370.484> 389 60<247.516 427.285> 675 61<251.983 409.717>
VStem: 54 68<353 536.202> 482 68<173.032 250 250 334.25>
Fore
339 449 m 2,0,1
 442 449 442 449 496 397 c 128,-1,2
 550 345 550 345 550 250 c 2,3,-1
 550 240 l 2,4,5
 550 191 550 191 531.5 147 c 128,-1,6
 513 103 513 103 479.5 69 c 128,-1,7
 446 35 446 35 403 14.5 c 128,-1,8
 360 -6 360 -6 314 -6 c 2,9,-1
 280 -6 l 2,10,11
 207 -6 207 -6 159.5 25.5 c 128,-1,12
 112 57 112 57 86 112 c 0,13,14
 69 148 69 148 61.5 197.5 c 128,-1,15
 54 247 54 247 54 288 c 2,16,-1
 54 449 l 2,17,18
 54 510 54 510 76.5 562 c 128,-1,19
 99 614 99 614 137.5 652 c 128,-1,20
 176 690 176 690 228 713 c 128,-1,21
 280 736 280 736 339 736 c 0,22,23
 386 736 386 736 425 723 c 128,-1,24
 464 710 464 710 494 687 c 1,25,-1
 454 632 l 1,26,27
 431 648 431 648 401.5 661.5 c 128,-1,28
 372 675 372 675 339 675 c 0,29,30
 294 675 294 675 255 657 c 128,-1,31
 216 639 216 639 186.5 609 c 128,-1,32
 157 579 157 579 139.5 537.5 c 128,-1,33
 122 496 122 496 122 451 c 2,34,-1
 122 353 l 1,35,36
 154 396 154 396 200 422.5 c 128,-1,37
 246 449 246 449 298 449 c 2,38,-1
 339 449 l 2,0,1
139 200 m 0,39,40
 139 133 139 133 175 93.5 c 128,-1,41
 211 54 211 54 279 54 c 2,42,-1
 304 54 l 2,43,44
 339 54 339 54 371.5 70.5 c 128,-1,45
 404 87 404 87 429 113 c 128,-1,46
 454 139 454 139 468 172 c 128,-1,47
 482 205 482 205 482 240 c 2,48,-1
 482 250 l 2,49,50
 482 317 482 317 446 353 c 128,-1,51
 410 389 410 389 341 389 c 2,52,-1
 315 389 l 2,53,54
 279 389 279 389 246.5 373 c 128,-1,55
 214 357 214 357 190.5 330.5 c 128,-1,56
 167 304 167 304 153 270.5 c 128,-1,57
 139 237 139 237 139 200 c 0,39,40
EndSplineSet
EndChar
StartChar: seven
Encoding: 55 55 24
Width: 554
VWidth: 1507
Flags: W
HStem: 0 21G<187 255> 657 61<38 433>
VStem: 38 481<672 718> 187 68<0 61.0664>
Fore
38 718 m 1,0,-1
 519 718 l 1,1,-1
 519 672 l 1,2,-1
 300 214 l 2,3,4
 276 164 276 164 265.5 109 c 128,-1,5
 255 54 255 54 255 0 c 1,6,-1
 187 0 l 1,7,8
 190 53 190 53 196.5 108 c 128,-1,9
 203 163 203 163 225 211 c 0,10,11
 235 235 235 235 248.5 265 c 128,-1,12
 262 295 262 295 285 344 c 128,-1,13
 308 393 308 393 343 468.5 c 128,-1,14
 378 544 378 544 433 657 c 1,15,-1
 38 657 l 1,16,-1
 38 718 l 1,0,-1
EndSplineSet
EndChar
StartChar: eight
Encoding: 56 56 25
Width: 592
VWidth: 1507
Flags: W
HStem: -8 61<176.189 320.543> 356 60<243.75 256 256 363.218> 665 60<267.991 402.347>
VStem: 48 68<109.758 233.822> 78 68<460.483 569.737> 448 69<500.152 618.808> 476 68<143.798 266.821>
Fore
437 392 m 1,0,1
 484 371 484 371 514 322.5 c 128,-1,2
 544 274 544 274 544 219 c 0,3,4
 544 161 544 161 523.5 119 c 128,-1,5
 503 77 503 77 467 49 c 128,-1,6
 431 21 431 21 382 6.5 c 128,-1,7
 333 -8 333 -8 277 -8 c 2,8,-1
 258 -8 l 2,9,10
 213 -8 213 -8 175 6 c 128,-1,11
 137 20 137 20 108.5 44.5 c 128,-1,12
 80 69 80 69 64 106 c 128,-1,13
 48 143 48 143 48 188 c 0,14,15
 48 238 48 238 77.5 290 c 128,-1,16
 107 342 107 342 155 377 c 1,17,18
 119 399 119 399 98.5 432.5 c 128,-1,19
 78 466 78 466 78 514 c 0,20,21
 78 558 78 558 95 596.5 c 128,-1,22
 112 635 112 635 140.5 663.5 c 128,-1,23
 169 692 169 692 206.5 708.5 c 128,-1,24
 244 725 244 725 286 725 c 2,25,-1
 324 725 l 2,26,27
 418 725 418 725 467.5 675.5 c 128,-1,28
 517 626 517 626 517 540 c 0,29,30
 517 497 517 497 492 456 c 128,-1,31
 467 415 467 415 437 392 c 1,0,1
292 356 m 2,32,33
 256 356 256 356 223.5 339.5 c 128,-1,34
 191 323 191 323 168 297 c 128,-1,35
 145 271 145 271 130.5 242 c 128,-1,36
 116 213 116 213 116 188 c 0,37,38
 116 125 116 125 156 89 c 128,-1,39
 196 53 196 53 256 53 c 2,40,-1
 276 53 l 2,41,42
 317 53 317 53 353 64 c 128,-1,43
 389 75 389 75 417 96.5 c 128,-1,44
 445 118 445 118 460.5 148.5 c 128,-1,45
 476 179 476 179 476 219 c 0,46,47
 476 246 476 246 464 270 c 128,-1,48
 452 294 452 294 432.5 313.5 c 128,-1,49
 413 333 413 333 389 344.5 c 128,-1,50
 365 356 365 356 342 356 c 2,51,-1
 292 356 l 2,32,33
312 416 m 2,52,53
 339 418 339 418 364 430 c 128,-1,54
 389 442 389 442 408 460 c 128,-1,55
 427 478 427 478 437.5 500 c 128,-1,56
 448 522 448 522 448 540 c 0,57,58
 448 597 448 597 417 631 c 128,-1,59
 386 665 386 665 324 665 c 2,60,-1
 301 665 l 2,61,62
 270 665 270 665 242 653.5 c 128,-1,63
 214 642 214 642 192 621.5 c 128,-1,64
 170 601 170 601 158 574 c 128,-1,65
 146 547 146 547 146 516 c 128,-1,66
 146 485 146 485 159 465.5 c 128,-1,67
 172 446 172 446 190 435 c 128,-1,68
 208 424 208 424 227 420 c 128,-1,69
 246 416 246 416 256 416 c 2,70,-1
 312 416 l 2,52,53
EndSplineSet
EndChar
StartChar: nine
Encoding: 57 57 26
Width: 592
VWidth: 1507
Flags: W
HStem: -6 60<188.567 346.259> 282 60<169.377 350.999> 675 61<227.516 401.937>
VStem: 48 68<395 555.938> 476 68<193.798 377>
Fore
259 282 m 2,0,1
 157 282 157 282 102.5 333 c 128,-1,2
 48 384 48 384 48 479 c 2,3,-1
 48 490 l 2,4,5
 48 538 48 538 67 582.5 c 128,-1,6
 86 627 86 627 119 661 c 128,-1,7
 152 695 152 695 194.5 715.5 c 128,-1,8
 237 736 237 736 285 736 c 2,9,-1
 318 736 l 2,10,11
 392 736 392 736 439.5 704 c 128,-1,12
 487 672 487 672 513 618 c 0,13,14
 529 582 529 582 536.5 531.5 c 128,-1,15
 544 481 544 481 544 440 c 2,16,-1
 544 279 l 2,17,18
 544 219 544 219 521.5 167 c 128,-1,19
 499 115 499 115 460.5 76.5 c 128,-1,20
 422 38 422 38 370 16 c 128,-1,21
 318 -6 318 -6 259 -6 c 0,22,23
 213 -6 213 -6 173.5 7 c 128,-1,24
 134 20 134 20 104 42 c 1,25,-1
 145 98 l 1,26,27
 167 81 167 81 196.5 67.5 c 128,-1,28
 226 54 226 54 259 54 c 0,29,30
 304 54 304 54 343.5 72 c 128,-1,31
 383 90 383 90 412.5 120.5 c 128,-1,32
 442 151 442 151 459 192.5 c 128,-1,33
 476 234 476 234 476 279 c 2,34,-1
 476 377 l 1,35,36
 445 333 445 333 399 307.5 c 128,-1,37
 353 282 353 282 300 282 c 2,38,-1
 259 282 l 2,0,1
460 529 m 0,39,40
 460 597 460 597 423.5 636 c 128,-1,41
 387 675 387 675 320 675 c 2,42,-1
 294 675 l 2,43,44
 259 675 259 675 226.5 658.5 c 128,-1,45
 194 642 194 642 169.5 616.5 c 128,-1,46
 145 591 145 591 130.5 557 c 128,-1,47
 116 523 116 523 116 490 c 2,48,-1
 116 479 l 2,49,50
 116 413 116 413 152 377.5 c 128,-1,51
 188 342 188 342 258 342 c 2,52,-1
 283 342 l 2,53,54
 320 342 320 342 352 358 c 128,-1,55
 384 374 384 374 407.5 399.5 c 128,-1,56
 431 425 431 425 445.5 459 c 128,-1,57
 460 493 460 493 460 529 c 0,39,40
EndSplineSet
EndChar
StartChar: colon
Encoding: 58 58 27
Width: 301
VWidth: 1507
Flags: W
HStem: 27 106<122.471 197.014> 396 106<122.471 197.014>
VStem: 107 106<42.4707 117.529 411.986 486.529>
Fore
107 80 m 256,0,1
 107 103 107 103 122 118 c 128,-1,2
 137 133 137 133 160 133 c 256,3,4
 182 133 182 133 197.5 118 c 128,-1,5
 213 103 213 103 213 80 c 256,6,7
 213 57 213 57 197.5 42 c 128,-1,8
 182 27 182 27 160 27 c 256,9,10
 137 27 137 27 122 42 c 128,-1,11
 107 57 107 57 107 80 c 256,0,1
107 449 m 256,12,13
 107 472 107 472 122 487 c 128,-1,14
 137 502 137 502 160 502 c 256,15,16
 182 502 182 502 197.5 487 c 128,-1,17
 213 472 213 472 213 449 c 256,18,19
 213 427 213 427 197.5 411.5 c 128,-1,20
 182 396 182 396 160 396 c 256,21,22
 137 396 137 396 122 411.5 c 128,-1,23
 107 427 107 427 107 449 c 256,12,13
EndSplineSet
EndChar
StartChar: semicolon
Encoding: 59 59 28
Width: 301
VWidth: 1507
Flags: W
HStem: 396 106<139.596 197.014>
VStem: 107 106<411.986 486.529> 139 61<67.7426 142>
Fore
107 449 m 256,0,1
 107 472 107 472 122 487 c 128,-1,2
 137 502 137 502 160 502 c 256,3,4
 182 502 182 502 197.5 487 c 128,-1,5
 213 472 213 472 213 449 c 256,6,7
 213 427 213 427 197.5 411.5 c 128,-1,8
 182 396 182 396 160 396 c 256,9,10
 137 396 137 396 122 411.5 c 128,-1,11
 107 427 107 427 107 449 c 256,0,1
139 142 m 1,12,-1
 200 142 l 1,13,-1
 200 101 l 2,14,15
 200 57 200 57 188 28.5 c 128,-1,16
 176 0 176 0 159.5 -19.5 c 128,-1,17
 143 -39 143 -39 125 -51 c 128,-1,18
 107 -63 107 -63 95 -72 c 1,19,-1
 60 -24 l 1,20,21
 71 -14 71 -14 85 -4 c 128,-1,22
 99 6 99 6 110.5 19.5 c 128,-1,23
 122 33 122 33 130.5 52.5 c 128,-1,24
 139 72 139 72 139 101 c 2,25,-1
 139 142 l 1,12,-1
EndSplineSet
EndChar
StartChar: less
Encoding: 60 60 29
Width: 621
VWidth: 1507
Flags: W
HStem: -11 21G<539.346 573>
Fore
573 615 m 1,0,-1
 573 547 l 1,1,-1
 166 301 l 1,2,-1
 573 57 l 1,3,-1
 573 -11 l 1,4,-1
 48 301 l 1,5,-1
 573 615 l 1,0,-1
EndSplineSet
EndChar
StartChar: equal
Encoding: 61 61 30
Width: 527
VWidth: 1507
Flags: W
HStem: 185 70<42 464 42 464 42 42> 378 70<42 464>
Fore
42 185 m 1,0,-1
 42 255 l 1,1,-1
 464 255 l 1,2,-1
 464 185 l 1,3,-1
 42 185 l 1,0,-1
42 378 m 1,4,-1
 42 448 l 1,5,-1
 464 448 l 1,6,-1
 464 378 l 1,7,-1
 42 378 l 1,4,-1
EndSplineSet
EndChar
StartChar: greater
Encoding: 62 62 31
Width: 622
VWidth: 1507
Flags: W
HStem: -11 21G<48 81.6538>
Fore
573 301 m 1,0,-1
 48 -11 l 1,1,-1
 48 57 l 1,2,-1
 455 301 l 1,3,-1
 48 547 l 1,4,-1
 48 615 l 1,5,-1
 573 301 l 1,0,-1
EndSplineSet
EndChar
StartChar: question
Encoding: 63 63 32
Width: 539
VWidth: 1507
Flags: W
HStem: -8 106<194.986 269.529> 651 67<108.096 315.046>
VStem: 179 106<7.98596 82.5293> 193 68<164 247.502> 419 68<461.294 598.383>
Fore
179 45 m 256,0,1
 179 68 179 68 194.5 83 c 128,-1,2
 210 98 210 98 232 98 c 256,3,4
 255 98 255 98 270 83 c 128,-1,5
 285 68 285 68 285 45 c 256,6,7
 285 23 285 23 270 7.5 c 128,-1,8
 255 -8 255 -8 232 -8 c 256,9,10
 210 -8 210 -8 194.5 7.5 c 128,-1,11
 179 23 179 23 179 45 c 256,0,1
23 662 m 1,12,13
 44 686 44 686 87.5 702 c 128,-1,14
 131 718 131 718 188 718 c 2,15,-1
 271 718 l 2,16,17
 315 718 315 718 354 705.5 c 128,-1,18
 393 693 393 693 422.5 669 c 128,-1,19
 452 645 452 645 469.5 609 c 128,-1,20
 487 573 487 573 487 526 c 0,21,22
 487 472 487 472 450 423.5 c 128,-1,23
 413 375 413 375 323 336 c 0,24,25
 301 327 301 327 289 312 c 128,-1,26
 277 297 277 297 270.5 280.5 c 128,-1,27
 264 264 264 264 262.5 248 c 128,-1,28
 261 232 261 232 261 223 c 2,29,-1
 261 164 l 1,30,-1
 193 164 l 1,31,-1
 193 223 l 2,32,33
 193 241 193 241 197.5 264.5 c 128,-1,34
 202 288 202 288 215.5 313 c 128,-1,35
 229 338 229 338 252.5 361 c 128,-1,36
 276 384 276 384 315 402 c 0,37,38
 377 431 377 431 398 461 c 128,-1,39
 419 491 419 491 419 526 c 0,40,41
 419 588 419 588 375.5 619.5 c 128,-1,42
 332 651 332 651 271 651 c 2,43,-1
 188 651 l 2,44,45
 142 651 142 651 107 637 c 128,-1,46
 72 623 72 623 53 601 c 1,47,-1
 23 662 l 1,12,13
EndSplineSet
EndChar
StartChar: at
Encoding: 64 64 33
Width: 905
VWidth: 1507
Flags: W
HStem: -27 62<240.064 627.561> 139 58<321.75 464.376> 143 62<628.919 729.807> 514 59<342.455 492.091> 681 62<274.892 661.452>
VStem: 63 62<149.548 533.108> 235 59<224.875 399 399 466.514> 543 58<242.913 486.328 547 573> 776 62<323.711 566.452>
Fore
543 437 m 2,0,1
 540 470 540 470 515.5 492 c 128,-1,2
 491 514 491 514 458 514 c 2,3,-1
 409 514 l 2,4,5
 360 514 360 514 327 481.5 c 128,-1,6
 294 449 294 449 294 399 c 2,7,-1
 294 280 l 2,8,9
 294 246 294 246 318 221.5 c 128,-1,10
 342 197 342 197 377 197 c 2,11,-1
 428 197 l 2,12,13
 476 197 476 197 508.5 228 c 128,-1,14
 541 259 541 259 543 308 c 2,15,-1
 543 437 l 2,0,1
715 35 m 1,16,17
 675 5 675 5 629 -11 c 128,-1,18
 583 -27 583 -27 532 -27 c 2,19,-1
 317 -27 l 2,20,21
 264 -27 264 -27 217 -7.5 c 128,-1,22
 170 12 170 12 136.5 46 c 128,-1,23
 103 80 103 80 83 126.5 c 128,-1,24
 63 173 63 173 63 226 c 2,25,-1
 63 436 l 2,26,27
 63 500 63 500 87.5 557 c 128,-1,28
 112 614 112 614 154 655 c 128,-1,29
 196 696 196 696 252 719.5 c 128,-1,30
 308 743 308 743 371 743 c 2,31,-1
 585 743 l 2,32,33
 638 743 638 743 684.5 723.5 c 128,-1,34
 731 704 731 704 765 670 c 128,-1,35
 799 636 799 636 818.5 589.5 c 128,-1,36
 838 543 838 543 838 490 c 2,37,-1
 838 384 l 2,38,39
 838 318 838 318 827 272 c 128,-1,40
 816 226 816 226 795.5 197.5 c 128,-1,41
 775 169 775 169 745.5 156 c 128,-1,42
 716 143 716 143 680 143 c 0,43,44
 636 143 636 143 609.5 164 c 128,-1,45
 583 185 583 185 571 210 c 1,46,47
 559 190 559 190 542 176.5 c 128,-1,48
 525 163 525 163 505 154.5 c 128,-1,49
 485 146 485 146 465 142.5 c 128,-1,50
 445 139 445 139 428 139 c 2,51,-1
 377 139 l 2,52,53
 317 139 317 139 276 179.5 c 128,-1,54
 235 220 235 220 235 280 c 2,55,-1
 235 399 l 2,56,57
 235 436 235 436 248.5 467.5 c 128,-1,58
 262 499 262 499 286.5 522.5 c 128,-1,59
 311 546 311 546 341.5 559.5 c 128,-1,60
 372 573 372 573 409 573 c 2,61,-1
 458 573 l 2,62,63
 484 573 484 573 505 566 c 128,-1,64
 526 559 526 559 543 547 c 1,65,-1
 543 573 l 1,66,-1
 601 573 l 1,67,-1
 601 309 l 2,68,69
 601 267 601 267 621.5 236 c 128,-1,70
 642 205 642 205 680 205 c 0,71,72
 707 205 707 205 726 219.5 c 128,-1,73
 745 234 745 234 756 258.5 c 128,-1,74
 767 283 767 283 771.5 315.5 c 128,-1,75
 776 348 776 348 776 386 c 2,76,-1
 776 494 l 2,77,78
 776 534 776 534 762 567.5 c 128,-1,79
 748 601 748 601 722 627 c 128,-1,80
 696 653 696 653 662.5 667 c 128,-1,81
 629 681 629 681 589 681 c 2,82,-1
 368 681 l 2,83,84
 318 681 318 681 273.5 662.5 c 128,-1,85
 229 644 229 644 196.5 611.5 c 128,-1,86
 164 579 164 579 144.5 534.5 c 128,-1,87
 125 490 125 490 125 439 c 2,88,-1
 125 222 l 2,89,90
 125 182 125 182 139.5 148.5 c 128,-1,91
 154 115 154 115 179.5 89 c 128,-1,92
 205 63 205 63 239 49 c 128,-1,93
 273 35 273 35 312 35 c 2,94,-1
 535 35 l 2,95,96
 615 35 615 35 678 84 c 1,97,-1
 715 35 l 1,16,17
EndSplineSet
EndChar
StartChar: A
Encoding: 65 65 34
Width: 788
VWidth: 1507
Flags: W
HStem: 0 21G<38 121.7 666.1 751> 200 61<226 559> 698 20G<347.142 371.5>
Fore
356 718 m 1,0,1
 387 718 387 718 415 704 c 128,-1,2
 443 690 443 690 455 663 c 2,3,-1
 751 0 l 1,4,-1
 675 0 l 1,5,-1
 586 200 l 1,6,-1
 200 200 l 1,7,-1
 113 0 l 1,8,-1
 38 0 l 1,9,-1
 356 718 l 1,0,1
226 261 m 1,10,-1
 559 261 l 1,11,-1
 393 636 l 1,12,-1
 226 261 l 1,10,-1
EndSplineSet
EndChar
StartChar: B
Encoding: 66 66 35
Width: 714
VWidth: 1507
Flags: W
HStem: 0 60<134 528.343> 344 60<134 439.434> 656 60<134 438.763>
VStem: 66 68<60.5851 344 404 656> 528 70<479.316 576.653> 598 71<152.764 235.617>
Fore
130 0 m 2,0,1
 104 0 104 0 85 20.5 c 128,-1,2
 66 41 66 41 66 66 c 2,3,-1
 66 716 l 1,4,-1
 415 716 l 2,5,6
 452 716 452 716 486 700 c 128,-1,7
 520 684 520 684 545 658.5 c 128,-1,8
 570 633 570 633 584 599 c 128,-1,9
 598 565 598 565 598 528 c 0,10,11
 598 488 598 488 582.5 456.5 c 128,-1,12
 567 425 567 425 541 396 c 1,13,14
 568 386 568 386 592.5 365.5 c 128,-1,15
 617 345 617 345 633.5 319.5 c 128,-1,16
 650 294 650 294 659.5 264 c 128,-1,17
 669 234 669 234 669 203 c 0,18,19
 669 166 669 166 655 129.5 c 128,-1,20
 641 93 641 93 616 64.5 c 128,-1,21
 591 36 591 36 557 18 c 128,-1,22
 523 0 523 0 485 0 c 2,23,-1
 130 0 l 2,0,1
485 60 m 2,24,25
 508 60 508 60 529 73.5 c 128,-1,26
 550 87 550 87 565 108.5 c 128,-1,27
 580 130 580 130 589 155.5 c 128,-1,28
 598 181 598 181 598 203 c 256,29,30
 598 226 598 226 589 251 c 128,-1,31
 580 276 580 276 565 296.5 c 128,-1,32
 550 317 550 317 529 330.5 c 128,-1,33
 508 344 508 344 485 344 c 2,34,-1
 134 344 l 1,35,-1
 134 60 l 1,36,-1
 485 60 l 2,24,25
134 656 m 1,37,-1
 134 404 l 1,38,-1
 415 404 l 2,39,40
 437 404 437 404 458 414.5 c 128,-1,41
 479 425 479 425 494.5 442.5 c 128,-1,42
 510 460 510 460 519 482.5 c 128,-1,43
 528 505 528 505 528 528 c 256,44,45
 528 550 528 550 519 573.5 c 128,-1,46
 510 597 510 597 494.5 615 c 128,-1,47
 479 633 479 633 458 644.5 c 128,-1,48
 437 656 437 656 415 656 c 2,49,-1
 134 656 l 1,37,-1
EndSplineSet
EndChar
StartChar: C
Encoding: 67 67 36
Width: 705
VWidth: 1507
Flags: W
HStem: -15 60<220.939 451.749> 671 60<253.22 481.546>
VStem: 51 68<198.172 518.625> 586 68<173.704 255 502 535.5>
Fore
583 502 m 1,0,1
 583 535 583 535 570.5 566 c 128,-1,2
 558 597 558 597 535.5 620.5 c 128,-1,3
 513 644 513 644 482.5 657.5 c 128,-1,4
 452 671 452 671 418 671 c 2,5,-1
 336 671 l 2,6,7
 291 671 291 671 252 650.5 c 128,-1,8
 213 630 213 630 183.5 597 c 128,-1,9
 154 564 154 564 136.5 520 c 128,-1,10
 119 476 119 476 119 431 c 2,11,-1
 119 234 l 2,12,13
 119 199 119 199 132 165 c 128,-1,14
 145 131 145 131 167.5 104.5 c 128,-1,15
 190 78 190 78 220 61.5 c 128,-1,16
 250 45 250 45 285 45 c 2,17,-1
 369 45 l 2,18,19
 413 45 413 45 453 61 c 128,-1,20
 493 77 493 77 522.5 105.5 c 128,-1,21
 552 134 552 134 569 172.5 c 128,-1,22
 586 211 586 211 586 255 c 1,23,-1
 654 255 l 1,24,25
 654 194 654 194 631.5 144.5 c 128,-1,26
 609 95 609 95 570 59.5 c 128,-1,27
 531 24 531 24 479.5 4.5 c 128,-1,28
 428 -15 428 -15 369 -15 c 2,29,-1
 285 -15 l 2,30,31
 237 -15 237 -15 194 5.5 c 128,-1,32
 151 26 151 26 119 60.5 c 128,-1,33
 87 95 87 95 69 140 c 128,-1,34
 51 185 51 185 51 234 c 2,35,-1
 51 431 l 2,36,37
 51 491 51 491 73.5 545.5 c 128,-1,38
 96 600 96 600 134.5 641.5 c 128,-1,39
 173 683 173 683 225 707 c 128,-1,40
 277 731 277 731 336 731 c 2,41,-1
 418 731 l 2,42,43
 467 731 467 731 509.5 713.5 c 128,-1,44
 552 696 552 696 583.5 665.5 c 128,-1,45
 615 635 615 635 633 593.5 c 128,-1,46
 651 552 651 552 651 502 c 1,47,-1
 583 502 l 1,0,1
EndSplineSet
EndChar
StartChar: D
Encoding: 68 68 37
Width: 735
VWidth: 1507
Flags: W
HStem: 0 60<134 466.749> 656 60<134 499.03>
VStem: 66 68<60.5851 656> 601 68<200.282 516.163>
Fore
130 0 m 2,0,1
 104 0 104 0 85 20.5 c 128,-1,2
 66 41 66 41 66 66 c 2,3,-1
 66 716 l 1,4,-1
 434 716 l 2,5,6
 484 716 484 716 527 698 c 128,-1,7
 570 680 570 680 601.5 648.5 c 128,-1,8
 633 617 633 617 651 574 c 128,-1,9
 669 531 669 531 669 481 c 2,10,-1
 669 286 l 2,11,12
 669 226 669 226 646.5 173.5 c 128,-1,13
 624 121 624 121 585 82.5 c 128,-1,14
 546 44 546 44 494.5 22 c 128,-1,15
 443 0 443 0 384 0 c 2,16,-1
 130 0 l 2,0,1
134 60 m 1,17,-1
 384 60 l 2,18,19
 428 60 428 60 468 78 c 128,-1,20
 508 96 508 96 537.5 127 c 128,-1,21
 567 158 567 158 584 199 c 128,-1,22
 601 240 601 240 601 286 c 2,23,-1
 601 481 l 2,24,25
 601 516 601 516 588.5 547.5 c 128,-1,26
 576 579 576 579 553.5 603 c 128,-1,27
 531 627 531 627 500 641.5 c 128,-1,28
 469 656 469 656 434 656 c 2,29,-1
 134 656 l 1,30,-1
 134 60 l 1,17,-1
EndSplineSet
EndChar
StartChar: E
Encoding: 69 69 38
Width: 705
VWidth: 1507
Flags: W
HStem: 0 60<134 639> 344 60<134 565> 656 60<134 639>
VStem: 66 68<60.5851 344 404 656>
Fore
66 716 m 1,0,-1
 639 716 l 1,1,-1
 639 656 l 1,2,-1
 134 656 l 1,3,-1
 134 404 l 1,4,-1
 565 404 l 1,5,-1
 565 344 l 1,6,-1
 134 344 l 1,7,-1
 134 60 l 1,8,-1
 639 60 l 1,9,-1
 639 0 l 1,10,-1
 130 0 l 2,11,12
 104 0 104 0 85 20.5 c 128,-1,13
 66 41 66 41 66 66 c 2,14,-1
 66 716 l 1,0,-1
EndSplineSet
EndChar
StartChar: F
Encoding: 70 70 39
Width: 705
VWidth: 1507
Flags: W
HStem: 0 21G<66 134> 344 60<134 565> 656 60<134 639>
VStem: 66 68<0 344 404 656>
Fore
134 344 m 1,0,-1
 134 0 l 1,1,-1
 66 0 l 1,2,-1
 66 716 l 1,3,-1
 639 716 l 1,4,-1
 639 656 l 1,5,-1
 134 656 l 1,6,-1
 134 404 l 1,7,-1
 565 404 l 1,8,-1
 565 344 l 1,9,-1
 134 344 l 1,0,-1
EndSplineSet
EndChar
StartChar: G
Encoding: 71 71 40
Width: 705
VWidth: 1507
Flags: W
HStem: -15 60<220.939 451.749> 255 60<372 586> 671 60<253.22 481.546>
VStem: 51 68<198.172 518.625> 586 68<173.704 255 502 535.5>
Fore
654 255 m 2,0,1
 654 194 654 194 631.5 144.5 c 128,-1,2
 609 95 609 95 570 59.5 c 128,-1,3
 531 24 531 24 479.5 4.5 c 128,-1,4
 428 -15 428 -15 369 -15 c 2,5,-1
 285 -15 l 2,6,7
 237 -15 237 -15 194 5.5 c 128,-1,8
 151 26 151 26 119 60.5 c 128,-1,9
 87 95 87 95 69 140 c 128,-1,10
 51 185 51 185 51 234 c 2,11,-1
 51 431 l 2,12,13
 51 491 51 491 73.5 545.5 c 128,-1,14
 96 600 96 600 134.5 641.5 c 128,-1,15
 173 683 173 683 225 707 c 128,-1,16
 277 731 277 731 336 731 c 2,17,-1
 418 731 l 2,18,19
 467 731 467 731 509.5 713.5 c 128,-1,20
 552 696 552 696 583.5 665.5 c 128,-1,21
 615 635 615 635 633 593.5 c 128,-1,22
 651 552 651 552 651 502 c 1,23,-1
 583 502 l 1,24,25
 583 535 583 535 570.5 566 c 128,-1,26
 558 597 558 597 535.5 620.5 c 128,-1,27
 513 644 513 644 482.5 657.5 c 128,-1,28
 452 671 452 671 418 671 c 2,29,-1
 336 671 l 2,30,31
 291 671 291 671 252 650.5 c 128,-1,32
 213 630 213 630 183.5 597 c 128,-1,33
 154 564 154 564 136.5 520 c 128,-1,34
 119 476 119 476 119 431 c 2,35,-1
 119 234 l 2,36,37
 119 199 119 199 132 165 c 128,-1,38
 145 131 145 131 167.5 104.5 c 128,-1,39
 190 78 190 78 220 61.5 c 128,-1,40
 250 45 250 45 285 45 c 2,41,-1
 369 45 l 2,42,43
 413 45 413 45 453 61 c 128,-1,44
 493 77 493 77 522.5 105.5 c 128,-1,45
 552 134 552 134 569 172.5 c 128,-1,46
 586 211 586 211 586 255 c 1,47,-1
 372 255 l 1,48,-1
 372 315 l 1,49,-1
 654 315 l 1,50,-1
 654 255 l 2,0,1
EndSplineSet
EndChar
StartChar: H
Encoding: 72 72 41
Width: 705
VWidth: 1507
Flags: W
HStem: 0 21G<66 134 571 639> 344 60<134 571> 696 20G<66 134 571 639>
VStem: 66 68<0 344 404 716> 571 68<0 344 404 716>
Fore
571 344 m 1,0,-1
 134 344 l 1,1,-1
 134 0 l 1,2,-1
 66 0 l 1,3,-1
 66 716 l 1,4,-1
 134 716 l 1,5,-1
 134 404 l 1,6,-1
 571 404 l 1,7,-1
 571 716 l 1,8,-1
 639 716 l 1,9,-1
 639 0 l 1,10,-1
 571 0 l 1,11,-1
 571 344 l 1,0,-1
EndSplineSet
EndChar
StartChar: I
Encoding: 73 73 42
Width: 200
VWidth: 1507
Flags: W
HStem: 0 21G<66 134> 696 20G<66 134>
VStem: 66 68<0 716>
Fore
66 716 m 1,0,-1
 134 716 l 1,1,-1
 134 0 l 1,2,-1
 66 0 l 1,3,-1
 66 716 l 1,0,-1
EndSplineSet
EndChar
StartChar: J
Encoding: 74 74 43
Width: 615
VWidth: 1507
Flags: W
HStem: -15 68<193.249 354.506> 696 20G<481 549>
VStem: 30 68<198.571 234> 481 68<175.158 716>
Fore
98 234 m 1,0,1
 98 199 98 199 111 166.5 c 128,-1,2
 124 134 124 134 146.5 108.5 c 128,-1,3
 169 83 169 83 199 68 c 128,-1,4
 229 53 229 53 264 53 c 0,5,6
 308 53 308 53 347.5 68 c 128,-1,7
 387 83 387 83 416.5 110 c 128,-1,8
 446 137 446 137 463.5 174 c 128,-1,9
 481 211 481 211 481 255 c 2,10,-1
 481 716 l 1,11,-1
 549 716 l 1,12,-1
 549 255 l 2,13,14
 549 194 549 194 526 144.5 c 128,-1,15
 503 95 503 95 464 59.5 c 128,-1,16
 425 24 425 24 374 4.5 c 128,-1,17
 323 -15 323 -15 264 -15 c 0,18,19
 216 -15 216 -15 173 5.5 c 128,-1,20
 130 26 130 26 98 60.5 c 128,-1,21
 66 95 66 95 48 140 c 128,-1,22
 30 185 30 185 30 234 c 1,23,-1
 98 234 l 1,0,1
EndSplineSet
EndChar
StartChar: K
Encoding: 75 75 44
Width: 675
VWidth: 1507
Flags: W
HStem: 0 21G<66 134 523.227 638> 696 20G<66 134 509.045 638>
VStem: 66 68<0 326 407 716>
Fore
543 0 m 1,0,-1
 282 264 l 2,1,2
 241 304 241 304 199.5 315 c 128,-1,3
 158 326 158 326 134 326 c 1,4,-1
 134 0 l 1,5,-1
 66 0 l 1,6,-1
 66 716 l 1,7,-1
 134 716 l 1,8,-1
 134 407 l 1,9,-1
 535 716 l 1,10,-1
 638 716 l 1,11,-1
 203 374 l 1,12,13
 228 374 228 374 251 364 c 128,-1,14
 274 354 274 354 294.5 339 c 128,-1,15
 315 324 315 324 334 306.5 c 128,-1,16
 353 289 353 289 371 271 c 0,17,18
 372 270 372 270 376.5 264.5 c 128,-1,19
 381 259 381 259 407 233.5 c 128,-1,20
 433 208 433 208 486.5 153.5 c 128,-1,21
 540 99 540 99 638 0 c 1,22,-1
 543 0 l 1,0,-1
EndSplineSet
EndChar
StartChar: L
Encoding: 76 76 45
Width: 616
VWidth: 1507
Flags: W
HStem: 0 60<134 579> 696 20G<66 134>
VStem: 66 68<60.5851 716>
Fore
66 716 m 1,0,-1
 134 716 l 1,1,-1
 134 60 l 1,2,-1
 579 60 l 1,3,-1
 579 0 l 1,4,-1
 130 0 l 2,5,6
 104 0 104 0 85 20.5 c 128,-1,7
 66 41 66 41 66 66 c 2,8,-1
 66 716 l 1,0,-1
EndSplineSet
EndChar
StartChar: M
Encoding: 77 77 46
Width: 880
VWidth: 1507
Flags: W
HStem: 0 21G<66 134 429.338 450.662 746 814> 698 20G<66 144.813 735.149 814>
VStem: 66 68<0 565> 746 68<0 565>
Fore
814 0 m 1,0,-1
 746 0 l 1,1,-1
 746 565 l 1,2,-1
 440 -9 l 1,3,-1
 134 565 l 1,4,-1
 134 0 l 1,5,-1
 66 0 l 1,6,-1
 66 718 l 1,7,-1
 134 718 l 1,8,-1
 440 152 l 1,9,-1
 746 716 l 1,10,-1
 814 716 l 1,11,-1
 814 0 l 1,0,-1
EndSplineSet
EndChar
StartChar: N
Encoding: 78 78 47
Width: 735
VWidth: 1507
Flags: W
HStem: 0 21G<66 134 585.511 669> 698 20G<66 149.39 598 669>
VStem: 66 68<0 603> 598 71<115 718>
Fore
598 115 m 1,0,-1
 598 718 l 1,1,-1
 669 718 l 1,2,-1
 669 0 l 1,3,-1
 601 0 l 1,4,-1
 134 603 l 1,5,-1
 134 0 l 1,6,-1
 66 0 l 1,7,-1
 66 718 l 1,8,-1
 134 718 l 1,9,-1
 598 115 l 1,0,-1
EndSplineSet
EndChar
StartChar: O
Encoding: 79 79 48
Width: 706
VWidth: 1507
Flags: W
HStem: -15 60<222.97 453.265> 671 60<256.22 485.031>
VStem: 53 68<199.305 517.656> 588 68<198.344 286 286 516.695>
Fore
656 286 m 2,0,1
 656 226 656 226 633 171 c 128,-1,2
 610 116 610 116 571 74.5 c 128,-1,3
 532 33 532 33 481 9 c 128,-1,4
 430 -15 430 -15 371 -15 c 2,5,-1
 288 -15 l 2,6,7
 238 -15 238 -15 195 5.5 c 128,-1,8
 152 26 152 26 120.5 60.5 c 128,-1,9
 89 95 89 95 71 140 c 128,-1,10
 53 185 53 185 53 235 c 2,11,-1
 53 430 l 2,12,13
 53 490 53 490 75.5 545 c 128,-1,14
 98 600 98 600 137 641.5 c 128,-1,15
 176 683 176 683 228 707 c 128,-1,16
 280 731 280 731 339 731 c 2,17,-1
 421 731 l 2,18,19
 470 731 470 731 513 710.5 c 128,-1,20
 556 690 556 690 588 655.5 c 128,-1,21
 620 621 620 621 638 576 c 128,-1,22
 656 531 656 531 656 481 c 2,23,-1
 656 286 l 2,0,1
588 481 m 2,24,25
 588 516 588 516 575 549.5 c 128,-1,26
 562 583 562 583 539.5 610.5 c 128,-1,27
 517 638 517 638 486 654.5 c 128,-1,28
 455 671 455 671 421 671 c 2,29,-1
 339 671 l 2,30,31
 294 671 294 671 255 650.5 c 128,-1,32
 216 630 216 630 185.5 596 c 128,-1,33
 155 562 155 562 138 519 c 128,-1,34
 121 476 121 476 121 430 c 2,35,-1
 121 235 l 2,36,37
 121 200 121 200 133.5 166.5 c 128,-1,38
 146 133 146 133 168.5 105.5 c 128,-1,39
 191 78 191 78 222 61.5 c 128,-1,40
 253 45 253 45 288 45 c 2,41,-1
 371 45 l 2,42,43
 415 45 415 45 454.5 65.5 c 128,-1,44
 494 86 494 86 523.5 120 c 128,-1,45
 553 154 553 154 570.5 197 c 128,-1,46
 588 240 588 240 588 286 c 2,47,-1
 588 481 l 2,24,25
EndSplineSet
EndChar
StartChar: P
Encoding: 80 80 49
Width: 676
VWidth: 1507
Flags: W
HStem: 0 21G<66 134> 344 60<134 517.581> 656 60<134 477.525>
VStem: 66 68<0 344 404 656> 571 68<457.959 577.509>
Fore
66 716 m 1,0,-1
 451 716 l 2,1,2
 490 716 490 716 524 701 c 128,-1,3
 558 686 558 686 583.5 660.5 c 128,-1,4
 609 635 609 635 624 601 c 128,-1,5
 639 567 639 567 639 528 c 256,6,7
 639 488 639 488 624 455 c 128,-1,8
 609 422 609 422 583.5 397 c 128,-1,9
 558 372 558 372 524 358 c 128,-1,10
 490 344 490 344 451 344 c 2,11,-1
 134 344 l 1,12,-1
 134 0 l 1,13,-1
 66 0 l 1,14,-1
 66 716 l 1,0,-1
134 656 m 1,15,-1
 134 404 l 1,16,-1
 451 404 l 2,17,18
 500 404 500 404 535.5 441 c 128,-1,19
 571 478 571 478 571 528 c 0,20,21
 571 552 571 552 561.5 575 c 128,-1,22
 552 598 552 598 536 616.5 c 128,-1,23
 520 635 520 635 497.5 645.5 c 128,-1,24
 475 656 475 656 451 656 c 2,25,-1
 134 656 l 1,15,-1
EndSplineSet
EndChar
StartChar: Q
Encoding: 81 81 50
Width: 705
VWidth: 1507
Flags: W
HStem: -15 60<221.969 439.937> 671 60<254.22 484.03>
VStem: 51 68<199.305 517.656> 586 68<246.449 516.695>
Fore
549 56 m 1,0,1
 511 23 511 23 466 4 c 128,-1,2
 421 -15 421 -15 369 -15 c 2,3,-1
 286 -15 l 2,4,5
 237 -15 237 -15 194 5.5 c 128,-1,6
 151 26 151 26 119 60.5 c 128,-1,7
 87 95 87 95 69 140 c 128,-1,8
 51 185 51 185 51 235 c 2,9,-1
 51 430 l 2,10,11
 51 490 51 490 73.5 545 c 128,-1,12
 96 600 96 600 135.5 641.5 c 128,-1,13
 175 683 175 683 227 707 c 128,-1,14
 279 731 279 731 338 731 c 2,15,-1
 419 731 l 2,16,17
 469 731 469 731 512 710.5 c 128,-1,18
 555 690 555 690 586.5 655.5 c 128,-1,19
 618 621 618 621 636 576 c 128,-1,20
 654 531 654 531 654 481 c 2,21,-1
 654 286 l 2,22,23
 654 237 654 237 638.5 191 c 128,-1,24
 623 145 623 145 595 106 c 1,25,-1
 662 35 l 1,26,-1
 614 -14 l 1,27,-1
 549 56 l 1,0,1
586 481 m 2,28,29
 586 516 586 516 573.5 549.5 c 128,-1,30
 561 583 561 583 538.5 610.5 c 128,-1,31
 516 638 516 638 485 654.5 c 128,-1,32
 454 671 454 671 419 671 c 2,33,-1
 338 671 l 2,34,35
 292 671 292 671 253 650.5 c 128,-1,36
 214 630 214 630 184 596 c 128,-1,37
 154 562 154 562 136.5 519 c 128,-1,38
 119 476 119 476 119 430 c 2,39,-1
 119 235 l 2,40,41
 119 200 119 200 132 166.5 c 128,-1,42
 145 133 145 133 167.5 105.5 c 128,-1,43
 190 78 190 78 221 61.5 c 128,-1,44
 252 45 252 45 286 45 c 2,45,-1
 369 45 l 2,46,47
 407 45 407 45 441 60 c 128,-1,48
 475 75 475 75 503 101 c 1,49,-1
 395 210 l 1,50,-1
 443 258 l 1,51,-1
 547 154 l 1,52,53
 565 184 565 184 575.5 217 c 128,-1,54
 586 250 586 250 586 286 c 2,55,-1
 586 481 l 2,28,29
EndSplineSet
EndChar
StartChar: R
Encoding: 82 82 51
Width: 690
VWidth: 1507
Flags: W
HStem: 0 21G<66 134 574.875 668> 344 60<134 363.313 430 517.581> 656 60<134 477.525>
VStem: 66 68<0 344 404 656> 571 68<457.959 577.509>
Fore
66 716 m 1,0,-1
 451 716 l 2,1,2
 490 716 490 716 524 701 c 128,-1,3
 558 686 558 686 583.5 660.5 c 128,-1,4
 609 635 609 635 624 601 c 128,-1,5
 639 567 639 567 639 528 c 256,6,7
 639 488 639 488 624 455 c 128,-1,8
 609 422 609 422 583.5 397 c 128,-1,9
 558 372 558 372 524 358 c 128,-1,10
 490 344 490 344 451 344 c 2,11,-1
 430 344 l 1,12,13
 437 344 437 344 450.5 329 c 128,-1,14
 464 314 464 314 481 288 c 2,15,-1
 668 0 l 1,16,-1
 588 0 l 1,17,-1
 399 288 l 2,18,19
 386 309 386 309 364 326.5 c 128,-1,20
 342 344 342 344 324 344 c 2,21,-1
 134 344 l 1,22,-1
 134 0 l 1,23,-1
 66 0 l 1,24,-1
 66 716 l 1,0,-1
134 656 m 1,25,-1
 134 404 l 1,26,-1
 451 404 l 2,27,28
 500 404 500 404 535.5 441 c 128,-1,29
 571 478 571 478 571 528 c 0,30,31
 571 552 571 552 561.5 575 c 128,-1,32
 552 598 552 598 536 616.5 c 128,-1,33
 520 635 520 635 497.5 645.5 c 128,-1,34
 475 656 475 656 451 656 c 2,35,-1
 134 656 l 1,25,-1
EndSplineSet
EndChar
StartChar: S
Encoding: 83 83 52
Width: 765
VWidth: 1507
Flags: W
HStem: -15 60<227.517 524.874> 674 59<285.221 498.766>
VStem: 51 68<157.001 225> 84 66.5<490.953 502 502 523.092 523.092 531.819 527.456 601.97> 645 68<141.926 229.163 227.454 230.872 230.872 247 265.5 287.859>
Fore
119 225 m 1,0,1
 119 188 119 188 132.5 156 c 128,-1,2
 146 124 146 124 170 99 c 128,-1,3
 194 74 194 74 226.5 59.5 c 128,-1,4
 259 45 259 45 297 45 c 2,5,-1
 448 45 l 2,6,7
 490 45 490 45 526 58.5 c 128,-1,8
 562 72 562 72 588.5 95 c 128,-1,9
 615 118 615 118 630 147 c 128,-1,10
 645 176 645 176 645 208 c 0,11,12
 645 226 645 226 641.5 247 c 128,-1,13
 638 268 638 268 626.5 288.5 c 128,-1,14
 615 309 615 309 592.5 324 c 128,-1,15
 570 339 570 339 534 344 c 2,16,-1
 235 381 l 2,17,18
 178 392 178 392 147 411.5 c 128,-1,19
 116 431 116 431 101.5 454.5 c 128,-1,20
 87 478 87 478 84 502 c 128,-1,21
 81 526 81 526 81 544 c 0,22,23
 81 595 81 595 107 631.5 c 128,-1,24
 133 668 133 668 170 690.5 c 128,-1,25
 207 713 207 713 246.5 723 c 128,-1,26
 286 733 286 733 315 733 c 2,27,-1
 467 733 l 2,28,29
 511 733 511 733 550 718.5 c 128,-1,30
 589 704 589 704 618.5 677 c 128,-1,31
 648 650 648 650 665.5 611.5 c 128,-1,32
 683 573 683 573 683 526 c 1,33,-1
 615 526 l 1,34,35
 615 556 615 556 603 583 c 128,-1,36
 591 610 591 610 570.5 630.5 c 128,-1,37
 550 651 550 651 523.5 662.5 c 128,-1,38
 497 674 497 674 467 674 c 2,39,-1
 315 674 l 2,40,41
 294 674 294 674 266 665.5 c 128,-1,42
 238 657 238 657 211.5 640.5 c 128,-1,43
 185 624 185 624 167 600 c 128,-1,44
 149 576 149 576 149 544 c 0,45,46
 149 534 149 534 150.5 519.5 c 128,-1,47
 152 505 152 505 161 490.5 c 128,-1,48
 170 476 170 476 190 465 c 128,-1,49
 210 454 210 454 246 449 c 2,50,-1
 541 412 l 2,51,52
 598 402 598 402 632 379 c 128,-1,53
 666 356 666 356 684 326.5 c 128,-1,54
 702 297 702 297 707.5 265.5 c 128,-1,55
 713 234 713 234 713 208 c 0,56,57
 713 160 713 160 692.5 119 c 128,-1,58
 672 78 672 78 636 49 c 128,-1,59
 600 20 600 20 551.5 2.5 c 128,-1,60
 503 -15 503 -15 448 -15 c 2,61,-1
 297 -15 l 2,62,63
 246 -15 246 -15 200.5 3 c 128,-1,64
 155 21 155 21 122 53.5 c 128,-1,65
 89 86 89 86 70 129.5 c 128,-1,66
 51 173 51 173 51 225 c 1,67,-1
 119 225 l 1,0,1
EndSplineSet
EndChar
StartChar: T
Encoding: 84 84 53
Width: 587
VWidth: 1507
Flags: W
HStem: 0 21G<261 329> 656 60<38 261 329 550>
VStem: 261 68<0 656>
Fore
261 656 m 1,0,-1
 38 656 l 1,1,-1
 38 716 l 1,2,-1
 550 716 l 1,3,-1
 550 656 l 1,4,-1
 329 656 l 1,5,-1
 329 0 l 1,6,-1
 261 0 l 1,7,-1
 261 656 l 1,0,-1
EndSplineSet
EndChar
StartChar: U
Encoding: 85 85 54
Width: 720
VWidth: 1507
Flags: W
HStem: -15 60<228.97 459.265> 696 20G<59 127 594 662>
VStem: 59 68<199.305 716> 594 68<198.344 716>
Fore
127 716 m 1,0,-1
 127 235 l 2,1,2
 127 200 127 200 139.5 166.5 c 128,-1,3
 152 133 152 133 174.5 105.5 c 128,-1,4
 197 78 197 78 228 61.5 c 128,-1,5
 259 45 259 45 294 45 c 2,6,-1
 377 45 l 2,7,8
 421 45 421 45 460.5 65.5 c 128,-1,9
 500 86 500 86 529.5 120 c 128,-1,10
 559 154 559 154 576.5 197 c 128,-1,11
 594 240 594 240 594 286 c 2,12,-1
 594 716 l 1,13,-1
 662 716 l 1,14,-1
 662 286 l 2,15,16
 662 226 662 226 639.5 171 c 128,-1,17
 617 116 617 116 577.5 74.5 c 128,-1,18
 538 33 538 33 487 9 c 128,-1,19
 436 -15 436 -15 377 -15 c 2,20,-1
 294 -15 l 2,21,22
 244 -15 244 -15 201 5.5 c 128,-1,23
 158 26 158 26 126.5 60.5 c 128,-1,24
 95 95 95 95 77 140 c 128,-1,25
 59 185 59 185 59 235 c 2,26,-1
 59 716 l 1,27,-1
 127 716 l 1,0,-1
EndSplineSet
EndChar
StartChar: V
Encoding: 86 86 55
Width: 711
VWidth: 1507
Flags: W
HStem: -8 21G<371.5 400.762> 696 20G<38 117.582 593.262 674>
Fore
601 716 m 1,0,-1
 674 716 l 1,1,-1
 393 -8 l 1,2,3
 350 -8 350 -8 325 11 c 128,-1,4
 300 30 300 30 283 68 c 2,5,-1
 38 716 l 1,6,-1
 110 716 l 1,7,-1
 353 75 l 1,8,-1
 601 716 l 1,0,-1
EndSplineSet
EndChar
StartChar: W
Encoding: 87 87 56
Width: 1064
VWidth: 1507
Flags: W
HStem: -8 21G<344.5 371.261 692.739 720> 696 20<38 116.646 490.669 505 947.385 1027>
Fore
366 -8 m 1,0,1
 323 -8 323 -8 296.5 11 c 128,-1,2
 270 30 270 30 253 68 c 2,3,-1
 38 716 l 1,4,-1
 110 716 l 1,5,-1
 323 75 l 1,6,-1
 496 724 l 1,7,8
 514 724 514 724 541 715.5 c 128,-1,9
 568 707 568 707 580 674 c 2,10,-1
 742 75 l 1,11,-1
 954 716 l 1,12,-1
 1027 716 l 1,13,-1
 811 68 l 2,14,15
 794 30 794 30 768 11 c 128,-1,16
 742 -8 742 -8 698 -8 c 1,17,-1
 532 623 l 1,18,-1
 366 -8 l 1,0,1
EndSplineSet
EndChar
StartChar: X
Encoding: 88 88 57
Width: 696
VWidth: 1507
Flags: W
HStem: 0 21G<38 138.933 558 659> 696 20G<38 138.817 557.983 659>
Fore
124 0 m 1,0,-1
 38 0 l 1,1,-1
 304 357 l 1,2,-1
 38 716 l 1,3,-1
 124 716 l 1,4,-1
 347 415 l 1,5,-1
 573 716 l 1,6,-1
 659 716 l 1,7,-1
 390 357 l 1,8,-1
 659 0 l 1,9,-1
 573 0 l 1,10,-1
 348 300 l 1,11,-1
 124 0 l 1,0,-1
EndSplineSet
EndChar
StartChar: Y
Encoding: 89 89 58
Width: 678
VWidth: 1507
Flags: W
HStem: 0 21G<304 372> 696 20G<38 129.817 548.983 641>
VStem: 304 68<0 357>
Fore
372 0 m 1,0,-1
 304 0 l 1,1,-1
 304 357 l 1,2,-1
 38 716 l 1,3,-1
 115 716 l 1,4,-1
 338 415 l 1,5,-1
 564 716 l 1,6,-1
 641 716 l 1,7,-1
 372 357 l 1,8,-1
 372 0 l 1,0,-1
EndSplineSet
EndChar
StartChar: Z
Encoding: 90 90 59
Width: 702
VWidth: 1507
Flags: W
HStem: 0 60<173 641> 656 60<62 529>
Fore
62 656 m 1,0,-1
 62 716 l 1,1,-1
 665 716 l 1,2,-1
 173 60 l 1,3,-1
 641 60 l 1,4,-1
 641 0 l 1,5,-1
 38 0 l 1,6,-1
 529 656 l 1,7,-1
 62 656 l 1,0,-1
EndSplineSet
EndChar
StartChar: bracketleft
Encoding: 91 91 60
Width: 292
VWidth: 1507
Flags: W
HStem: -214 56<174.129 243> 745 55<162.75 243>
VStem: 56 63<-142.523 -106 -106 727.476>
Fore
119 -101 m 2,0,1
 119 -134 119 -134 147 -146 c 128,-1,2
 175 -158 175 -158 207 -158 c 2,3,-1
 243 -158 l 1,4,-1
 243 -214 l 1,5,-1
 207 -214 l 2,6,7
 176 -214 176 -214 149 -208 c 128,-1,8
 122 -202 122 -202 101 -189 c 128,-1,9
 80 -176 80 -176 68 -156 c 128,-1,10
 56 -136 56 -136 56 -106 c 2,11,-1
 56 689 l 2,12,13
 56 719 56 719 68 740 c 128,-1,14
 80 761 80 761 101 774.5 c 128,-1,15
 122 788 122 788 149 794 c 128,-1,16
 176 800 176 800 207 800 c 2,17,-1
 243 800 l 1,18,-1
 243 745 l 1,19,-1
 207 745 l 2,20,21
 175 745 175 745 147 731.5 c 128,-1,22
 119 718 119 718 119 684 c 2,23,-1
 119 -101 l 2,0,1
EndSplineSet
EndChar
StartChar: bracketright
Encoding: 93 93 62
Width: 292
VWidth: 1507
Flags: W
HStem: -214 56<56 124.73> 745 55<56 135.312>
VStem: 179 64<-142.523 728.209>
Fore
179 684 m 2,0,1
 179 718 179 718 151.5 731.5 c 128,-1,2
 124 745 124 745 92 745 c 2,3,-1
 56 745 l 1,4,-1
 56 800 l 1,5,-1
 92 800 l 2,6,7
 122 800 122 800 149 794 c 128,-1,8
 176 788 176 788 197.5 774.5 c 128,-1,9
 219 761 219 761 231 740 c 128,-1,10
 243 719 243 719 243 689 c 2,11,-1
 243 -106 l 2,12,13
 243 -136 243 -136 231 -156 c 128,-1,14
 219 -176 219 -176 197.5 -189 c 128,-1,15
 176 -202 176 -202 149 -208 c 128,-1,16
 122 -214 122 -214 92 -214 c 2,17,-1
 56 -214 l 1,18,-1
 56 -158 l 1,19,-1
 92 -158 l 2,20,21
 124 -158 124 -158 151.5 -146 c 128,-1,22
 179 -134 179 -134 179 -101 c 2,23,-1
 179 684 l 2,0,1
EndSplineSet
EndChar
StartChar: asciicircum
Encoding: 94 94 63
Width: 681
VWidth: 1507
Flags: W
HStem: 374 408<154 338 338 338>
Fore
338 663 m 1,0,-1
 154 374 l 1,1,-1
 86 374 l 1,2,-1
 338 782 l 1,3,-1
 592 374 l 1,4,-1
 523 374 l 1,5,-1
 338 663 l 1,0,-1
EndSplineSet
EndChar
StartChar: underscore
Encoding: 95 95 64
Width: 539
VWidth: 1507
Flags: W
HStem: -137 60<-2 541>
Fore
-2 -137 m 1,0,-1
 -2 -77 l 1,1,-1
 541 -77 l 1,2,-1
 541 -137 l 1,3,-1
 -2 -137 l 1,0,-1
EndSplineSet
EndChar
StartChar: grave
Encoding: 96 96 65
Width: 179
VWidth: 1507
Flags: W
HStem: 565 166<-5 176 -5 -5>
Fore
176 565 m 1,0,-1
 106 565 l 1,1,-1
 -5 731 l 1,2,-1
 66 731 l 1,3,-1
 176 565 l 1,0,-1
EndSplineSet
EndChar
StartChar: a
Encoding: 97 97 66
Width: 530
VWidth: 1507
Flags: W
HStem: -8 61<149.305 289.546> 458 61<198.782 333.551>
VStem: 48 68<129.383 339.184> 412 67<-3 69 144.813 382.86 464 511>
Fore
412 69 m 1,0,1
 390 38 390 38 345 15 c 128,-1,2
 300 -8 300 -8 261 -8 c 2,3,-1
 200 -8 l 2,4,5
 166 -8 166 -8 137.5 6.5 c 128,-1,6
 109 21 109 21 89 45 c 128,-1,7
 69 69 69 69 58.5 101 c 128,-1,8
 48 133 48 133 48 167 c 2,9,-1
 48 308 l 2,10,11
 48 350 48 350 64 388.5 c 128,-1,12
 80 427 80 427 108 456 c 128,-1,13
 136 485 136 485 173 502 c 128,-1,14
 210 519 210 519 252 519 c 2,15,-1
 312 519 l 2,16,17
 353 519 353 519 373 500.5 c 128,-1,18
 393 482 393 482 412 464 c 1,19,-1
 412 511 l 1,20,-1
 479 511 l 1,21,-1
 479 -3 l 1,22,-1
 412 -3 l 1,23,-1
 412 69 l 1,0,1
412 344 m 2,24,25
 410 363 410 363 401.5 383.5 c 128,-1,26
 393 404 393 404 379.5 420.5 c 128,-1,27
 366 437 366 437 349 447.5 c 128,-1,28
 332 458 332 458 312 458 c 2,29,-1
 252 458 l 2,30,31
 223 458 223 458 198 445.5 c 128,-1,32
 173 433 173 433 155 411.5 c 128,-1,33
 137 390 137 390 126.5 363 c 128,-1,34
 116 336 116 336 116 308 c 2,35,-1
 116 167 l 2,36,37
 116 127 116 127 138 90 c 128,-1,38
 160 53 160 53 200 53 c 2,39,-1
 261 53 l 2,40,41
 288 53 288 53 314.5 65 c 128,-1,42
 341 77 341 77 362 97.5 c 128,-1,43
 383 118 383 118 396.5 144 c 128,-1,44
 410 170 410 170 412 197 c 2,45,-1
 412 344 l 2,24,25
EndSplineSet
Substitution2: "Single Substitution lookup 22 subtable" uni0E38
Substitution2: "Single Substitution lookup 22 subtable" uni0E38
EndChar
StartChar: b
Encoding: 98 98 67
Width: 532
VWidth: 1507
Flags: W
HStem: -8 61<203.248 337.249> 458 61<232.541 376.503> 696 20G<54 122>
VStem: 54 68<0 41 119.047 378.797 449 716> 416 68<173.803 379.561>
Fore
54 716 m 1,0,-1
 122 716 l 1,1,-1
 122 449 l 1,2,3
 149 475 149 475 181 497 c 128,-1,4
 213 519 213 519 261 519 c 2,5,-1
 321 519 l 2,6,7
 356 519 356 519 386 504.5 c 128,-1,8
 416 490 416 490 438 466 c 128,-1,9
 460 442 460 442 472 410 c 128,-1,10
 484 378 484 378 484 344 c 2,11,-1
 484 203 l 2,12,13
 484 160 484 160 469 122 c 128,-1,14
 454 84 454 84 426.5 55 c 128,-1,15
 399 26 399 26 363 9 c 128,-1,16
 327 -8 327 -8 285 -8 c 2,17,-1
 225 -8 l 2,18,19
 185 -8 185 -8 164 8 c 128,-1,20
 143 24 143 24 122 41 c 1,21,-1
 122 0 l 1,22,-1
 54 0 l 1,23,-1
 54 716 l 1,0,-1
416 347 m 2,24,25
 416 387 416 387 389 422.5 c 128,-1,26
 362 458 362 458 321 458 c 2,27,-1
 261 458 l 2,28,29
 235 458 235 458 211.5 447.5 c 128,-1,30
 188 437 188 437 169.5 419.5 c 128,-1,31
 151 402 151 402 139 379.5 c 128,-1,32
 127 357 127 357 122 333 c 1,33,-1
 122 154 l 1,34,35
 125 136 125 136 134 118.5 c 128,-1,36
 143 101 143 101 157.5 86 c 128,-1,37
 172 71 172 71 189.5 62 c 128,-1,38
 207 53 207 53 225 53 c 2,39,-1
 285 53 l 2,40,41
 314 53 314 53 338 66.5 c 128,-1,42
 362 80 362 80 379 101 c 128,-1,43
 396 122 396 122 406 150 c 128,-1,44
 416 178 416 178 416 207 c 2,45,-1
 416 347 l 2,24,25
EndSplineSet
Substitution2: "Single Substitution lookup 22 subtable" uni0E39
Substitution2: "Single Substitution lookup 22 subtable" uni0E39
EndChar
StartChar: c
Encoding: 99 99 68
Width: 526
VWidth: 1507
Flags: W
HStem: -8 61<192.516 353.843> 458 61<198.782 371.901>
VStem: 48 431<139 167 167 182 167 167> 48 68<139.233 339.184> 412 67<109.607 182 359 419.74>
Fore
410 359 m 1,0,1
 410 399 410 399 380.5 428.5 c 128,-1,2
 351 458 351 458 311 458 c 2,3,-1
 252 458 l 2,4,5
 223 458 223 458 198 445.5 c 128,-1,6
 173 433 173 433 155 411.5 c 128,-1,7
 137 390 137 390 126.5 363 c 128,-1,8
 116 336 116 336 116 308 c 2,9,-1
 116 167 l 2,10,11
 116 146 116 146 123.5 126 c 128,-1,12
 131 106 131 106 144.5 90 c 128,-1,13
 158 74 158 74 176 63.5 c 128,-1,14
 194 53 194 53 216 53 c 2,15,-1
 276 53 l 2,16,17
 333 53 333 53 372.5 89 c 128,-1,18
 412 125 412 125 412 182 c 1,19,-1
 479 182 l 1,20,21
 479 139 479 139 463.5 104 c 128,-1,22
 448 69 448 69 420 44.5 c 128,-1,23
 392 20 392 20 355 6 c 128,-1,24
 318 -8 318 -8 276 -8 c 2,25,-1
 216 -8 l 2,26,27
 181 -8 181 -8 150 6.5 c 128,-1,28
 119 21 119 21 96.5 45 c 128,-1,29
 74 69 74 69 61 101 c 128,-1,30
 48 133 48 133 48 167 c 2,31,-1
 48 308 l 2,32,33
 48 350 48 350 64 388.5 c 128,-1,34
 80 427 80 427 108 456 c 128,-1,35
 136 485 136 485 173 502 c 128,-1,36
 210 519 210 519 252 519 c 2,37,-1
 311 519 l 2,38,39
 381 519 381 519 429.5 474.5 c 128,-1,40
 478 430 478 430 478 359 c 1,41,-1
 410 359 l 1,0,1
EndSplineSet
Substitution2: "Single Substitution lookup 22 subtable" uni0E3A
Substitution2: "Single Substitution lookup 22 subtable" uni0E3A
EndChar
StartChar: d
Encoding: 100 100 69
Width: 533
VWidth: 1507
Flags: W
HStem: -8 61<149.305 289.546> 458 61<198.782 367.806> 696 20G<412 479>
VStem: 48 68<129.383 339.184> 412 67<-3 69 144.813 409.981 472 716>
Fore
412 69 m 1,0,1
 407 62 407 62 393.5 49 c 128,-1,2
 380 36 380 36 359.5 23.5 c 128,-1,3
 339 11 339 11 313.5 1.5 c 128,-1,4
 288 -8 288 -8 261 -8 c 2,5,-1
 200 -8 l 2,6,7
 166 -8 166 -8 137.5 6.5 c 128,-1,8
 109 21 109 21 89 45 c 128,-1,9
 69 69 69 69 58.5 101 c 128,-1,10
 48 133 48 133 48 167 c 2,11,-1
 48 308 l 2,12,13
 48 350 48 350 64 388.5 c 128,-1,14
 80 427 80 427 108 456 c 128,-1,15
 136 485 136 485 173 502 c 128,-1,16
 210 519 210 519 252 519 c 2,17,-1
 312 519 l 2,18,19
 357 519 357 519 376 505 c 128,-1,20
 395 491 395 491 412 472 c 1,21,-1
 412 716 l 1,22,-1
 479 716 l 1,23,-1
 479 -3 l 1,24,-1
 412 -3 l 1,25,-1
 412 69 l 1,0,1
412 351 m 2,26,27
 409 390 409 390 380 424 c 128,-1,28
 351 458 351 458 312 458 c 2,29,-1
 252 458 l 2,30,31
 223 458 223 458 198 445.5 c 128,-1,32
 173 433 173 433 155 411.5 c 128,-1,33
 137 390 137 390 126.5 363 c 128,-1,34
 116 336 116 336 116 308 c 2,35,-1
 116 167 l 2,36,37
 116 127 116 127 138 90 c 128,-1,38
 160 53 160 53 200 53 c 2,39,-1
 261 53 l 2,40,41
 288 53 288 53 314.5 65 c 128,-1,42
 341 77 341 77 362 97.5 c 128,-1,43
 383 118 383 118 396.5 144 c 128,-1,44
 410 170 410 170 412 197 c 2,45,-1
 412 351 l 2,26,27
EndSplineSet
EndChar
StartChar: e
Encoding: 101 101 70
Width: 527
VWidth: 1507
Flags: W
HStem: -8 61<192.516 306.551> 267 53<116 412> 458 61<220.641 333.867>
VStem: 48 68<139.233 167 167 267 320 350.709> 412 67<157.449 188 320 369.165>
Fore
116 167 m 2,0,1
 116 146 116 146 123.5 126 c 128,-1,2
 131 106 131 106 144.5 90 c 128,-1,3
 158 74 158 74 176 63.5 c 128,-1,4
 194 53 194 53 216 53 c 2,5,-1
 276 53 l 2,6,7
 304 53 304 53 329 63.5 c 128,-1,8
 354 74 354 74 372 92 c 128,-1,9
 390 110 390 110 401 135 c 128,-1,10
 412 160 412 160 412 188 c 1,11,-1
 479 188 l 1,12,13
 479 145 479 145 463.5 109.5 c 128,-1,14
 448 74 448 74 420 47.5 c 128,-1,15
 392 21 392 21 355 6.5 c 128,-1,16
 318 -8 318 -8 276 -8 c 2,17,-1
 216 -8 l 2,18,19
 181 -8 181 -8 150 6.5 c 128,-1,20
 119 21 119 21 96.5 45 c 128,-1,21
 74 69 74 69 61 101 c 128,-1,22
 48 133 48 133 48 167 c 2,23,-1
 48 308 l 2,24,25
 48 350 48 350 64 388.5 c 128,-1,26
 80 427 80 427 108 456 c 128,-1,27
 136 485 136 485 173 502 c 128,-1,28
 210 519 210 519 252 519 c 2,29,-1
 312 519 l 2,30,31
 347 519 347 519 378 504.5 c 128,-1,32
 409 490 409 490 431.5 466 c 128,-1,33
 454 442 454 442 466.5 410 c 128,-1,34
 479 378 479 378 479 344 c 2,35,-1
 479 267 l 1,36,-1
 116 267 l 1,37,-1
 116 167 l 2,0,1
252 458 m 2,38,39
 223 458 223 458 198 447.5 c 128,-1,40
 173 437 173 437 155 418 c 128,-1,41
 137 399 137 399 126.5 373.5 c 128,-1,42
 116 348 116 348 116 320 c 1,43,-1
 412 320 l 1,44,-1
 412 344 l 2,45,46
 412 363 412 363 403.5 384 c 128,-1,47
 395 405 395 405 381.5 421 c 128,-1,48
 368 437 368 437 350 447.5 c 128,-1,49
 332 458 332 458 312 458 c 2,50,-1
 252 458 l 2,38,39
EndSplineSet
EndChar
StartChar: f
Encoding: 102 102 71
Width: 319
VWidth: 1507
Flags: W
HStem: 0 21G<128 196> 458 53<30 128 196 289> 647 68<257.329 332>
VStem: 128 68<0 458 511 585.281>
Fore
128 458 m 1,0,-1
 30 458 l 1,1,-1
 30 511 l 1,2,-1
 128 511 l 1,3,4
 128 553 128 553 144.5 590 c 128,-1,5
 161 627 161 627 188.5 655 c 128,-1,6
 216 683 216 683 252.5 699 c 128,-1,7
 289 715 289 715 332 715 c 1,8,-1
 332 647 l 1,9,10
 274 647 274 647 235.5 607.5 c 128,-1,11
 197 568 197 568 196 511 c 1,12,-1
 289 511 l 1,13,-1
 289 458 l 1,14,-1
 196 458 l 1,15,-1
 196 0 l 1,16,-1
 128 0 l 1,17,-1
 128 458 l 1,0,-1
EndSplineSet
EndChar
StartChar: g
Encoding: 103 103 72
Width: 533
VWidth: 1507
Flags: W
HStem: -187 57<170.173 306.394> 30 60<192.516 303.046> 457 62<198.782 367.806>
VStem: 48 68<177.007 339.184> 412 67<-36.0917 89 182.328 409.664 472 511>
Fore
412 89 m 1,0,1
 384 63 384 63 349.5 46.5 c 128,-1,2
 315 30 315 30 276 30 c 2,3,-1
 216 30 l 2,4,5
 181 30 181 30 150 44.5 c 128,-1,6
 119 59 119 59 96.5 83 c 128,-1,7
 74 107 74 107 61 138.5 c 128,-1,8
 48 170 48 170 48 205 c 2,9,-1
 48 308 l 2,10,11
 48 350 48 350 64 388.5 c 128,-1,12
 80 427 80 427 108 456 c 128,-1,13
 136 485 136 485 173 502 c 128,-1,14
 210 519 210 519 252 519 c 2,15,-1
 312 519 l 2,16,17
 347 519 347 519 371 504.5 c 128,-1,18
 395 490 395 490 412 472 c 1,19,-1
 412 511 l 1,20,-1
 479 511 l 1,21,-1
 479 -9 l 2,22,23
 479 -45 479 -45 460.5 -77.5 c 128,-1,24
 442 -110 442 -110 411.5 -134 c 128,-1,25
 381 -158 381 -158 345 -172.5 c 128,-1,26
 309 -187 309 -187 273 -187 c 2,27,-1
 213 -187 l 2,28,29
 157 -187 157 -187 114 -155.5 c 128,-1,30
 71 -124 71 -124 54 -75 c 1,31,-1
 134 -75 l 1,32,33
 148 -96 148 -96 169.5 -113 c 128,-1,34
 191 -130 191 -130 217 -130 c 2,35,-1
 277 -130 l 2,36,37
 303 -130 303 -130 327 -120 c 128,-1,38
 351 -110 351 -110 370 -94 c 128,-1,39
 389 -78 389 -78 400.5 -56.5 c 128,-1,40
 412 -35 412 -35 412 -9 c 2,41,-1
 412 89 l 1,0,1
412 351 m 2,42,43
 409 390 409 390 380 423.5 c 128,-1,44
 351 457 351 457 312 457 c 2,45,-1
 252 457 l 2,46,47
 223 457 223 457 198 444 c 128,-1,48
 173 431 173 431 155 410.5 c 128,-1,49
 137 390 137 390 126.5 363 c 128,-1,50
 116 336 116 336 116 308 c 2,51,-1
 116 205 l 2,52,53
 116 184 116 184 123.5 163.5 c 128,-1,54
 131 143 131 143 144.5 127.5 c 128,-1,55
 158 112 158 112 176 101 c 128,-1,56
 194 90 194 90 216 90 c 2,57,-1
 276 90 l 2,58,59
 303 90 303 90 327 102.5 c 128,-1,60
 351 115 351 115 369 135 c 128,-1,61
 387 155 387 155 398.5 181.5 c 128,-1,62
 410 208 410 208 412 235 c 2,63,-1
 412 351 l 2,42,43
EndSplineSet
EndChar
StartChar: h
Encoding: 104 104 73
Width: 538
VWidth: 1507
Flags: W
HStem: 0 21G<54 122 416 484> 458 61<232.541 376.503> 696 20G<54 122>
VStem: 54 68<0 378.797 457 716> 416 68<0 379.561>
Fore
416 347 m 2,0,1
 416 387 416 387 389 422.5 c 128,-1,2
 362 458 362 458 321 458 c 2,3,-1
 261 458 l 2,4,5
 235 458 235 458 211.5 447.5 c 128,-1,6
 188 437 188 437 169.5 419.5 c 128,-1,7
 151 402 151 402 139 379.5 c 128,-1,8
 127 357 127 357 122 333 c 1,9,-1
 122 0 l 1,10,-1
 54 0 l 1,11,-1
 54 716 l 1,12,-1
 122 716 l 1,13,-1
 122 457 l 1,14,15
 149 482 149 482 184.5 500.5 c 128,-1,16
 220 519 220 519 261 519 c 2,17,-1
 321 519 l 2,18,19
 356 519 356 519 386 504.5 c 128,-1,20
 416 490 416 490 438 466 c 128,-1,21
 460 442 460 442 472 410 c 128,-1,22
 484 378 484 378 484 344 c 2,23,-1
 484 0 l 1,24,-1
 416 0 l 1,25,-1
 416 347 l 2,0,1
EndSplineSet
EndChar
StartChar: i
Encoding: 105 105 74
Width: 248
VWidth: 1507
Flags: W
HStem: 0 21G<90 158> 491 20G<90 158> 600 105<87.986 162.529>
VStem: 72 106<615.471 689.53> 90 68<0 511>
Fore
90 511 m 1,0,-1
 158 511 l 1,1,-1
 158 0 l 1,2,-1
 90 0 l 1,3,-1
 90 511 l 1,0,-1
72 653 m 256,4,5
 72 675 72 675 87.5 690 c 128,-1,6
 103 705 103 705 125 705 c 256,7,8
 148 705 148 705 163 690 c 128,-1,9
 178 675 178 675 178 653 c 256,10,11
 178 630 178 630 163 615 c 128,-1,12
 148 600 148 600 125 600 c 256,13,14
 103 600 103 600 87.5 615 c 128,-1,15
 72 630 72 630 72 653 c 256,4,5
EndSplineSet
EndChar
StartChar: j
Encoding: 106 106 75
Width: 248
VWidth: 1507
Flags: W
HStem: -203 67<-106 28.7416> 491 20G<90 158> 600 105<87.986 162.529>
VStem: 72 106<615.471 689.53> 90 68<-74.2809 511>
Fore
90 511 m 1,0,-1
 158 511 l 1,1,-1
 158 0 l 2,2,3
 158 -42 158 -42 142.5 -79 c 128,-1,4
 127 -116 127 -116 99 -144 c 128,-1,5
 71 -172 71 -172 34 -187.5 c 128,-1,6
 -3 -203 -3 -203 -45 -203 c 2,7,-1
 -106 -203 l 1,8,-1
 -106 -136 l 1,9,-1
 -45 -136 l 2,10,11
 12 -136 12 -136 50.5 -96.5 c 128,-1,12
 89 -57 89 -57 90 0 c 2,13,-1
 90 511 l 1,0,-1
72 653 m 256,14,15
 72 675 72 675 87.5 690 c 128,-1,16
 103 705 103 705 125 705 c 256,17,18
 148 705 148 705 163 690 c 128,-1,19
 178 675 178 675 178 653 c 256,20,21
 178 630 178 630 163 615 c 128,-1,22
 148 600 148 600 125 600 c 256,23,24
 103 600 103 600 87.5 615 c 128,-1,25
 72 630 72 630 72 653 c 256,14,15
EndSplineSet
EndChar
StartChar: k
Encoding: 107 107 76
Width: 506
VWidth: 1507
Flags: W
HStem: 0 21G<54 122 393.645 505> 491 20G<338.73 469> 696 20G<54 122>
VStem: 54 68<0 256 326 716>
Fore
196 304 m 1,0,1
 210 300 210 300 227 286.5 c 128,-1,2
 244 273 244 273 256 261 c 2,3,-1
 505 0 l 1,4,-1
 413 0 l 1,5,-1
 203 217 l 2,6,7
 169 252 169 252 122 256 c 1,8,-1
 122 0 l 1,9,-1
 54 0 l 1,10,-1
 54 716 l 1,11,-1
 122 716 l 1,12,-1
 122 326 l 1,13,-1
 365 511 l 1,14,-1
 469 511 l 1,15,-1
 196 304 l 1,0,1
EndSplineSet
EndChar
StartChar: l
Encoding: 108 108 77
Width: 248
VWidth: 1507
Flags: W
HStem: 0 21G<90 158> 696 20G<90 158>
VStem: 90 68<0 716>
Fore
90 716 m 1,0,-1
 158 716 l 1,1,-1
 158 0 l 1,2,-1
 90 0 l 1,3,-1
 90 716 l 1,0,-1
EndSplineSet
EndChar
StartChar: m
Encoding: 109 109 78
Width: 788
VWidth: 1507
Flags: W
HStem: 0 21G<54 122 360 428 666 734> 458 61<209.953 298.36 509.745 606.304>
VStem: 54 68<0 358.359 457 511> 360 68<0 368.214> 666 68<0 372.583>
CounterMasks: 1 38
Fore
360 0 m 1,0,-1
 360 344 l 2,1,2
 360 363 360 363 352 384 c 128,-1,3
 344 405 344 405 330.5 421 c 128,-1,4
 317 437 317 437 298.5 447.5 c 128,-1,5
 280 458 280 458 261 458 c 0,6,7
 235 458 235 458 210 447.5 c 128,-1,8
 185 437 185 437 165.5 420.5 c 128,-1,9
 146 404 146 404 134 380.5 c 128,-1,10
 122 357 122 357 122 333 c 2,11,-1
 122 0 l 1,12,-1
 54 0 l 1,13,-1
 54 511 l 1,14,-1
 122 511 l 1,15,-1
 122 457 l 1,16,17
 149 482 149 482 184.5 500.5 c 128,-1,18
 220 519 220 519 261 519 c 0,19,20
 303 519 303 519 338.5 496 c 128,-1,21
 374 473 374 473 396 442 c 1,22,23
 427 476 427 476 472 497.5 c 128,-1,24
 517 519 517 519 567 519 c 0,25,26
 601 519 601 519 632 504.5 c 128,-1,27
 663 490 663 490 685.5 466 c 128,-1,28
 708 442 708 442 721 410 c 128,-1,29
 734 378 734 378 734 344 c 2,30,-1
 734 0 l 1,31,-1
 666 0 l 1,32,-1
 666 347 l 2,33,34
 666 366 666 366 658 386.5 c 128,-1,35
 650 407 650 407 636.5 423 c 128,-1,36
 623 439 623 439 604.5 448.5 c 128,-1,37
 586 458 586 458 567 458 c 0,38,39
 541 458 541 458 516 450 c 128,-1,40
 491 442 491 442 471.5 426 c 128,-1,41
 452 410 452 410 440 389 c 128,-1,42
 428 368 428 368 428 342 c 2,43,-1
 428 0 l 1,44,-1
 360 0 l 1,0,-1
EndSplineSet
EndChar
StartChar: n
Encoding: 110 110 79
Width: 542
VWidth: 1507
Flags: W
HStem: 0 21G<54 122 421 488> 458 61<232.541 344.045>
VStem: 54 68<0 378.797 457 511> 421 67<0 371.959>
Fore
421 347 m 2,0,1
 421 366 421 366 412.5 386.5 c 128,-1,2
 404 407 404 407 390.5 423 c 128,-1,3
 377 439 377 439 359 448.5 c 128,-1,4
 341 458 341 458 321 458 c 2,5,-1
 261 458 l 2,6,7
 235 458 235 458 211.5 447.5 c 128,-1,8
 188 437 188 437 169.5 419.5 c 128,-1,9
 151 402 151 402 139 379.5 c 128,-1,10
 127 357 127 357 122 333 c 1,11,-1
 122 0 l 1,12,-1
 54 0 l 1,13,-1
 54 511 l 1,14,-1
 122 511 l 1,15,-1
 122 457 l 1,16,17
 149 482 149 482 184.5 500.5 c 128,-1,18
 220 519 220 519 261 519 c 2,19,-1
 321 519 l 2,20,21
 356 519 356 519 387 504.5 c 128,-1,22
 418 490 418 490 440.5 466 c 128,-1,23
 463 442 463 442 475.5 410 c 128,-1,24
 488 378 488 378 488 344 c 2,25,-1
 488 0 l 1,26,-1
 421 0 l 1,27,-1
 421 347 l 2,0,1
EndSplineSet
EndChar
StartChar: o
Encoding: 111 111 80
Width: 527
VWidth: 1507
Flags: W
HStem: -8 61<192.516 304.077> 458 61<198.782 333.867>
VStem: 48 68<139.233 339.184> 412 67<171.816 203 203 369.165>
Fore
479 203 m 2,0,1
 479 160 479 160 463.5 122 c 128,-1,2
 448 84 448 84 420 55 c 128,-1,3
 392 26 392 26 355 9 c 128,-1,4
 318 -8 318 -8 276 -8 c 2,5,-1
 216 -8 l 2,6,7
 181 -8 181 -8 150 6.5 c 128,-1,8
 119 21 119 21 96.5 45 c 128,-1,9
 74 69 74 69 61 101 c 128,-1,10
 48 133 48 133 48 167 c 2,11,-1
 48 308 l 2,12,13
 48 350 48 350 64 388.5 c 128,-1,14
 80 427 80 427 108 456 c 128,-1,15
 136 485 136 485 173 502 c 128,-1,16
 210 519 210 519 252 519 c 2,17,-1
 312 519 l 2,18,19
 347 519 347 519 378 504.5 c 128,-1,20
 409 490 409 490 431.5 466 c 128,-1,21
 454 442 454 442 466.5 410 c 128,-1,22
 479 378 479 378 479 344 c 2,23,-1
 479 203 l 2,0,1
412 344 m 2,24,25
 412 363 412 363 403.5 384 c 128,-1,26
 395 405 395 405 381.5 421 c 128,-1,27
 368 437 368 437 350 447.5 c 128,-1,28
 332 458 332 458 312 458 c 2,29,-1
 252 458 l 2,30,31
 223 458 223 458 198 445.5 c 128,-1,32
 173 433 173 433 155 411.5 c 128,-1,33
 137 390 137 390 126.5 363 c 128,-1,34
 116 336 116 336 116 308 c 2,35,-1
 116 167 l 2,36,37
 116 146 116 146 123.5 126 c 128,-1,38
 131 106 131 106 144.5 90 c 128,-1,39
 158 74 158 74 176 63.5 c 128,-1,40
 194 53 194 53 216 53 c 2,41,-1
 276 53 l 2,42,43
 304 53 304 53 329 65.5 c 128,-1,44
 354 78 354 78 372 99.5 c 128,-1,45
 390 121 390 121 401 148 c 128,-1,46
 412 175 412 175 412 203 c 2,47,-1
 412 344 l 2,24,25
EndSplineSet
EndChar
StartChar: p
Encoding: 112 112 81
Width: 533
VWidth: 1507
Flags: W
HStem: -188 21G<54 122> -8 61<198.516 334.733> 458 61<229.877 339.867>
VStem: 54 68<-188 39 139.233 344.059 452 511> 418 67<171.816 344 344 369.165>
Fore
54 511 m 1,0,-1
 122 511 l 1,1,-1
 122 452 l 1,2,3
 139 476 139 476 176 497.5 c 128,-1,4
 213 519 213 519 258 519 c 2,5,-1
 318 519 l 2,6,7
 353 519 353 519 384 504.5 c 128,-1,8
 415 490 415 490 437.5 466 c 128,-1,9
 460 442 460 442 472.5 410 c 128,-1,10
 485 378 485 378 485 344 c 2,11,-1
 485 203 l 2,12,13
 485 160 485 160 469.5 122 c 128,-1,14
 454 84 454 84 426 55 c 128,-1,15
 398 26 398 26 361 9 c 128,-1,16
 324 -8 324 -8 282 -8 c 2,17,-1
 222 -8 l 2,18,19
 187 -8 187 -8 163 7.5 c 128,-1,20
 139 23 139 23 122 39 c 1,21,-1
 122 -188 l 1,22,-1
 54 -188 l 1,23,-1
 54 511 l 1,0,-1
418 344 m 2,24,25
 418 363 418 363 409.5 384 c 128,-1,26
 401 405 401 405 387.5 421 c 128,-1,27
 374 437 374 437 356 447.5 c 128,-1,28
 338 458 338 458 318 458 c 2,29,-1
 258 458 l 2,30,31
 231 458 231 458 206 446 c 128,-1,32
 181 434 181 434 162 413.5 c 128,-1,33
 143 393 143 393 132.5 367 c 128,-1,34
 122 341 122 341 122 314 c 2,35,-1
 122 167 l 2,36,37
 122 146 122 146 129.5 126 c 128,-1,38
 137 106 137 106 150.5 90 c 128,-1,39
 164 74 164 74 182 63.5 c 128,-1,40
 200 53 200 53 222 53 c 2,41,-1
 282 53 l 2,42,43
 311 53 311 53 335.5 65.5 c 128,-1,44
 360 78 360 78 378 99.5 c 128,-1,45
 396 121 396 121 407 148 c 128,-1,46
 418 175 418 175 418 203 c 2,47,-1
 418 344 l 2,24,25
EndSplineSet
EndChar
StartChar: q
Encoding: 113 113 82
Width: 533
VWidth: 1507
Flags: W
HStem: -188 21G<412 479> -8 61<192.516 303.841> 457 62<198.782 367.806>
VStem: 48 68<139.233 339.184> 412 67<-188 63 144.813 409.664 472 511>
Fore
412 63 m 1,0,1
 389 33 389 33 352 12.5 c 128,-1,2
 315 -8 315 -8 276 -8 c 2,3,-1
 216 -8 l 2,4,5
 181 -8 181 -8 150 6.5 c 128,-1,6
 119 21 119 21 96.5 45 c 128,-1,7
 74 69 74 69 61 101 c 128,-1,8
 48 133 48 133 48 167 c 2,9,-1
 48 308 l 2,10,11
 48 350 48 350 64 388.5 c 128,-1,12
 80 427 80 427 108 456 c 128,-1,13
 136 485 136 485 173 502 c 128,-1,14
 210 519 210 519 252 519 c 2,15,-1
 312 519 l 2,16,17
 350 519 350 519 371.5 504.5 c 128,-1,18
 393 490 393 490 412 472 c 1,19,-1
 412 511 l 1,20,-1
 479 511 l 1,21,-1
 479 -188 l 1,22,-1
 412 -188 l 1,23,-1
 412 63 l 1,0,1
412 351 m 2,24,25
 409 390 409 390 380 423.5 c 128,-1,26
 351 457 351 457 312 457 c 2,27,-1
 252 457 l 2,28,29
 223 457 223 457 198 444 c 128,-1,30
 173 431 173 431 155 410.5 c 128,-1,31
 137 390 137 390 126.5 363 c 128,-1,32
 116 336 116 336 116 308 c 2,33,-1
 116 167 l 2,34,35
 116 146 116 146 123.5 126 c 128,-1,36
 131 106 131 106 144.5 90 c 128,-1,37
 158 74 158 74 176 63.5 c 128,-1,38
 194 53 194 53 216 53 c 2,39,-1
 276 53 l 2,40,41
 303 53 303 53 327 65 c 128,-1,42
 351 77 351 77 369 97.5 c 128,-1,43
 387 118 387 118 398.5 144 c 128,-1,44
 410 170 410 170 412 197 c 2,45,-1
 412 351 l 2,24,25
EndSplineSet
EndChar
StartChar: r
Encoding: 114 114 83
Width: 349
VWidth: 1507
Flags: W
HStem: 0 21G<56 124> 458 61<207.782 320>
VStem: 56 68<0 338.375 458 511>
Fore
56 511 m 1,0,-1
 124 511 l 1,1,-1
 124 458 l 1,2,3
 151 482 151 482 185.5 500.5 c 128,-1,4
 220 519 220 519 259 519 c 2,5,-1
 320 519 l 1,6,-1
 320 458 l 1,7,-1
 259 458 l 2,8,9
 232 458 232 458 207 444.5 c 128,-1,10
 182 431 182 431 163.5 410 c 128,-1,11
 145 389 145 389 134.5 362 c 128,-1,12
 124 335 124 335 124 308 c 2,13,-1
 124 0 l 1,14,-1
 56 0 l 1,15,-1
 56 511 l 1,0,-1
EndSplineSet
EndChar
StartChar: s
Encoding: 115 115 84
Width: 572
VWidth: 1507
Flags: W
HStem: -8 61<154.381 381.094> 458 61<226.668 418.619>
VStem: 48 68<91.2603 152> 76 65.5<342.108 346.558 346.558 362.273 354.415 413.221> 457 68<359 419.74> 470 68<98.0709 185.328>
Fore
190 246 m 2,0,1
 151 252 151 252 128.5 265.5 c 128,-1,2
 106 279 106 279 93 296.5 c 128,-1,3
 80 314 80 314 76 332.5 c 128,-1,4
 72 351 72 351 72 369 c 0,5,6
 72 407 72 407 89.5 435 c 128,-1,7
 107 463 107 463 133.5 481.5 c 128,-1,8
 160 500 160 500 191.5 509.5 c 128,-1,9
 223 519 223 519 253 519 c 2,10,-1
 357 519 l 2,11,12
 428 519 428 519 476.5 474.5 c 128,-1,13
 525 430 525 430 525 359 c 1,14,-1
 457 359 l 1,15,16
 457 399 457 399 427.5 428.5 c 128,-1,17
 398 458 398 458 357 458 c 2,18,-1
 253 458 l 2,19,20
 240 458 240 458 220 453 c 128,-1,21
 200 448 200 448 183 436.5 c 128,-1,22
 166 425 166 425 153 408.5 c 128,-1,23
 140 392 140 392 140 371 c 0,24,25
 140 363 140 363 141.5 353.5 c 128,-1,26
 143 344 143 344 149 335 c 128,-1,27
 155 326 155 326 168.5 318.5 c 128,-1,28
 182 311 182 311 207 306 c 2,29,-1
 421 280 l 2,30,31
 460 274 460 274 483 258.5 c 128,-1,32
 506 243 506 243 518.5 222.5 c 128,-1,33
 531 202 531 202 534.5 181 c 128,-1,34
 538 160 538 160 538 142 c 0,35,36
 538 110 538 110 524 82 c 128,-1,37
 510 54 510 54 485.5 34.5 c 128,-1,38
 461 15 461 15 428 3.5 c 128,-1,39
 395 -8 395 -8 357 -8 c 2,40,-1
 216 -8 l 2,41,42
 145 -8 145 -8 96.5 36.5 c 128,-1,43
 48 81 48 81 48 152 c 1,44,-1
 116 152 l 1,45,46
 116 112 116 112 145.5 82.5 c 128,-1,47
 175 53 175 53 216 53 c 2,48,-1
 357 53 l 2,49,50
 371 53 371 53 390.5 59 c 128,-1,51
 410 65 410 65 427.5 76 c 128,-1,52
 445 87 445 87 457.5 103 c 128,-1,53
 470 119 470 119 470 140 c 0,54,55
 470 169 470 169 458 191 c 128,-1,56
 446 213 446 213 404 220 c 2,57,-1
 190 246 l 2,0,1
EndSplineSet
EndChar
StartChar: t
Encoding: 116 116 85
Width: 319
VWidth: 1507
Flags: W
HStem: 0 21G<128 196> 458 53<30 128 196 289> 696 20G<128 196>
VStem: 128 68<0 458 511 716>
Fore
128 458 m 1,0,-1
 30 458 l 1,1,-1
 30 511 l 1,2,-1
 128 511 l 1,3,-1
 128 716 l 1,4,-1
 196 716 l 1,5,-1
 196 511 l 1,6,-1
 289 511 l 1,7,-1
 289 458 l 1,8,-1
 196 458 l 1,9,-1
 196 0 l 1,10,-1
 128 0 l 1,11,-1
 128 458 l 1,0,-1
EndSplineSet
EndChar
StartChar: u
Encoding: 117 117 86
Width: 538
VWidth: 1507
Flags: W
HStem: -8 61<161.497 305.459> 491 20G<54 122 416 484>
VStem: 54 68<131.439 511> 416 68<0 65 132.203 511>
Fore
122 164 m 2,0,1
 122 124 122 124 149 88.5 c 128,-1,2
 176 53 176 53 217 53 c 2,3,-1
 277 53 l 2,4,5
 303 53 303 53 326.5 63.5 c 128,-1,6
 350 74 350 74 368.5 91.5 c 128,-1,7
 387 109 387 109 399.5 131.5 c 128,-1,8
 412 154 412 154 416 178 c 1,9,-1
 416 511 l 1,10,-1
 484 511 l 1,11,-1
 484 0 l 1,12,-1
 416 0 l 1,13,-1
 416 65 l 1,14,15
 395 35 395 35 356.5 13.5 c 128,-1,16
 318 -8 318 -8 277 -8 c 2,17,-1
 217 -8 l 2,18,19
 182 -8 182 -8 152 6.5 c 128,-1,20
 122 21 122 21 100 45 c 128,-1,21
 78 69 78 69 66 101 c 128,-1,22
 54 133 54 133 54 167 c 2,23,-1
 54 511 l 1,24,-1
 122 511 l 1,25,-1
 122 164 l 2,0,1
EndSplineSet
EndChar
StartChar: v
Encoding: 118 118 87
Width: 526
VWidth: 1507
Flags: W
HStem: -8 21G<284 307.553> 491 20G<30 108.335 417.574 496>
VStem: 30 466<511 511 511 511>
Fore
300 -8 m 1,0,1
 268 -8 268 -8 240.5 6 c 128,-1,2
 213 20 213 20 200 47 c 2,3,-1
 30 511 l 1,4,-1
 101 511 l 1,5,-1
 262 72 l 1,6,-1
 425 511 l 1,7,-1
 496 511 l 1,8,-1
 300 -8 l 1,0,1
EndSplineSet
EndChar
StartChar: w
Encoding: 119 119 88
Width: 845
VWidth: 1507
Flags: W
HStem: -8 21G<264 282.791 563.116 582> 491 20<30 109.775 388.364 407 736.225 816>
Fore
422 422 m 1,0,-1
 276 -8 l 1,1,2
 252 -8 252 -8 232.5 3 c 128,-1,3
 213 14 213 14 205 35 c 2,4,-1
 30 511 l 1,5,-1
 103 511 l 1,6,-1
 249 80 l 1,7,-1
 395 520 l 1,8,9
 419 520 419 520 439.5 508.5 c 128,-1,10
 460 497 460 497 467 476 c 2,11,-1
 597 80 l 1,12,-1
 743 511 l 1,13,-1
 816 511 l 1,14,-1
 642 35 l 2,15,16
 635 14 635 14 614.5 3 c 128,-1,17
 594 -8 594 -8 570 -8 c 1,18,-1
 422 422 l 1,0,-1
EndSplineSet
EndChar
StartChar: x
Encoding: 120 120 89
Width: 562
VWidth: 1507
Flags: W
HStem: 0 21G<21 122.799 439.018 541> 491 20G<48 148.474 414.211 514>
Fore
430 511 m 1,0,-1
 514 511 l 1,1,-1
 326 270 l 1,2,-1
 541 0 l 1,3,-1
 455 0 l 1,4,-1
 280 219 l 1,5,-1
 107 0 l 1,6,-1
 21 0 l 1,7,-1
 235 270 l 1,8,-1
 48 511 l 1,9,-1
 133 511 l 1,10,-1
 280 321 l 1,11,-1
 430 511 l 1,0,-1
EndSplineSet
EndChar
StartChar: y
Encoding: 121 121 90
Width: 539
VWidth: 1507
Flags: W
HStem: -187 57<174.688 311.394> 30 62<160.546 305.459> 491 20G<54 122 416 484>
VStem: 54 68<168.8 511> 416 68<-36.0917 92 169.204 511>
Fore
139 -75 m 1,0,1
 152 -96 152 -96 174 -113 c 128,-1,2
 196 -130 196 -130 222 -130 c 2,3,-1
 282 -130 l 2,4,5
 308 -130 308 -130 332 -120 c 128,-1,6
 356 -110 356 -110 374.5 -94 c 128,-1,7
 393 -78 393 -78 404.5 -56.5 c 128,-1,8
 416 -35 416 -35 416 -9 c 2,9,-1
 416 92 l 1,10,11
 389 66 389 66 353.5 48 c 128,-1,12
 318 30 318 30 277 30 c 2,13,-1
 217 30 l 2,14,15
 182 30 182 30 152 44.5 c 128,-1,16
 122 59 122 59 100 83 c 128,-1,17
 78 107 78 107 66 138.5 c 128,-1,18
 54 170 54 170 54 205 c 2,19,-1
 54 511 l 1,20,-1
 122 511 l 1,21,-1
 122 202 l 2,22,23
 122 161 122 161 149 126.5 c 128,-1,24
 176 92 176 92 217 92 c 2,25,-1
 277 92 l 2,26,27
 303 92 303 92 326.5 102.5 c 128,-1,28
 350 113 350 113 368.5 129.5 c 128,-1,29
 387 146 387 146 399.5 168.5 c 128,-1,30
 412 191 412 191 416 216 c 1,31,-1
 416 511 l 1,32,-1
 484 511 l 1,33,-1
 484 -9 l 2,34,35
 484 -45 484 -45 465 -77.5 c 128,-1,36
 446 -110 446 -110 416 -134 c 128,-1,37
 386 -158 386 -158 350 -172.5 c 128,-1,38
 314 -187 314 -187 277 -187 c 2,39,-1
 217 -187 l 2,40,41
 161 -187 161 -187 118 -155.5 c 128,-1,42
 75 -124 75 -124 59 -75 c 1,43,-1
 139 -75 l 1,0,1
EndSplineSet
EndChar
StartChar: z
Encoding: 122 122 91
Width: 565
VWidth: 1507
Flags: W
HStem: 0 53<176 506> 458 53<63 387>
VStem: 48 469<0 511 1.53064e-18 1.53064e-18>
Fore
506 0 m 1,0,-1
 48 0 l 1,1,-1
 387 458 l 1,2,-1
 63 458 l 1,3,-1
 63 511 l 1,4,-1
 517 511 l 1,5,-1
 176 53 l 1,6,-1
 506 53 l 1,7,-1
 506 0 l 1,0,-1
EndSplineSet
EndChar
StartChar: braceleft
Encoding: 123 123 92
Width: 428
VWidth: 1507
Flags: W
HStem: -214 56<294.27 363> 745 55<283.688 363>
VStem: 176 64<-142.523 -106 -106 149.216 384.005 728.209>
Fore
240 -101 m 2,0,1
 240 -134 240 -134 267.5 -146 c 128,-1,2
 295 -158 295 -158 327 -158 c 2,3,-1
 363 -158 l 1,4,-1
 363 -214 l 1,5,-1
 327 -214 l 2,6,7
 297 -214 297 -214 270 -208 c 128,-1,8
 243 -202 243 -202 221.5 -189 c 128,-1,9
 200 -176 200 -176 188 -156 c 128,-1,10
 176 -136 176 -136 176 -106 c 2,11,-1
 176 119 l 2,12,13
 176 145 176 145 159.5 171 c 128,-1,14
 143 197 143 197 119.5 219 c 128,-1,15
 96 241 96 241 70.5 254.5 c 128,-1,16
 45 268 45 268 27 268 c 1,17,18
 45 268 45 268 70.5 279.5 c 128,-1,19
 96 291 96 291 119.5 311.5 c 128,-1,20
 143 332 143 332 159.5 359.5 c 128,-1,21
 176 387 176 387 176 419 c 2,22,-1
 176 689 l 2,23,24
 176 719 176 719 188 740 c 128,-1,25
 200 761 200 761 221.5 774.5 c 128,-1,26
 243 788 243 788 270 794 c 128,-1,27
 297 800 297 800 327 800 c 2,28,-1
 363 800 l 1,29,-1
 363 745 l 1,30,-1
 327 745 l 2,31,32
 295 745 295 745 267.5 731.5 c 128,-1,33
 240 718 240 718 240 684 c 2,34,-1
 240 419 l 2,35,36
 240 387 240 387 230 361 c 128,-1,37
 220 335 220 335 205.5 315 c 128,-1,38
 191 295 191 295 175.5 283 c 128,-1,39
 160 271 160 271 148 268 c 1,40,41
 160 261 160 261 175.5 247.5 c 128,-1,42
 191 234 191 234 205.5 214 c 128,-1,43
 220 194 220 194 230 170 c 128,-1,44
 240 146 240 146 240 119 c 2,45,-1
 240 -101 l 2,0,1
EndSplineSet
EndChar
StartChar: bar
Encoding: 124 124 93
Width: 247
VWidth: 1507
Flags: W
VStem: 90 68<-151 867>
Fore
90 867 m 1,0,-1
 158 867 l 1,1,-1
 158 -151 l 1,2,-1
 90 -151 l 1,3,-1
 90 867 l 1,0,-1
EndSplineSet
EndChar
StartChar: braceright
Encoding: 125 125 94
Width: 428
VWidth: 1507
Flags: W
HStem: -214 56<63 131.871> 745 55<63 143.25>
VStem: 187 63<-142.523 149.216 384.005 727.476>
Fore
187 119 m 2,0,1
 187 146 187 146 197 170 c 128,-1,2
 207 194 207 194 221 214 c 128,-1,3
 235 234 235 234 251 247.5 c 128,-1,4
 267 261 267 261 279 268 c 1,5,6
 267 271 267 271 251 283 c 128,-1,7
 235 295 235 295 221 315 c 128,-1,8
 207 335 207 335 197 361 c 128,-1,9
 187 387 187 387 187 419 c 2,10,-1
 187 684 l 2,11,12
 187 718 187 718 159 731.5 c 128,-1,13
 131 745 131 745 99 745 c 2,14,-1
 63 745 l 1,15,-1
 63 800 l 1,16,-1
 99 800 l 2,17,18
 130 800 130 800 157 794 c 128,-1,19
 184 788 184 788 205 774.5 c 128,-1,20
 226 761 226 761 238 740 c 128,-1,21
 250 719 250 719 250 689 c 2,22,-1
 250 419 l 2,23,24
 250 387 250 387 266.5 359.5 c 128,-1,25
 283 332 283 332 306.5 311.5 c 128,-1,26
 330 291 330 291 355.5 279.5 c 128,-1,27
 381 268 381 268 399 268 c 1,28,29
 381 268 381 268 355.5 254.5 c 128,-1,30
 330 241 330 241 306.5 219 c 128,-1,31
 283 197 283 197 266.5 171 c 128,-1,32
 250 145 250 145 250 119 c 2,33,-1
 250 -106 l 2,34,35
 250 -136 250 -136 238 -156 c 128,-1,36
 226 -176 226 -176 205 -189 c 128,-1,37
 184 -202 184 -202 157 -208 c 128,-1,38
 130 -214 130 -214 99 -214 c 2,39,-1
 63 -214 l 1,40,-1
 63 -158 l 1,41,-1
 99 -158 l 2,42,43
 131 -158 131 -158 159 -146 c 128,-1,44
 187 -134 187 -134 187 -101 c 2,45,-1
 187 119 l 2,0,1
EndSplineSet
EndChar
StartChar: asciitilde
Encoding: 126 126 95
Width: 602
VWidth: 1507
Flags: W
HStem: 259 68<353.986 451.937> 386 68<158.62 243.371>
VStem: 506 55<376.031 443>
Fore
416 327 m 0,0,1
 448 327 448 327 473.5 359.5 c 128,-1,2
 499 392 499 392 506 443 c 1,3,-1
 561 443 l 1,4,5
 561 396 561 396 546 361.5 c 128,-1,6
 531 327 531 327 509 304.5 c 128,-1,7
 487 282 487 282 462 270.5 c 128,-1,8
 437 259 437 259 416 259 c 0,9,10
 366 259 366 259 336 278.5 c 128,-1,11
 306 298 306 298 284 322.5 c 128,-1,12
 262 347 262 347 242.5 366.5 c 128,-1,13
 223 386 223 386 194 386 c 0,14,15
 163 386 163 386 137.5 353.5 c 128,-1,16
 112 321 112 321 104 270 c 1,17,-1
 50 270 l 1,18,19
 50 317 50 317 65 351.5 c 128,-1,20
 80 386 80 386 102 408.5 c 128,-1,21
 124 431 124 431 148.5 442.5 c 128,-1,22
 173 454 173 454 194 454 c 0,23,24
 237 454 237 454 262.5 434.5 c 128,-1,25
 288 415 288 415 310 390.5 c 128,-1,26
 332 366 332 366 355 346.5 c 128,-1,27
 378 327 378 327 416 327 c 0,0,1
EndSplineSet
EndChar
StartChar: quotedbl
Encoding: 34 34 97
Width: 349
VWidth: 1507
Flags: W
VStem: 54 71<541 761 541 761 541 541> 223 71<541 761>
Fore
54 761 m 1,0,-1
 125 761 l 1,1,-1
 125 541 l 1,2,-1
 54 541 l 1,3,-1
 54 761 l 1,0,-1
223 761 m 1,4,-1
 294 761 l 1,5,-1
 294 541 l 1,6,-1
 223 541 l 1,7,-1
 223 761 l 1,4,-1
EndSplineSet
EndChar
StartChar: exclam
Encoding: 33 33 98
Width: 272
VWidth: 1507
Flags: W
HStem: -8 106<104.471 178.53> 698 20G<107 175>
VStem: 89 105<7.98596 82.5293> 107 68<164 718>
Fore
107 718 m 1,0,-1
 175 718 l 1,1,-1
 175 164 l 1,2,-1
 107 164 l 1,3,-1
 107 718 l 1,0,-1
89 45 m 256,4,5
 89 23 89 23 104 7.5 c 128,-1,6
 119 -8 119 -8 142 -8 c 256,7,8
 164 -8 164 -8 179 7.5 c 128,-1,9
 194 23 194 23 194 45 c 256,10,11
 194 68 194 68 179 83 c 128,-1,12
 164 98 164 98 142 98 c 256,13,14
 119 98 119 98 104 83 c 128,-1,15
 89 68 89 68 89 45 c 256,4,5
EndSplineSet
EndChar
StartChar: cent
Encoding: 162 162 101
Width: 575
VWidth: 1507
Flags: W
HStem: 96 61<224.324 262 330 330> 562 61<330 403.619>
VStem: 80 431<246 271 271 286 271 271> 80 68<243.233 442.654> 262 68<-21 96 623 742> 443 68<213.548 286 463 521.903>
Fore
330 157 m 1,0,1
 378 164 378 164 410.5 199 c 128,-1,2
 443 234 443 234 443 286 c 1,3,-1
 511 286 l 1,4,5
 511 246 511 246 496.5 212.5 c 128,-1,6
 482 179 482 179 458 155 c 128,-1,7
 434 131 434 131 401 116 c 128,-1,8
 368 101 368 101 330 98 c 1,9,-1
 330 -21 l 1,10,-1
 262 -21 l 1,11,-1
 262 96 l 1,12,-1
 247 96 l 2,13,14
 213 96 213 96 182 110.5 c 128,-1,15
 151 125 151 125 128.5 149 c 128,-1,16
 106 173 106 173 93 205 c 128,-1,17
 80 237 80 237 80 271 c 2,18,-1
 80 412 l 2,19,20
 80 452 80 452 94.5 487.5 c 128,-1,21
 109 523 109 523 133 551.5 c 128,-1,22
 157 580 157 580 190 598.5 c 128,-1,23
 223 617 223 617 262 621 c 1,24,-1
 262 742 l 1,25,-1
 330 742 l 1,26,-1
 330 623 l 1,27,-1
 342 623 l 2,28,29
 413 623 413 623 461.5 578.5 c 128,-1,30
 510 534 510 534 510 463 c 1,31,-1
 442 463 l 1,32,33
 442 503 442 503 412.5 532.5 c 128,-1,34
 383 562 383 562 342 562 c 2,35,-1
 262 562 l 1,36,37
 238 558 238 558 217 543.5 c 128,-1,38
 196 529 196 529 181 508.5 c 128,-1,39
 166 488 166 488 157 462.5 c 128,-1,40
 148 437 148 437 148 412 c 2,41,-1
 148 271 l 2,42,43
 148 250 148 250 155.5 230 c 128,-1,44
 163 210 163 210 176.5 194 c 128,-1,45
 190 178 190 178 208 167.5 c 128,-1,46
 226 157 226 157 247 157 c 2,47,-1
 330 157 l 1,0,1
EndSplineSet
EndChar
StartChar: sterling
Encoding: 163 163 102
Width: 575
VWidth: 1507
Flags: W
HStem: 0 60<68 93.2118 210 534> 315 68<65 200 280 464> 656 68<342.713 433.324>
VStem: 190 69.5<453.922 482.788 482.788 544.025> 231 67<156.521 208.717>
Fore
280 315 m 1,0,-1
 298 194 l 1,1,2
 298 173 298 173 289 149 c 128,-1,3
 280 125 280 125 266.5 105.5 c 128,-1,4
 253 86 253 86 238 73 c 128,-1,5
 223 60 223 60 210 60 c 1,6,-1
 534 60 l 1,7,-1
 534 0 l 1,8,-1
 68 0 l 1,9,-1
 68 60 l 1,10,11
 89 60 89 60 117.5 71.5 c 128,-1,12
 146 83 146 83 171 102 c 128,-1,13
 196 121 196 121 213.5 145 c 128,-1,14
 231 169 231 169 231 196 c 0,15,16
 231 197 231 197 230 200 c 128,-1,17
 229 203 229 203 227.5 214.5 c 128,-1,18
 226 226 226 226 222.5 249.5 c 128,-1,19
 219 273 219 273 213 315 c 1,20,-1
 65 315 l 1,21,-1
 65 383 l 1,22,-1
 200 383 l 1,23,24
 196 407 196 407 194.5 423.5 c 128,-1,25
 193 440 193 440 191.5 453.5 c 128,-1,26
 190 467 190 467 190 480.5 c 128,-1,27
 190 494 190 494 190 513 c 0,28,29
 190 555 190 555 206 593.5 c 128,-1,30
 222 632 222 632 249.5 661 c 128,-1,31
 277 690 277 690 314 707 c 128,-1,32
 351 724 351 724 393 724 c 0,33,34
 458 724 458 724 506 678 c 1,35,-1
 461 624 l 1,36,37
 448 638 448 638 430.5 647 c 128,-1,38
 413 656 413 656 393 656 c 0,39,40
 365 656 365 656 340 644.5 c 128,-1,41
 315 633 315 633 297 613.5 c 128,-1,42
 279 594 279 594 268.5 567.5 c 128,-1,43
 258 541 258 541 258 513 c 256,44,45
 258 484 258 484 259.5 452.5 c 128,-1,46
 261 421 261 421 268 383 c 1,47,-1
 464 383 l 1,48,-1
 464 315 l 1,49,-1
 280 315 l 1,0,-1
EndSplineSet
EndChar
StartChar: currency
Encoding: 164 164 103
Width: 732
VWidth: 1507
Flags: W
HStem: 66 65<279.025 451.452> 564 65<278.314 450.338>
VStem: 84 70<260.54 431.929> 577 70<261.056 433.171>
Fore
145 175 m 1,0,1
 115 211 115 211 99.5 254.5 c 128,-1,2
 84 298 84 298 84 347 c 256,3,4
 84 395 84 395 99.5 440 c 128,-1,5
 115 485 115 485 145 522 c 1,6,-1
 84 583 l 1,7,-1
 130 630 l 1,8,-1
 191 567 l 1,9,10
 229 597 229 597 273.5 613 c 128,-1,11
 318 629 318 629 366 629 c 256,12,13
 415 629 415 629 459 613 c 128,-1,14
 503 597 503 597 541 567 c 1,15,-1
 606 630 l 1,16,-1
 650 583 l 1,17,-1
 588 522 l 1,18,19
 620 485 620 485 633.5 440 c 128,-1,20
 647 395 647 395 647 347 c 0,21,22
 647 300 647 300 632.5 255.5 c 128,-1,23
 618 211 618 211 588 175 c 1,24,-1
 650 112 l 1,25,-1
 604 66 l 1,26,-1
 541 131 l 1,27,28
 505 98 505 98 459 82 c 128,-1,29
 413 66 413 66 365 66 c 256,30,31
 317 66 317 66 271.5 81 c 128,-1,32
 226 96 226 96 191 131 c 1,33,-1
 130 66 l 1,34,-1
 84 112 l 1,35,-1
 145 175 l 1,0,1
365 564 m 0,36,37
 320 564 320 564 280.5 545 c 128,-1,38
 241 526 241 526 213 496 c 128,-1,39
 185 466 185 466 169.5 426.5 c 128,-1,40
 154 387 154 387 154 347 c 0,41,42
 154 303 154 303 170.5 264 c 128,-1,43
 187 225 187 225 215.5 195.5 c 128,-1,44
 244 166 244 166 282.5 148.5 c 128,-1,45
 321 131 321 131 365 131 c 256,46,47
 409 131 409 131 448 148.5 c 128,-1,48
 487 166 487 166 515.5 195.5 c 128,-1,49
 544 225 544 225 560.5 264 c 128,-1,50
 577 303 577 303 577 347 c 0,51,52
 577 389 577 389 560.5 429 c 128,-1,53
 544 469 544 469 514.5 498.5 c 128,-1,54
 485 528 485 528 447 546 c 128,-1,55
 409 564 409 564 365 564 c 0,36,37
EndSplineSet
EndChar
StartChar: yen
Encoding: 165 165 104
Width: 575
VWidth: 1507
Flags: W
HStem: 0 21G<243 311> 262 65<78 243 311 478> 696 20G<6 95.8239 458.977 549>
VStem: 243 68<0 262 327 357>
Fore
243 262 m 1,0,-1
 78 262 l 1,1,-1
 78 327 l 1,2,-1
 243 327 l 1,3,-1
 243 357 l 1,4,-1
 6 716 l 1,5,-1
 83 716 l 1,6,-1
 276 415 l 1,7,-1
 472 716 l 1,8,-1
 549 716 l 1,9,-1
 311 357 l 1,10,-1
 311 327 l 1,11,-1
 478 327 l 1,12,-1
 478 262 l 1,13,-1
 311 262 l 1,14,-1
 311 0 l 1,15,-1
 243 0 l 1,16,-1
 243 262 l 1,0,-1
EndSplineSet
EndChar
StartChar: brokenbar
Encoding: 166 166 105
Width: 238
VWidth: 1507
Flags: W
HStem: 445 422<90 158 90 158 90 90>
VStem: 90 68<-151 309 445 867>
Fore
90 445 m 1,0,-1
 90 867 l 1,1,-1
 158 867 l 1,2,-1
 158 445 l 1,3,-1
 90 445 l 1,0,-1
158 309 m 1,4,-1
 158 -151 l 1,5,-1
 90 -151 l 1,6,-1
 90 309 l 1,7,-1
 158 309 l 1,4,-1
EndSplineSet
EndChar
StartChar: section
Encoding: 167 167 106
Width: 601
VWidth: 1507
Flags: W
HStem: -53 61<148.381 375.094> 684 61<249.041 441.509>
VStem: 42 68<46.2603 107> 66 68<351.263 409.076> 95 68<573.548 639.701> 464 68<53.0533 134.38> 479 68<585 645.74> 493 68<269.026 358.401>
Fore
95 595 m 0,0,1
 95 633 95 633 112.5 661 c 128,-1,2
 130 689 130 689 156 708 c 128,-1,3
 182 727 182 727 214 736 c 128,-1,4
 246 745 246 745 276 745 c 2,5,-1
 380 745 l 2,6,7
 451 745 451 745 499 700.5 c 128,-1,8
 547 656 547 656 547 585 c 1,9,-1
 479 585 l 1,10,11
 479 626 479 626 450 655 c 128,-1,12
 421 684 421 684 380 684 c 2,13,-1
 276 684 l 2,14,15
 262 684 262 684 242.5 679 c 128,-1,16
 223 674 223 674 205.5 662.5 c 128,-1,17
 188 651 188 651 175.5 634.5 c 128,-1,18
 163 618 163 618 163 597 c 0,19,20
 163 582 163 582 172.5 565.5 c 128,-1,21
 182 549 182 549 229 532 c 2,22,-1
 443 458 l 2,23,24
 481 445 481 445 503.5 428.5 c 128,-1,25
 526 412 526 412 539 393.5 c 128,-1,26
 552 375 552 375 556.5 356.5 c 128,-1,27
 561 338 561 338 561 320 c 0,28,29
 561 280 561 280 540.5 248.5 c 128,-1,30
 520 217 520 217 485 197 c 1,31,32
 514 173 514 173 523 147 c 128,-1,33
 532 121 532 121 532 96 c 0,34,35
 532 65 532 65 517.5 37 c 128,-1,36
 503 9 503 9 479 -10.5 c 128,-1,37
 455 -30 455 -30 422 -41.5 c 128,-1,38
 389 -53 389 -53 351 -53 c 2,39,-1
 210 -53 l 2,40,41
 139 -53 139 -53 90.5 -8.5 c 128,-1,42
 42 36 42 36 42 107 c 1,43,-1
 110 107 l 1,44,45
 110 66 110 66 139.5 37 c 128,-1,46
 169 8 169 8 210 8 c 2,47,-1
 351 8 l 2,48,49
 365 8 365 8 384.5 14 c 128,-1,50
 404 20 404 20 421.5 31 c 128,-1,51
 439 42 439 42 451.5 58 c 128,-1,52
 464 74 464 74 464 95 c 0,53,54
 464 124 464 124 450.5 142.5 c 128,-1,55
 437 161 437 161 398 175 c 2,56,-1
 184 249 l 2,57,58
 148 261 148 261 124.5 275 c 128,-1,59
 101 289 101 289 88 305 c 128,-1,60
 75 321 75 321 70.5 337.5 c 128,-1,61
 66 354 66 354 66 372 c 0,62,63
 66 418 66 418 91 449.5 c 128,-1,64
 116 481 116 481 152 499 c 1,65,66
 118 520 118 520 106.5 545 c 128,-1,67
 95 570 95 570 95 595 c 0,0,1
493 318 m 0,68,69
 493 347 493 347 479.5 365.5 c 128,-1,70
 466 384 466 384 427 398 c 2,71,-1
 243 461 l 1,72,73
 229 461 229 461 210 455 c 128,-1,74
 191 449 191 449 174 438 c 128,-1,75
 157 427 157 427 145.5 411 c 128,-1,76
 134 395 134 395 134 374 c 0,77,78
 134 359 134 359 144 342.5 c 128,-1,79
 154 326 154 326 200 309 c 2,80,-1
 412 235 l 1,81,82
 440 244 440 244 466.5 265 c 128,-1,83
 493 286 493 286 493 318 c 0,68,69
EndSplineSet
EndChar
StartChar: dieresis
Encoding: 168 168 107
Width: 348
VWidth: 1507
Flags: W
HStem: 606 105<27.4707 102.014 243.47 317.529>
VStem: 12 106<621.471 695.53> 228 105<621.471 695.53>
Fore
12 659 m 256,0,1
 12 681 12 681 27 696 c 128,-1,2
 42 711 42 711 65 711 c 256,3,4
 87 711 87 711 102.5 696 c 128,-1,5
 118 681 118 681 118 659 c 256,6,7
 118 636 118 636 102.5 621 c 128,-1,8
 87 606 87 606 65 606 c 256,9,10
 42 606 42 606 27 621 c 128,-1,11
 12 636 12 636 12 659 c 256,0,1
228 659 m 256,12,13
 228 681 228 681 243 696 c 128,-1,14
 258 711 258 711 280 711 c 256,15,16
 303 711 303 711 318 696 c 128,-1,17
 333 681 333 681 333 659 c 256,18,19
 333 636 333 636 318 621 c 128,-1,20
 303 606 303 606 280 606 c 256,21,22
 258 606 258 606 243 621 c 128,-1,23
 228 636 228 636 228 659 c 256,12,13
EndSplineSet
EndChar
StartChar: copyright
Encoding: 169 169 108
Width: 734
VWidth: 1507
Flags: W
HStem: 23 54<264.08 474.42> 178 50<306.348 435.963> 496 51<326.395 441.92> 638 54<264.813 471.365>
VStem: 42 53<247.835 460.178> 214 54<271.493 429.915> 464 55<254.864 312 434 477.436> 644 52<247.835 461.644>
Fore
369 692 m 0,0,1
 437 692 437 692 496.5 664 c 128,-1,2
 556 636 556 636 600.5 590 c 128,-1,3
 645 544 645 544 670.5 483 c 128,-1,4
 696 422 696 422 696 356 c 0,5,6
 696 288 696 288 670.5 227.5 c 128,-1,7
 645 167 645 167 600.5 122 c 128,-1,8
 556 77 556 77 496.5 50 c 128,-1,9
 437 23 437 23 369 23 c 256,10,11
 301 23 301 23 241.5 50 c 128,-1,12
 182 77 182 77 137.5 122 c 128,-1,13
 93 167 93 167 67.5 227.5 c 128,-1,14
 42 288 42 288 42 356 c 0,15,16
 42 419 42 419 66 479.5 c 128,-1,17
 90 540 90 540 134 587.5 c 128,-1,18
 178 635 178 635 238 663.5 c 128,-1,19
 298 692 298 692 369 692 c 0,0,1
369 638 m 0,20,21
 309 638 309 638 258.5 613.5 c 128,-1,22
 208 589 208 589 172 549.5 c 128,-1,23
 136 510 136 510 115.5 459.5 c 128,-1,24
 95 409 95 409 95 356 c 0,25,26
 95 298 95 298 116 247.5 c 128,-1,27
 137 197 137 197 175 159.5 c 128,-1,28
 213 122 213 122 262.5 99.5 c 128,-1,29
 312 77 312 77 369 77 c 256,30,31
 427 77 427 77 476.5 99.5 c 128,-1,32
 526 122 526 122 563.5 159.5 c 128,-1,33
 601 197 601 197 622.5 247.5 c 128,-1,34
 644 298 644 298 644 356 c 0,35,36
 644 412 644 412 622 463 c 128,-1,37
 600 514 600 514 563 552.5 c 128,-1,38
 526 591 526 591 475.5 614.5 c 128,-1,39
 425 638 425 638 369 638 c 0,20,21
461 434 m 1,40,41
 461 460 461 460 442.5 478 c 128,-1,42
 424 496 424 496 398 496 c 2,43,-1
 357 496 l 2,44,45
 321 496 321 496 294.5 465 c 128,-1,46
 268 434 268 434 268 395 c 2,47,-1
 268 304 l 2,48,49
 268 277 268 277 288 252.5 c 128,-1,50
 308 228 308 228 333 228 c 2,51,-1
 374 228 l 2,52,53
 412 228 412 228 438 250.5 c 128,-1,54
 464 273 464 273 464 312 c 1,55,-1
 519 312 l 1,56,57
 519 250 519 250 476.5 214 c 128,-1,58
 434 178 434 178 374 178 c 2,59,-1
 332 178 l 2,60,61
 308 178 308 178 286 187.5 c 128,-1,62
 264 197 264 197 248 214.5 c 128,-1,63
 232 232 232 232 223 254 c 128,-1,64
 214 276 214 276 214 300 c 2,65,-1
 214 398 l 2,66,67
 214 428 214 428 225.5 455 c 128,-1,68
 237 482 237 482 256.5 502.5 c 128,-1,69
 276 523 276 523 301.5 535 c 128,-1,70
 327 547 327 547 357 547 c 2,71,-1
 399 547 l 2,72,73
 449 547 449 547 482.5 514.5 c 128,-1,74
 516 482 516 482 516 434 c 1,75,-1
 461 434 l 1,40,41
EndSplineSet
EndChar
StartChar: logicalnot
Encoding: 172 172 111
Width: 646
VWidth: 1507
Flags: W
HStem: 140 299<534 601 42 534 601 601> 371 68<42 534>
VStem: 534 67<140 371>
Fore
534 140 m 1,0,-1
 534 371 l 1,1,-1
 42 371 l 1,2,-1
 42 439 l 1,3,-1
 601 439 l 1,4,-1
 601 140 l 1,5,-1
 534 140 l 1,0,-1
EndSplineSet
EndChar
StartChar: registered
Encoding: 174 174 112
Width: 553
VWidth: 1507
Flags: W
HStem: 255 39<197.386 359.931> 488 32<229 274.133 312 323.872> 586 32<229 323.551> 692 39<198.367 359.704>
VStem: 47 37<409.462 571.265> 190 39<378 488 520 586> 341 40<529.719 575.251> 475 38<409.462 573.749>
Fore
279 731 m 0,0,1
 327 731 327 731 369.5 711.5 c 128,-1,2
 412 692 412 692 443.5 659 c 128,-1,3
 475 626 475 626 494 582 c 128,-1,4
 513 538 513 538 513 491 c 0,5,6
 513 443 513 443 494.5 401 c 128,-1,7
 476 359 476 359 444.5 325.5 c 128,-1,8
 413 292 413 292 370 273.5 c 128,-1,9
 327 255 327 255 279 255 c 256,10,11
 231 255 231 255 188.5 273.5 c 128,-1,12
 146 292 146 292 114.5 325.5 c 128,-1,13
 83 359 83 359 65 401 c 128,-1,14
 47 443 47 443 47 491 c 0,15,16
 47 537 47 537 64 580 c 128,-1,17
 81 623 81 623 112 656.5 c 128,-1,18
 143 690 143 690 186 710.5 c 128,-1,19
 229 731 229 731 279 731 c 0,0,1
279 692 m 0,20,21
 237 692 237 692 201.5 674.5 c 128,-1,22
 166 657 166 657 139.5 629 c 128,-1,23
 113 601 113 601 98.5 565 c 128,-1,24
 84 529 84 529 84 491 c 0,25,26
 84 451 84 451 99.5 415.5 c 128,-1,27
 115 380 115 380 141 353 c 128,-1,28
 167 326 167 326 202.5 310 c 128,-1,29
 238 294 238 294 279 294 c 256,30,31
 320 294 320 294 355 310 c 128,-1,32
 390 326 390 326 417.5 353 c 128,-1,33
 445 380 445 380 460 415.5 c 128,-1,34
 475 451 475 451 475 491 c 256,35,36
 475 532 475 532 460 568 c 128,-1,37
 445 604 445 604 417.5 631.5 c 128,-1,38
 390 659 390 659 355 675.5 c 128,-1,39
 320 692 320 692 279 692 c 0,20,21
190 618 m 1,40,-1
 318 618 l 2,41,42
 344 618 344 618 362.5 597.5 c 128,-1,43
 381 577 381 577 381 552 c 256,44,45
 381 526 381 526 362.5 508 c 128,-1,46
 344 490 344 490 318 490 c 2,47,-1
 312 490 l 1,48,49
 317 490 317 490 329 470 c 2,50,-1
 390 378 l 1,51,-1
 348 378 l 1,52,-1
 288 472 l 2,53,54
 283 478 283 478 276.5 483 c 128,-1,55
 270 488 270 488 259 488 c 2,56,-1
 229 488 l 1,57,-1
 229 378 l 1,58,-1
 190 378 l 1,59,-1
 190 618 l 1,40,-1
229 586 m 1,60,-1
 229 520 l 1,61,-1
 311 520 l 2,62,63
 323 520 323 520 332 530 c 128,-1,64
 341 540 341 540 341 552 c 256,65,66
 341 564 341 564 332 575 c 128,-1,67
 323 586 323 586 311 586 c 2,68,-1
 229 586 l 1,60,-1
EndSplineSet
EndChar
StartChar: macron
Encoding: 175 175 113
Width: 357
VWidth: 1507
Flags: W
HStem: 636 60<42 314 42 314 42 42>
Fore
42 636 m 1,0,-1
 42 696 l 1,1,-1
 314 696 l 1,2,-1
 314 636 l 1,3,-1
 42 636 l 1,0,-1
EndSplineSet
EndChar
StartChar: degree
Encoding: 176 176 114
Width: 325
VWidth: 1507
Flags: W
HStem: 484 45<105.33 220.378> 704 45<105.33 220.378>
VStem: 30 45<559.46 673.64> 250 45<559.046 674.053>
Fore
30 617 m 256,0,1
 30 672 30 672 68.5 710.5 c 128,-1,2
 107 749 107 749 163 749 c 256,3,4
 219 749 219 749 257 710.5 c 128,-1,5
 295 672 295 672 295 617 c 256,6,7
 295 561 295 561 257 522.5 c 128,-1,8
 219 484 219 484 163 484 c 256,9,10
 107 484 107 484 68.5 522.5 c 128,-1,11
 30 561 30 561 30 617 c 256,0,1
75 617 m 256,12,13
 75 580 75 580 101 554.5 c 128,-1,14
 127 529 127 529 163 529 c 256,15,16
 199 529 199 529 224.5 554.5 c 128,-1,17
 250 580 250 580 250 617 c 256,18,19
 250 653 250 653 224.5 678.5 c 128,-1,20
 199 704 199 704 163 704 c 256,21,22
 127 704 127 704 101 678.5 c 128,-1,23
 75 653 75 653 75 617 c 256,12,13
EndSplineSet
EndChar
StartChar: plusminus
Encoding: 177 177 115
Width: 646
VWidth: 1507
Flags: W
HStem: 0 63<90 555> 336 63<90 291 354 555>
VStem: 291 63<136 336 399 600>
Fore
354 336 m 1,0,-1
 354 136 l 1,1,-1
 291 136 l 1,2,-1
 291 336 l 1,3,-1
 90 336 l 1,4,-1
 90 399 l 1,5,-1
 291 399 l 1,6,-1
 291 600 l 1,7,-1
 354 600 l 1,8,-1
 354 399 l 1,9,-1
 555 399 l 1,10,-1
 555 336 l 1,11,-1
 354 336 l 1,0,-1
555 0 m 1,12,-1
 90 0 l 1,13,-1
 90 63 l 1,14,-1
 555 63 l 1,15,-1
 555 0 l 1,12,-1
EndSplineSet
EndChar
StartChar: twosuperior
Encoding: 178 178 116
Width: 390
VWidth: 1507
Flags: W
HStem: 282 48<98 345> 689 47<138.782 265.371>
VStem: 286 53<573.991 668.101>
Fore
207 736 m 2,0,1
 271 736 271 736 305 702 c 128,-1,2
 339 668 339 668 339 609 c 0,3,4
 339 577 339 577 328.5 555.5 c 128,-1,5
 318 534 318 534 283 508 c 2,6,-1
 133 396 l 2,7,8
 116 383 116 383 107.5 364 c 128,-1,9
 99 345 99 345 98 330 c 1,10,-1
 345 330 l 1,11,-1
 345 282 l 1,12,-1
 42 282 l 1,13,-1
 42 329 l 2,14,15
 42 362 42 362 55.5 387.5 c 128,-1,16
 69 413 69 413 93 430 c 0,17,18
 133 461 133 461 179 495 c 128,-1,19
 225 529 225 529 264 559 c 0,20,21
 273 565 273 565 279.5 580 c 128,-1,22
 286 595 286 595 286 609 c 0,23,24
 286 647 286 647 266 668 c 128,-1,25
 246 689 246 689 208 689 c 2,26,-1
 193 689 l 2,27,28
 163 689 163 689 138 672.5 c 128,-1,29
 113 656 113 656 93 633 c 1,30,-1
 51 665 l 1,31,32
 77 698 77 698 114 717 c 128,-1,33
 151 736 151 736 193 736 c 2,34,-1
 207 736 l 2,0,1
EndSplineSet
EndChar
StartChar: threesuperior
Encoding: 179 179 117
Width: 369
VWidth: 1507
Flags: W
HStem: 279 457<131 188 173 176 173 173> 279 48<112.325 244.896> 513 48<130 254.076> 687 49<119.328 249.7>
VStem: 21 321<359 436 359 362> 268 55<571.954 668.816> 291 51<371.948 478.782>
Fore
130 561 m 1,0,-1
 220 561 l 2,1,2
 241 562 241 562 254.5 575 c 128,-1,3
 268 588 268 588 268 609 c 0,4,5
 268 687 268 687 190 687 c 2,6,-1
 173 687 l 2,7,8
 145 687 145 687 118.5 671.5 c 128,-1,9
 92 656 92 656 74 633 c 1,10,-1
 33 663 l 1,11,12
 59 696 59 696 95 716 c 128,-1,13
 131 736 131 736 173 736 c 2,14,-1
 188 736 l 2,15,16
 253 736 253 736 288 701 c 128,-1,17
 323 666 323 666 323 609 c 0,18,19
 323 564 323 564 295 537 c 1,20,21
 320 520 320 520 331 493 c 128,-1,22
 342 466 342 466 342 436 c 0,23,24
 342 365 342 365 294.5 322 c 128,-1,25
 247 279 247 279 176 279 c 0,26,27
 124 279 124 279 88.5 299.5 c 128,-1,28
 53 320 53 320 21 359 c 1,29,-1
 60 393 l 1,30,31
 86 365 86 365 114 346 c 128,-1,32
 142 327 142 327 178 327 c 0,33,34
 223 327 223 327 257 358.5 c 128,-1,35
 291 390 291 390 291 436 c 0,36,37
 291 466 291 466 269 489.5 c 128,-1,38
 247 513 247 513 216 513 c 2,39,-1
 130 513 l 1,40,-1
 130 561 l 1,0,-1
EndSplineSet
EndChar
StartChar: acute
Encoding: 180 180 118
Width: 179
VWidth: 1507
Flags: W
HStem: 565 166<66 106 106 106>
Fore
106 731 m 1,0,-1
 176 731 l 1,1,-1
 66 565 l 1,2,-1
 -5 565 l 1,3,-1
 106 731 l 1,0,-1
EndSplineSet
EndChar
StartChar: mu
Encoding: 181 181 119
Width: 544
VWidth: 1507
Flags: W
HStem: -187 698<54 122 54 484 54 387> -8 61<161.825 305.459>
VStem: 54 68<-187 24 96.3195 511> 416 68<0 65 132.203 178 178 511>
Fore
54 -187 m 1,0,-1
 54 511 l 1,1,-1
 122 511 l 1,2,-1
 122 164 l 2,3,4
 122 124 122 124 149 88.5 c 128,-1,5
 176 53 176 53 217 53 c 2,6,-1
 277 53 l 2,7,8
 303 53 303 53 326.5 63.5 c 128,-1,9
 350 74 350 74 368.5 91.5 c 128,-1,10
 387 109 387 109 399.5 131.5 c 128,-1,11
 412 154 412 154 416 178 c 1,12,-1
 416 511 l 1,13,-1
 484 511 l 1,14,-1
 484 0 l 1,15,-1
 416 0 l 1,16,-1
 416 65 l 1,17,18
 395 35 395 35 356.5 13.5 c 128,-1,19
 318 -8 318 -8 277 -8 c 2,20,-1
 217 -8 l 2,21,22
 163 -8 163 -8 122 24 c 1,23,-1
 122 -187 l 1,24,-1
 54 -187 l 1,0,-1
EndSplineSet
EndChar
StartChar: paragraph
Encoding: 182 182 120
Width: 619
VWidth: 1507
Flags: W
HStem: 650 68<436 502>
VStem: 45 391<417.704 577.78> 368 68<-59 283> 502 68<-59 650>
Fore
570 718 m 1,0,-1
 570 -59 l 1,1,-1
 502 -59 l 1,2,-1
 502 650 l 1,3,-1
 436 650 l 1,4,-1
 436 -59 l 1,5,-1
 368 -59 l 1,6,-1
 368 283 l 1,7,-1
 234 283 l 2,8,9
 194 283 194 283 160.5 301.5 c 128,-1,10
 127 320 127 320 101 349 c 128,-1,11
 75 378 75 378 60 416.5 c 128,-1,12
 45 455 45 455 45 497 c 256,13,14
 45 540 45 540 60 579 c 128,-1,15
 75 618 75 618 101 648 c 128,-1,16
 127 678 127 678 160.5 697 c 128,-1,17
 194 716 194 716 234 716 c 2,18,-1
 570 718 l 1,0,-1
EndSplineSet
EndChar
StartChar: periodcentered
Encoding: 183 183 121
Width: 346
VWidth: 1507
Flags: W
HStem: 271 151<119.659 227.341>
VStem: 98 151<293.175 400.341>
Fore
98 347 m 256,0,1
 98 380 98 380 119 401 c 128,-1,2
 140 422 140 422 173 422 c 256,3,4
 207 422 207 422 228 401 c 128,-1,5
 249 380 249 380 249 347 c 256,6,7
 249 314 249 314 228 292.5 c 128,-1,8
 207 271 207 271 173 271 c 256,9,10
 140 271 140 271 119 292.5 c 128,-1,11
 98 314 98 314 98 347 c 256,0,1
EndSplineSet
EndChar
StartChar: cedilla
Encoding: 184 184 122
Width: 325
VWidth: 1507
Flags: W
HStem: -193 53<132.336 182.171>
VStem: 193 59<-138.045 -98.0278>
Fore
157 -140 m 2,0,1
 172 -140 172 -140 182.5 -137 c 128,-1,2
 193 -134 193 -134 193 -118 c 0,3,4
 193 -112 193 -112 186 -102 c 128,-1,5
 179 -92 179 -92 164 -84 c 0,6,7
 133 -63 133 -63 127.5 -45 c 128,-1,8
 122 -27 122 -27 122 -17 c 2,9,-1
 122 6 l 1,10,-1
 178 6 l 1,11,-1
 178 -17 l 1,12,13
 184 -35 184 -35 193 -42.5 c 128,-1,14
 202 -50 202 -50 214 -57 c 0,15,16
 229 -66 229 -66 240.5 -81 c 128,-1,17
 252 -96 252 -96 252 -119 c 0,18,19
 252 -163 252 -163 224 -178 c 128,-1,20
 196 -193 196 -193 157 -193 c 2,21,-1
 145 -193 l 2,22,23
 106 -190 106 -190 82.5 -169 c 128,-1,24
 59 -148 59 -148 59 -106 c 1,25,-1
 118 -106 l 1,26,27
 118 -121 118 -121 125.5 -130.5 c 128,-1,28
 133 -140 133 -140 145 -140 c 2,29,-1
 157 -140 l 2,0,1
EndSplineSet
EndChar
StartChar: onesuperior
Encoding: 185 185 123
Width: 325
VWidth: 1507
Flags: W
HStem: 282 434<167 220> 573 47<71 108.378>
VStem: 71 149<601 620 573 716 620 620> 167 53<282 601 657.334 716>
Fore
167 282 m 1,0,-1
 167 601 l 1,1,2
 148 585 148 585 124.5 579 c 128,-1,3
 101 573 101 573 71 573 c 1,4,-1
 71 620 l 1,5,6
 110 620 110 620 138 649 c 128,-1,7
 166 678 166 678 167 716 c 1,8,-1
 220 716 l 1,9,-1
 220 282 l 1,10,-1
 167 282 l 1,0,-1
EndSplineSet
EndChar
StartChar: onequarter
Encoding: 188 188 126
Width: 824
VWidth: 1507
Flags: W
HStem: 573 47<44 81.7051>
VStem: 140 53<657.334 716>
Fore
696 0 m 1,0,-1
 696 87 l 1,1,-1
 749 87 l 1,2,-1
 749 136 l 1,3,-1
 696 136 l 1,4,-1
 696 434 l 1,5,-1
 645 434 l 1,6,-1
 439 133 l 1,7,8
 439 87 439 87 485 87 c 2,9,-1
 642 87 l 1,10,-1
 642 0 l 1,11,-1
 696 0 l 1,0,-1
642 136 m 1,12,-1
 505 136 l 1,13,-1
 642 339 l 1,14,-1
 642 136 l 1,12,-1
137 -26 m 1,15,-1
 525 739 l 1,16,-1
 591 739 l 1,17,-1
 207 -26 l 1,18,-1
 137 -26 l 1,15,-1
193 282 m 1,19,-1
 193 716 l 1,20,-1
 140 716 l 1,21,22
 139 678 139 678 111 649 c 128,-1,23
 83 620 83 620 44 620 c 1,24,-1
 44 573 l 1,25,26
 74 573 74 573 96.5 579 c 128,-1,27
 119 585 119 585 140 601 c 1,28,-1
 140 282 l 1,29,-1
 193 282 l 1,19,-1
EndSplineSet
Ligature2: "'frac' Diagonal Fractions in Latin lookup 0 subtable" one fraction four
Ligature2: "'frac' Diagonal Fractions in Latin lookup 0 subtable" one slash four
EndChar
StartChar: onehalf
Encoding: 189 189 127
Width: 824
VWidth: 1507
Flags: W
HStem: 0 47<531 770> 389 45<569.297 690.887> 573 47<44 81.7051>
VStem: 140 53<657.334 716> 711 52<278.756 368.965>
Fore
635 434 m 2,0,1
 698 434 698 434 730.5 401.5 c 128,-1,2
 763 369 763 369 763 314 c 0,3,4
 763 283 763 283 751 260.5 c 128,-1,5
 739 238 739 238 708 217 c 2,6,-1
 564 110 l 2,7,8
 546 96 546 96 539 78 c 128,-1,9
 532 60 532 60 531 47 c 1,10,-1
 770 47 l 1,11,-1
 770 0 l 1,12,-1
 478 0 l 1,13,-1
 478 45 l 2,14,15
 478 75 478 75 491.5 100 c 128,-1,16
 505 125 505 125 526 142 c 2,17,-1
 690 265 l 2,18,19
 699 271 699 271 705 285.5 c 128,-1,20
 711 300 711 300 711 314 c 0,21,22
 711 348 711 348 691.5 368.5 c 128,-1,23
 672 389 672 389 636 389 c 2,24,-1
 621 389 l 2,25,26
 594 389 594 389 568.5 373 c 128,-1,27
 543 357 543 357 526 336 c 1,28,-1
 487 366 l 1,29,30
 513 398 513 398 547.5 416 c 128,-1,31
 582 434 582 434 621 434 c 2,32,-1
 635 434 l 2,0,1
137 -26 m 1,33,-1
 525 739 l 1,34,-1
 591 739 l 1,35,-1
 207 -26 l 1,36,-1
 137 -26 l 1,33,-1
193 282 m 1,37,-1
 193 716 l 1,38,-1
 140 716 l 1,39,40
 139 678 139 678 111 649 c 128,-1,41
 83 620 83 620 44 620 c 1,42,-1
 44 573 l 1,43,44
 74 573 74 573 96.5 579 c 128,-1,45
 119 585 119 585 140 601 c 1,46,-1
 140 282 l 1,47,-1
 193 282 l 1,37,-1
EndSplineSet
Ligature2: "'frac' Diagonal Fractions in Latin lookup 0 subtable" one fraction two
Ligature2: "'frac' Diagonal Fractions in Latin lookup 0 subtable" one slash two
EndChar
StartChar: threequarters
Encoding: 190 190 128
Width: 824
VWidth: 1507
Flags: W
HStem: 277 49<131.35 264.882> 513 46<238 273.045> 687 49<138.298 193 210 269.7>
VStem: 288 53<571.689 668.816> 311 51<371.642 476.069>
Fore
148 513 m 1,0,-1
 235 513 l 2,1,2
 267 513 267 513 289 488.5 c 128,-1,3
 311 464 311 464 311 434 c 0,4,5
 311 390 311 390 277 358 c 128,-1,6
 243 326 243 326 197 326 c 0,7,8
 160 326 160 326 133 344.5 c 128,-1,9
 106 363 106 363 80 392 c 1,10,-1
 41 357 l 1,11,12
 72 318 72 318 107.5 297.5 c 128,-1,13
 143 277 143 277 196 277 c 0,14,15
 267 277 267 277 314.5 320 c 128,-1,16
 362 363 362 363 362 434 c 0,17,18
 362 464 362 464 349 492 c 128,-1,19
 336 520 336 520 315 537 c 1,20,21
 341 565 341 565 341 609 c 0,22,23
 341 666 341 666 307 701 c 128,-1,24
 273 736 273 736 208 736 c 2,25,-1
 193 736 l 2,26,27
 151 736 151 736 114 716 c 128,-1,28
 77 696 77 696 51 663 c 1,29,-1
 93 633 l 1,30,31
 112 656 112 656 137.5 671.5 c 128,-1,32
 163 687 163 687 193 687 c 2,33,-1
 210 687 l 2,34,35
 288 687 288 687 288 609 c 0,36,37
 288 586 288 586 273.5 574 c 128,-1,38
 259 562 259 562 238 559 c 1,39,-1
 148 559 l 1,40,-1
 148 513 l 1,0,-1
696 0 m 1,41,-1
 696 87 l 1,42,-1
 749 87 l 1,43,-1
 749 136 l 1,44,-1
 696 136 l 1,45,-1
 696 434 l 1,46,-1
 645 434 l 1,47,-1
 439 133 l 1,48,49
 439 87 439 87 485 87 c 2,50,-1
 642 87 l 1,51,-1
 642 0 l 1,52,-1
 696 0 l 1,41,-1
642 136 m 1,53,-1
 505 136 l 1,54,-1
 642 339 l 1,55,-1
 642 136 l 1,53,-1
211 -26 m 1,56,-1
 598 739 l 1,57,-1
 665 739 l 1,58,-1
 280 -26 l 1,59,-1
 211 -26 l 1,56,-1
EndSplineSet
Ligature2: "'frac' Diagonal Fractions in Latin lookup 0 subtable" three fraction four
Ligature2: "'frac' Diagonal Fractions in Latin lookup 0 subtable" three slash four
EndChar
StartChar: Aring
Encoding: 197 197 134
Width: 798
VWidth: 1507
Flags: W
HStem: 0 21G<38 121.7 666.1 751> 200 61<226 559> 850 51<353.32 434.385>
VStem: 288 51<753.833 835.685> 449 51<753.874 835.685>
Fore
347 699 m 1,0,1
 321 711 321 711 304.5 737 c 128,-1,2
 288 763 288 763 288 794 c 0,3,4
 288 838 288 838 319 869.5 c 128,-1,5
 350 901 350 901 395 901 c 0,6,7
 439 901 439 901 469.5 869.5 c 128,-1,8
 500 838 500 838 500 794 c 0,9,10
 500 760 500 760 480 732.5 c 128,-1,11
 460 705 460 705 430 695 c 1,12,13
 446 680 446 680 455 663 c 2,14,-1
 751 0 l 1,15,-1
 675 0 l 1,16,-1
 586 200 l 1,17,-1
 200 200 l 1,18,-1
 113 0 l 1,19,-1
 38 0 l 1,20,-1
 347 699 l 1,0,1
226 261 m 1,21,-1
 559 261 l 1,22,-1
 393 636 l 1,23,-1
 226 261 l 1,21,-1
339 794 m 256,24,25
 339 772 339 772 355 756 c 128,-1,26
 371 740 371 740 395 740 c 0,27,28
 416 740 416 740 432.5 756 c 128,-1,29
 449 772 449 772 449 794 c 256,30,31
 449 817 449 817 432.5 833.5 c 128,-1,32
 416 850 416 850 395 850 c 0,33,34
 371 850 371 850 355 833.5 c 128,-1,35
 339 817 339 817 339 794 c 256,24,25
EndSplineSet
EndChar
StartChar: AE
Encoding: 198 198 135
Width: 955
VWidth: 1507
Flags: W
HStem: 0 60<562 926> 200 61<214 449> 344 60<499 852> 656 60<428 788>
Fore
344 718 m 1,0,1
 353 718 353 718 360.5 717 c 128,-1,2
 368 716 368 716 374 716 c 2,3,-1
 788 716 l 1,4,-1
 788 656 l 1,5,-1
 428 656 l 1,6,-1
 485 404 l 1,7,-1
 852 404 l 1,8,-1
 852 344 l 1,9,-1
 499 344 l 1,10,-1
 562 60 l 1,11,-1
 926 60 l 1,12,-1
 926 0 l 1,13,-1
 508 0 l 1,14,-1
 463 200 l 1,15,-1
 188 200 l 1,16,-1
 101 0 l 1,17,-1
 26 0 l 1,18,-1
 344 718 l 1,0,1
214 261 m 1,19,-1
 449 261 l 1,20,-1
 365 633 l 1,21,-1
 214 261 l 1,19,-1
EndSplineSet
EndChar
StartChar: Ccedilla
Encoding: 199 199 136
Width: 694
VWidth: 1507
Flags: W
HStem: -193 53<335.336 385.171> -15 60<220.939 326 381 451.749> 671 60<253.22 418 418 481.546>
VStem: 51 68<198.172 518.625> 396 59<-138.045 -97.627> 586 68<173.704 255 502 535.5>
Fore
583 502 m 1,0,1
 583 535 583 535 570.5 566 c 128,-1,2
 558 597 558 597 535.5 620.5 c 128,-1,3
 513 644 513 644 482.5 657.5 c 128,-1,4
 452 671 452 671 418 671 c 2,5,-1
 336 671 l 2,6,7
 291 671 291 671 252 650.5 c 128,-1,8
 213 630 213 630 183.5 597 c 128,-1,9
 154 564 154 564 136.5 520 c 128,-1,10
 119 476 119 476 119 431 c 2,11,-1
 119 234 l 2,12,13
 119 199 119 199 132 165 c 128,-1,14
 145 131 145 131 167.5 104.5 c 128,-1,15
 190 78 190 78 220 61.5 c 128,-1,16
 250 45 250 45 285 45 c 2,17,-1
 369 45 l 2,18,19
 413 45 413 45 453 61 c 128,-1,20
 493 77 493 77 522.5 105.5 c 128,-1,21
 552 134 552 134 569 172.5 c 128,-1,22
 586 211 586 211 586 255 c 1,23,-1
 654 255 l 1,24,25
 654 196 654 196 632 147.5 c 128,-1,26
 610 99 610 99 573.5 64 c 128,-1,27
 537 29 537 29 487 7.5 c 128,-1,28
 437 -14 437 -14 381 -15 c 1,29,-1
 381 -17 l 1,30,31
 387 -35 387 -35 396 -42.5 c 128,-1,32
 405 -50 405 -50 418 -57 c 0,33,34
 433 -66 433 -66 444 -81 c 128,-1,35
 455 -96 455 -96 455 -119 c 0,36,37
 455 -163 455 -163 427 -178 c 128,-1,38
 399 -193 399 -193 360 -193 c 2,39,-1
 348 -193 l 2,40,41
 309 -190 309 -190 285.5 -169 c 128,-1,42
 262 -148 262 -148 262 -106 c 1,43,-1
 321 -106 l 1,44,45
 321 -121 321 -121 328.5 -130.5 c 128,-1,46
 336 -140 336 -140 348 -140 c 2,47,-1
 360 -140 l 2,48,49
 375 -140 375 -140 385.5 -137 c 128,-1,50
 396 -134 396 -134 396 -118 c 0,51,52
 396 -112 396 -112 389.5 -102 c 128,-1,53
 383 -92 383 -92 368 -84 c 0,54,55
 336 -63 336 -63 331 -45 c 128,-1,56
 326 -27 326 -27 326 -17 c 2,57,-1
 326 -15 l 1,58,-1
 285 -15 l 2,59,60
 237 -15 237 -15 194 5.5 c 128,-1,61
 151 26 151 26 119 60.5 c 128,-1,62
 87 95 87 95 69 140 c 128,-1,63
 51 185 51 185 51 234 c 2,64,-1
 51 431 l 2,65,66
 51 491 51 491 73.5 545.5 c 128,-1,67
 96 600 96 600 134.5 641.5 c 128,-1,68
 173 683 173 683 225 707 c 128,-1,69
 277 731 277 731 336 731 c 2,70,-1
 418 731 l 2,71,72
 467 731 467 731 509.5 713.5 c 128,-1,73
 552 696 552 696 583.5 665.5 c 128,-1,74
 615 635 615 635 633 593.5 c 128,-1,75
 651 552 651 552 651 502 c 1,76,-1
 583 502 l 1,0,1
EndSplineSet
EndChar
StartChar: Eth
Encoding: 208 208 145
Width: 803
VWidth: 1507
Flags: W
HStem: 0 60<202 534.749> 335 63<66 134 202 455> 656 60<202 566.546>
VStem: 134 68<60.5851 335 398 656> 669 68<200.282 516.163>
Fore
202 398 m 1,0,-1
 455 398 l 1,1,-1
 455 335 l 1,2,-1
 202 335 l 1,3,-1
 202 60 l 1,4,-1
 452 60 l 2,5,6
 496 60 496 60 536 78 c 128,-1,7
 576 96 576 96 605.5 127 c 128,-1,8
 635 158 635 158 652 199 c 128,-1,9
 669 240 669 240 669 286 c 2,10,-1
 669 481 l 2,11,12
 669 516 669 516 656.5 547.5 c 128,-1,13
 644 579 644 579 621 603 c 128,-1,14
 598 627 598 627 567.5 641.5 c 128,-1,15
 537 656 537 656 502 656 c 2,16,-1
 202 656 l 1,17,-1
 202 398 l 1,0,-1
134 335 m 1,18,-1
 66 335 l 1,19,-1
 66 398 l 1,20,-1
 134 398 l 1,21,-1
 134 716 l 1,22,-1
 502 716 l 2,23,24
 552 716 552 716 595 698 c 128,-1,25
 638 680 638 680 669.5 648.5 c 128,-1,26
 701 617 701 617 719 574 c 128,-1,27
 737 531 737 531 737 481 c 2,28,-1
 737 286 l 2,29,30
 737 226 737 226 714.5 173.5 c 128,-1,31
 692 121 692 121 653 82.5 c 128,-1,32
 614 44 614 44 562.5 22 c 128,-1,33
 511 0 511 0 452 0 c 2,34,-1
 197 0 l 2,35,36
 172 0 172 0 153 20.5 c 128,-1,37
 134 41 134 41 134 66 c 2,38,-1
 134 335 l 1,18,-1
EndSplineSet
EndChar
StartChar: multiply
Encoding: 215 215 152
Width: 646
VWidth: 1507
Flags: W
HStem: 128 409<164 485 164 164>
VStem: 121 408<172 172 172 172>
Fore
369 333 m 1,0,1
 375 326 375 326 390 311.5 c 128,-1,2
 405 297 405 297 422.5 279 c 128,-1,3
 440 261 440 261 459 241.5 c 128,-1,4
 478 222 478 222 494 207 c 0,5,6
 502 199 502 199 512 189 c 128,-1,7
 522 179 522 179 529 172 c 1,8,-1
 485 128 l 1,9,-1
 324 289 l 1,10,-1
 164 128 l 1,11,-1
 128 163 l 1,12,-1
 121 172 l 1,13,-1
 280 333 l 1,14,15
 270 342 270 342 247.5 364 c 128,-1,16
 225 386 225 386 200.5 411 c 128,-1,17
 176 436 176 436 153.5 458.5 c 128,-1,18
 131 481 131 481 121 493 c 1,19,-1
 164 537 l 1,20,-1
 324 377 l 1,21,-1
 485 537 l 1,22,-1
 520 500 l 1,23,-1
 529 493 l 1,24,-1
 369 333 l 1,0,1
EndSplineSet
EndChar
StartChar: Oslash
Encoding: 216 216 153
Width: 717
VWidth: 1507
Flags: W
HStem: -15 60<249.732 453.265> 671 60<256.22 450.54>
VStem: 53 68<144.346 517.656> 588 68<198.344 515.52>
Fore
60 -26 m 1,0,-1
 119 62 l 1,1,2
 87 96 87 96 70 141.5 c 128,-1,3
 53 187 53 187 53 235 c 2,4,-1
 53 430 l 2,5,6
 53 490 53 490 75.5 545 c 128,-1,7
 98 600 98 600 137 641.5 c 128,-1,8
 176 683 176 683 228 707 c 128,-1,9
 280 731 280 731 339 731 c 2,10,-1
 421 731 l 2,11,12
 490 731 490 731 549 689 c 1,13,-1
 582 739 l 1,14,-1
 648 739 l 1,15,-1
 589 653 l 1,16,17
 620 618 620 618 638 573.5 c 128,-1,18
 656 529 656 529 656 481 c 2,19,-1
 656 286 l 2,20,21
 656 226 656 226 633 171 c 128,-1,22
 610 116 610 116 571 74.5 c 128,-1,23
 532 33 532 33 481 9 c 128,-1,24
 430 -15 430 -15 371 -15 c 2,25,-1
 288 -15 l 2,26,27
 253 -15 253 -15 221.5 -4.5 c 128,-1,28
 190 6 190 6 163 24 c 1,29,-1
 128 -26 l 1,30,-1
 60 -26 l 1,0,-1
121 235 m 2,31,32
 121 170 121 170 158 119 c 1,33,-1
 513 636 l 1,34,35
 491 653 491 653 468.5 662 c 128,-1,36
 446 671 446 671 421 671 c 2,37,-1
 339 671 l 2,38,39
 294 671 294 671 255 650.5 c 128,-1,40
 216 630 216 630 185.5 596 c 128,-1,41
 155 562 155 562 138 519 c 128,-1,42
 121 476 121 476 121 430 c 2,43,-1
 121 235 l 2,31,32
588 481 m 2,44,45
 588 511 588 511 578 540.5 c 128,-1,46
 568 570 568 570 550 595 c 1,47,-1
 197 77 l 1,48,49
 238 45 238 45 288 45 c 2,50,-1
 371 45 l 2,51,52
 415 45 415 45 454.5 65.5 c 128,-1,53
 494 86 494 86 523.5 120 c 128,-1,54
 553 154 553 154 570.5 197 c 128,-1,55
 588 240 588 240 588 286 c 2,56,-1
 588 481 l 2,44,45
EndSplineSet
EndChar
StartChar: Thorn
Encoding: 222 222 159
Width: 595
VWidth: 1507
Flags: W
HStem: 0 21G<90 158> 167 61<158 309.868> 528 60<158 332.59>
VStem: 90 68<0 167 228 528 588 733> 469 68<308.23 453.564>
Fore
292 588 m 2,0,1
 342 588 342 588 386 575 c 128,-1,2
 430 562 430 562 463.5 537.5 c 128,-1,3
 497 513 497 513 517 476 c 128,-1,4
 537 439 537 439 537 389 c 0,5,6
 537 329 537 329 514 286.5 c 128,-1,7
 491 244 491 244 453 217.5 c 128,-1,8
 415 191 415 191 363.5 179 c 128,-1,9
 312 167 312 167 253 167 c 2,10,-1
 158 167 l 1,11,-1
 158 0 l 1,12,-1
 90 0 l 1,13,-1
 90 733 l 1,14,-1
 158 733 l 1,15,-1
 158 588 l 1,16,-1
 292 588 l 2,0,1
158 228 m 1,17,-1
 253 228 l 2,18,19
 297 228 297 228 336 235.5 c 128,-1,20
 375 243 375 243 404.5 261.5 c 128,-1,21
 434 280 434 280 451.5 311 c 128,-1,22
 469 342 469 342 469 389 c 0,23,24
 469 424 469 424 453 450 c 128,-1,25
 437 476 437 476 411.5 493.5 c 128,-1,26
 386 511 386 511 355 519.5 c 128,-1,27
 324 528 324 528 292 528 c 2,28,-1
 158 528 l 1,29,-1
 158 228 l 1,17,-1
EndSplineSet
EndChar
StartChar: uni00DF
Encoding: 223 223 160
Width: 605
VWidth: 1507
Flags: W
HStem: -190 21G<66 134> -14 68<296.649 437.149> 668 60<216.782 351.867>
VStem: 66 68<-190 548.992> 318 68<340.395 423.856> 430 67<526 579.035> 479 68<96.5084 186.256>
Fore
66 -190 m 1,0,-1
 66 517 l 2,1,2
 66 559 66 559 82 597.5 c 128,-1,3
 98 636 98 636 126 665.5 c 128,-1,4
 154 695 154 695 191 711.5 c 128,-1,5
 228 728 228 728 270 728 c 2,6,-1
 330 728 l 2,7,8
 365 728 365 728 396 713.5 c 128,-1,9
 427 699 427 699 449.5 675 c 128,-1,10
 472 651 472 651 484.5 619.5 c 128,-1,11
 497 588 497 588 497 553 c 2,12,-1
 497 484 l 1,13,14
 478 476 478 476 457.5 467 c 128,-1,15
 437 458 437 458 421 447 c 128,-1,16
 405 436 405 436 395.5 422.5 c 128,-1,17
 386 409 386 409 386 393 c 0,18,19
 386 359 386 359 405 341 c 128,-1,20
 424 323 424 323 454 295 c 0,21,22
 472 277 472 277 488.5 264.5 c 128,-1,23
 505 252 505 252 518.5 238.5 c 128,-1,24
 532 225 532 225 539.5 206 c 128,-1,25
 547 187 547 187 547 157 c 0,26,27
 547 86 547 86 499.5 36 c 128,-1,28
 452 -14 452 -14 362 -14 c 0,29,30
 329 -14 329 -14 287.5 -2.5 c 128,-1,31
 246 9 246 9 217 26 c 1,32,-1
 247 87 l 1,33,34
 309 54 309 54 362 54 c 0,35,36
 418 54 418 54 448.5 86 c 128,-1,37
 479 118 479 118 479 152 c 0,38,39
 479 172 479 172 474.5 184 c 128,-1,40
 470 196 470 196 460.5 206 c 128,-1,41
 451 216 451 216 437.5 225 c 128,-1,42
 424 234 424 234 405 250 c 0,43,44
 360 289 360 289 339 321.5 c 128,-1,45
 318 354 318 354 318 393 c 0,46,47
 318 434 318 434 349.5 467 c 128,-1,48
 381 500 381 500 430 526 c 1,49,-1
 430 553 l 2,50,51
 430 573 430 573 421.5 594 c 128,-1,52
 413 615 413 615 399.5 631 c 128,-1,53
 386 647 386 647 368 657.5 c 128,-1,54
 350 668 350 668 330 668 c 2,55,-1
 270 668 l 2,56,57
 241 668 241 668 216 655 c 128,-1,58
 191 642 191 642 173 621 c 128,-1,59
 155 600 155 600 144.5 573 c 128,-1,60
 134 546 134 546 134 517 c 2,61,-1
 134 -190 l 1,62,-1
 66 -190 l 1,0,-1
EndSplineSet
EndChar
StartChar: ae
Encoding: 230 230 167
Width: 905
VWidth: 1507
Flags: W
HStem: -6 60<156.512 296.546 563.324 721.685> 267 53<233.459 419 487 782> 460 60<199.017 341.467 552.23 705.676>
VStem: 57 68<84.901 186.909> 419 68<146.328 167 167 267 320 389.406> 782 68<113.388 188 320 344 344 370.208>
Fore
107 478 m 1,0,1
 161 520 161 520 228 520 c 2,2,-1
 320 520 l 2,3,4
 363 520 363 520 401 495 c 128,-1,5
 439 470 439 470 461 434 c 1,6,7
 490 472 490 472 531.5 495.5 c 128,-1,8
 573 519 573 519 623 519 c 2,9,-1
 683 519 l 2,10,11
 718 519 718 519 748.5 504.5 c 128,-1,12
 779 490 779 490 802 466 c 128,-1,13
 825 442 825 442 837.5 410 c 128,-1,14
 850 378 850 378 850 344 c 2,15,-1
 850 267 l 1,16,-1
 487 267 l 1,17,-1
 487 220 l 1,18,-1
 487 211 l 1,19,-1
 487 167 l 2,20,21
 487 148 487 148 494.5 127.5 c 128,-1,22
 502 107 502 107 515.5 90.5 c 128,-1,23
 529 74 529 74 547 63.5 c 128,-1,24
 565 53 565 53 586 53 c 2,25,-1
 647 53 l 2,26,27
 704 53 704 53 743 92 c 128,-1,28
 782 131 782 131 782 188 c 1,29,-1
 850 188 l 1,30,31
 850 146 850 146 833.5 110 c 128,-1,32
 817 74 817 74 789 48.5 c 128,-1,33
 761 23 761 23 724 7.5 c 128,-1,34
 687 -8 687 -8 647 -8 c 2,35,-1
 586 -8 l 2,36,37
 538 -8 538 -8 499 18.5 c 128,-1,38
 460 45 460 45 439 86 c 1,39,40
 409 45 409 45 363.5 19.5 c 128,-1,41
 318 -6 318 -6 268 -6 c 2,42,-1
 208 -6 l 2,43,44
 145 -6 145 -6 101 36 c 128,-1,45
 57 78 57 78 57 142 c 0,46,47
 57 181 57 181 75 214 c 128,-1,48
 93 247 93 247 122 270.5 c 128,-1,49
 151 294 151 294 187 307 c 128,-1,50
 223 320 223 320 259 320 c 2,51,-1
 419 320 l 1,52,-1
 419 353 l 2,53,54
 418 371 418 371 409.5 390 c 128,-1,55
 401 409 401 409 387.5 424.5 c 128,-1,56
 374 440 374 440 356.5 450 c 128,-1,57
 339 460 339 460 320 460 c 2,58,-1
 228 460 l 2,59,60
 203 460 203 460 182 451 c 128,-1,61
 161 442 161 442 145 425 c 1,62,-1
 107 478 l 1,0,1
259 267 m 2,63,64
 237 267 237 267 212.5 256.5 c 128,-1,65
 188 246 188 246 169.5 229.5 c 128,-1,66
 151 213 151 213 138 191 c 128,-1,67
 125 169 125 169 125 145 c 0,68,69
 125 110 125 110 148.5 82 c 128,-1,70
 172 54 172 54 208 54 c 2,71,-1
 268 54 l 2,72,73
 295 54 295 54 321.5 66 c 128,-1,74
 348 78 348 78 369 98.5 c 128,-1,75
 390 119 390 119 404 145.5 c 128,-1,76
 418 172 418 172 419 199 c 2,77,-1
 419 267 l 1,78,-1
 259 267 l 2,63,64
623 458 m 2,79,80
 565 458 565 458 526 417.5 c 128,-1,81
 487 377 487 377 487 320 c 1,82,-1
 782 320 l 1,83,-1
 782 344 l 2,84,85
 782 363 782 363 774.5 383.5 c 128,-1,86
 767 404 767 404 753.5 420.5 c 128,-1,87
 740 437 740 437 722 447.5 c 128,-1,88
 704 458 704 458 683 458 c 2,89,-1
 623 458 l 2,79,80
EndSplineSet
EndChar
StartChar: ccedilla
Encoding: 231 231 168
Width: 526
VWidth: 1507
Flags: W
HStem: -193 53<248.336 298.171> -8 61<192.516 238 294 353.851> 458 61<198.782 371.901>
VStem: 48 68<139.233 339.184> 309 59<-138.045 -98.0278> 412 67<109.607 182 359 419.74>
Fore
273 -140 m 2,0,1
 288 -140 288 -140 298.5 -137 c 128,-1,2
 309 -134 309 -134 309 -118 c 0,3,4
 309 -112 309 -112 302 -102 c 128,-1,5
 295 -92 295 -92 280 -84 c 0,6,7
 249 -63 249 -63 243.5 -45 c 128,-1,8
 238 -27 238 -27 238 -17 c 2,9,-1
 238 -8 l 1,10,-1
 216 -8 l 2,11,12
 181 -8 181 -8 150 6.5 c 128,-1,13
 119 21 119 21 96.5 45 c 128,-1,14
 74 69 74 69 61 101 c 128,-1,15
 48 133 48 133 48 167 c 2,16,-1
 48 308 l 2,17,18
 48 350 48 350 64 388.5 c 128,-1,19
 80 427 80 427 108 456 c 128,-1,20
 136 485 136 485 173 502 c 128,-1,21
 210 519 210 519 252 519 c 2,22,-1
 311 519 l 2,23,24
 381 519 381 519 429.5 474.5 c 128,-1,25
 478 430 478 430 478 359 c 1,26,-1
 410 359 l 1,27,28
 410 399 410 399 380.5 428.5 c 128,-1,29
 351 458 351 458 311 458 c 2,30,-1
 252 458 l 2,31,32
 223 458 223 458 198 445.5 c 128,-1,33
 173 433 173 433 155 411.5 c 128,-1,34
 137 390 137 390 126.5 363 c 128,-1,35
 116 336 116 336 116 308 c 2,36,-1
 116 167 l 2,37,38
 116 146 116 146 123.5 126 c 128,-1,39
 131 106 131 106 144.5 90 c 128,-1,40
 158 74 158 74 176 63.5 c 128,-1,41
 194 53 194 53 216 53 c 2,42,-1
 276 53 l 2,43,44
 333 53 333 53 372.5 89 c 128,-1,45
 412 125 412 125 412 182 c 1,46,-1
 479 182 l 1,47,48
 479 142 479 142 465 108 c 128,-1,49
 451 74 451 74 425 50 c 128,-1,50
 399 26 399 26 365.5 10.5 c 128,-1,51
 332 -5 332 -5 294 -6 c 1,52,-1
 294 -17 l 1,53,54
 300 -35 300 -35 309 -42.5 c 128,-1,55
 318 -50 318 -50 330 -57 c 0,56,57
 345 -66 345 -66 356.5 -81 c 128,-1,58
 368 -96 368 -96 368 -119 c 0,59,60
 368 -163 368 -163 340 -178 c 128,-1,61
 312 -193 312 -193 273 -193 c 2,62,-1
 261 -193 l 2,63,64
 222 -190 222 -190 198.5 -169 c 128,-1,65
 175 -148 175 -148 175 -106 c 1,66,-1
 234 -106 l 1,67,68
 234 -121 234 -121 241.5 -130.5 c 128,-1,69
 249 -140 249 -140 261 -140 c 2,70,-1
 273 -140 l 2,0,1
EndSplineSet
EndChar
StartChar: eth
Encoding: 240 240 177
Width: 627
VWidth: 1507
Flags: W
HStem: -14 56<222.644 392.155> 481 56<217.058 374.823>
VStem: 45 61<159.449 329.928> 510 66<164.557 368.795>
Fore
576 276 m 0,0,1
 576 200 576 200 552 145 c 128,-1,2
 528 90 528 90 489.5 55 c 128,-1,3
 451 20 451 20 402.5 3 c 128,-1,4
 354 -14 354 -14 304 -14 c 0,5,6
 247 -14 247 -14 199 6.5 c 128,-1,7
 151 27 151 27 117 63 c 128,-1,8
 83 99 83 99 64 148 c 128,-1,9
 45 197 45 197 45 255 c 0,10,11
 45 320 45 320 67.5 372 c 128,-1,12
 90 424 90 424 128 460.5 c 128,-1,13
 166 497 166 497 212.5 517 c 128,-1,14
 259 537 259 537 309 537 c 0,15,16
 348 537 348 537 387.5 526.5 c 128,-1,17
 427 516 427 516 464 487 c 1,18,19
 437 531 437 531 400 569 c 128,-1,20
 363 607 363 607 318 642 c 1,21,22
 274 621 274 621 232 600.5 c 128,-1,23
 190 580 190 580 146 562 c 1,24,-1
 125 612 l 1,25,-1
 265 677 l 1,26,27
 240 693 240 693 206.5 708.5 c 128,-1,28
 173 724 173 724 140 736 c 1,29,-1
 167 791 l 1,30,31
 211 773 211 773 250 753.5 c 128,-1,32
 289 734 289 734 326 707 c 1,33,34
 360 724 360 724 397 741 c 128,-1,35
 434 758 434 758 469 776 c 1,36,-1
 493 724 l 1,37,-1
 375 671 l 1,38,39
 378 669 378 669 379 667.5 c 128,-1,40
 380 666 380 666 381 665 c 0,41,42
 472 589 472 589 524 494 c 128,-1,43
 576 399 576 399 576 276 c 0,0,1
510 268 m 0,44,45
 508 323 508 323 496 360.5 c 128,-1,46
 484 398 484 398 460 423 c 128,-1,47
 436 448 436 448 399 460.5 c 128,-1,48
 362 473 362 473 309 481 c 1,49,50
 256 481 256 481 217.5 460.5 c 128,-1,51
 179 440 179 440 154.5 407.5 c 128,-1,52
 130 375 130 375 118 335 c 128,-1,53
 106 295 106 295 106 256 c 0,54,55
 106 203 106 203 123 163.5 c 128,-1,56
 140 124 140 124 168 96.5 c 128,-1,57
 196 69 196 69 231.5 55.5 c 128,-1,58
 267 42 267 42 303 42 c 0,59,60
 347 42 347 42 384.5 56.5 c 128,-1,61
 422 71 422 71 450 99.5 c 128,-1,62
 478 128 478 128 494 170.5 c 128,-1,63
 510 213 510 213 510 268 c 0,44,45
EndSplineSet
EndChar
StartChar: divide
Encoding: 247 247 184
Width: 646
VWidth: 1507
Flags: W
HStem: 124 105<258.47 332.529> 300 63<56 520 56 520 56 56> 425 106<258.47 332.529>
VStem: 243 105<139.47 213.529 440.471 515.014>
Fore
56 300 m 1,0,-1
 56 363 l 1,1,-1
 520 363 l 1,2,-1
 520 300 l 1,3,-1
 56 300 l 1,0,-1
243 478 m 256,4,5
 243 500 243 500 258 515.5 c 128,-1,6
 273 531 273 531 295 531 c 256,7,8
 318 531 318 531 333 515.5 c 128,-1,9
 348 500 348 500 348 478 c 256,10,11
 348 455 348 455 333 440 c 128,-1,12
 318 425 318 425 295 425 c 256,13,14
 273 425 273 425 258 440 c 128,-1,15
 243 455 243 455 243 478 c 256,4,5
243 176 m 256,16,17
 243 199 243 199 258 214 c 128,-1,18
 273 229 273 229 295 229 c 256,19,20
 318 229 318 229 333 214 c 128,-1,21
 348 199 348 199 348 176 c 256,22,23
 348 154 348 154 333 139 c 128,-1,24
 318 124 318 124 295 124 c 256,25,26
 273 124 273 124 258 139 c 128,-1,27
 243 154 243 154 243 176 c 256,16,17
EndSplineSet
EndChar
StartChar: oslash
Encoding: 248 248 185
Width: 541
VWidth: 1507
Flags: W
HStem: -8 61<175.596 334.733> 458 61<204.782 364.343>
VStem: 54 68<113.871 339.184> 418 67<171.816 378.4>
Fore
39 -26 m 1,0,-1
 95 54 l 1,1,2
 54 103 54 103 54 167 c 2,3,-1
 54 308 l 2,4,5
 54 350 54 350 70 388.5 c 128,-1,6
 86 427 86 427 114 456 c 128,-1,7
 142 485 142 485 179 502 c 128,-1,8
 216 519 216 519 258 519 c 2,9,-1
 318 519 l 2,10,11
 362 519 362 519 401 494 c 1,12,-1
 431 537 l 1,13,-1
 499 537 l 1,14,-1
 443 457 l 1,15,16
 463 434 463 434 474 404.5 c 128,-1,17
 485 375 485 375 485 344 c 2,18,-1
 485 203 l 2,19,20
 485 160 485 160 469.5 122 c 128,-1,21
 454 84 454 84 426 55 c 128,-1,22
 398 26 398 26 361 9 c 128,-1,23
 324 -8 324 -8 282 -8 c 2,24,-1
 222 -8 l 2,25,26
 175 -8 175 -8 139 15 c 1,27,-1
 110 -26 l 1,28,-1
 39 -26 l 1,0,-1
418 344 m 2,29,30
 418 371 418 371 402 398 c 1,31,-1
 175 68 l 1,32,33
 194 53 194 53 222 53 c 2,34,-1
 282 53 l 2,35,36
 311 53 311 53 335.5 65.5 c 128,-1,37
 360 78 360 78 378 99.5 c 128,-1,38
 396 121 396 121 407 148 c 128,-1,39
 418 175 418 175 418 203 c 2,40,-1
 418 344 l 2,29,30
122 167 m 2,41,42
 122 137 122 137 136 113 c 1,43,-1
 365 442 l 1,44,45
 344 458 344 458 318 458 c 2,46,-1
 258 458 l 2,47,48
 229 458 229 458 204 445.5 c 128,-1,49
 179 433 179 433 161 411.5 c 128,-1,50
 143 390 143 390 132.5 363 c 128,-1,51
 122 336 122 336 122 308 c 2,52,-1
 122 167 l 2,41,42
EndSplineSet
EndChar
StartChar: thorn
Encoding: 254 254 191
Width: 664
VWidth: 1507
Flags: W
HStem: -8 61<272.324 384.077> 458 61<303.238 413.867> 696 20G<128 196>
VStem: 128 68<-228 27 139.233 344.059 464 716> 491 68<171.816 203 203 369.799>
Fore
559 203 m 2,0,1
 559 160 559 160 543.5 122 c 128,-1,2
 528 84 528 84 500 55 c 128,-1,3
 472 26 472 26 435 9 c 128,-1,4
 398 -8 398 -8 356 -8 c 2,5,-1
 295 -8 l 2,6,7
 238 -8 238 -8 196 27 c 1,8,-1
 196 -228 l 1,9,-1
 128 -228 l 1,10,-1
 128 716 l 1,11,-1
 196 716 l 1,12,-1
 196 464 l 1,13,14
 223 490 223 490 257.5 504.5 c 128,-1,15
 292 519 292 519 332 519 c 2,16,-1
 392 519 l 2,17,18
 427 519 427 519 457.5 504.5 c 128,-1,19
 488 490 488 490 511 466 c 128,-1,20
 534 442 534 442 546.5 410 c 128,-1,21
 559 378 559 378 559 344 c 2,22,-1
 559 203 l 2,0,1
491 344 m 2,23,24
 491 363 491 363 483 384 c 128,-1,25
 475 405 475 405 461.5 421 c 128,-1,26
 448 437 448 437 430 447.5 c 128,-1,27
 412 458 412 458 392 458 c 2,28,-1
 332 458 l 2,29,30
 304 458 304 458 279.5 446 c 128,-1,31
 255 434 255 434 236 413.5 c 128,-1,32
 217 393 217 393 206.5 367 c 128,-1,33
 196 341 196 341 196 314 c 2,34,-1
 196 167 l 2,35,36
 196 146 196 146 203.5 126 c 128,-1,37
 211 106 211 106 224.5 90 c 128,-1,38
 238 74 238 74 256 63.5 c 128,-1,39
 274 53 274 53 295 53 c 2,40,-1
 356 53 l 2,41,42
 384 53 384 53 409 65.5 c 128,-1,43
 434 78 434 78 452 99.5 c 128,-1,44
 470 121 470 121 480.5 148 c 128,-1,45
 491 175 491 175 491 203 c 2,46,-1
 491 344 l 2,23,24
EndSplineSet
EndChar
StartChar: Lslash
Encoding: 321 321 193
Width: 661
VWidth: 1507
Flags: W
HStem: 0 60<166 610> 696 20G<98 166>
VStem: 98 68<60 280 412 716>
Fore
15 300 m 1,0,-1
 98 360 l 1,1,-1
 98 716 l 1,2,-1
 166 716 l 1,3,-1
 166 412 l 1,4,-1
 276 493 l 1,5,-1
 276 413 l 1,6,-1
 166 332 l 1,7,-1
 166 60 l 1,8,-1
 610 60 l 1,9,-1
 610 0 l 1,10,-1
 98 0 l 1,11,-1
 98 280 l 1,12,-1
 15 220 l 1,13,-1
 15 300 l 1,0,-1
EndSplineSet
EndChar
StartChar: lslash
Encoding: 322 322 194
Width: 290
VWidth: 1507
Flags: W
HStem: 0 21G<113 181> 696 20G<113 181>
VStem: 33 223<303 491 15 303> 113 68<0 285 428 716>
Fore
33 303 m 1,0,-1
 113 371 l 1,1,-1
 113 716 l 1,2,-1
 181 716 l 1,3,-1
 181 428 l 1,4,-1
 256 491 l 1,5,-1
 256 409 l 1,6,-1
 181 344 l 1,7,-1
 181 0 l 1,8,-1
 113 0 l 1,9,-1
 113 285 l 1,10,-1
 36 220 l 1,11,-1
 33 303 l 1,0,-1
EndSplineSet
EndChar
StartChar: OE
Encoding: 338 338 195
Width: 1132
VWidth: 1507
Flags: W
HStem: 0 68<254.735 453.296 591 1070> 339 68<591 996> 648 68<257.22 505.738 591 1070>
VStem: 54 68<170.454 514.749> 523 68<128 339 407 615>
Fore
289 0 m 2,0,1
 240 0 240 0 197 18 c 128,-1,2
 154 36 154 36 122 67.5 c 128,-1,3
 90 99 90 99 72 142 c 128,-1,4
 54 185 54 185 54 235 c 2,5,-1
 54 430 l 2,6,7
 54 490 54 490 76.5 542.5 c 128,-1,8
 99 595 99 595 138.5 633.5 c 128,-1,9
 178 672 178 672 230 694 c 128,-1,10
 282 716 282 716 341 716 c 2,11,-1
 1070 716 l 1,12,-1
 1070 648 l 1,13,-1
 591 648 l 1,14,-1
 591 407 l 1,15,-1
 996 407 l 1,16,-1
 996 339 l 1,17,-1
 591 339 l 1,18,-1
 591 68 l 1,19,-1
 1070 68 l 1,20,-1
 1070 0 l 1,21,-1
 289 0 l 2,0,1
372 68 m 2,22,23
 416 68 416 68 454.5 83.5 c 128,-1,24
 493 99 493 99 523 128 c 1,25,-1
 523 615 l 1,26,27
 478 648 478 648 422 648 c 2,28,-1
 341 648 l 2,29,30
 295 648 295 648 256 631.5 c 128,-1,31
 217 615 217 615 187 585.5 c 128,-1,32
 157 556 157 556 139.5 516 c 128,-1,33
 122 476 122 476 122 430 c 2,34,-1
 122 235 l 2,35,36
 122 200 122 200 135 169.5 c 128,-1,37
 148 139 148 139 170.5 116 c 128,-1,38
 193 93 193 93 224 80.5 c 128,-1,39
 255 68 255 68 289 68 c 2,40,-1
 372 68 l 2,22,23
EndSplineSet
EndChar
StartChar: oe
Encoding: 339 339 196
Width: 919
VWidth: 1507
Flags: W
HStem: -8 61<197.324 333.218 560.324 674.551> 267 53<484 779> 458 61<227.923 338.059 588.641 701.217>
VStem: 53 68<139.233 339.184> 416 68<171.816 203 203 267 320 350.709> 779 68<157.449 188 320 369.799>
CounterMasks: 1 1c
Fore
484 167 m 2,0,1
 484 146 484 146 491.5 126 c 128,-1,2
 499 106 499 106 512.5 90 c 128,-1,3
 526 74 526 74 544 63.5 c 128,-1,4
 562 53 562 53 583 53 c 2,5,-1
 644 53 l 2,6,7
 672 53 672 53 697 63.5 c 128,-1,8
 722 74 722 74 740 92 c 128,-1,9
 758 110 758 110 768.5 135 c 128,-1,10
 779 160 779 160 779 188 c 1,11,-1
 847 188 l 1,12,13
 847 145 847 145 831.5 109.5 c 128,-1,14
 816 74 816 74 788 47.5 c 128,-1,15
 760 21 760 21 723 6.5 c 128,-1,16
 686 -8 686 -8 644 -8 c 2,17,-1
 583 -8 l 2,18,19
 538 -8 538 -8 500.5 15.5 c 128,-1,20
 463 39 463 39 442 75 c 1,21,22
 413 38 413 38 371 15 c 128,-1,23
 329 -8 329 -8 280 -8 c 2,24,-1
 220 -8 l 2,25,26
 185 -8 185 -8 154.5 6.5 c 128,-1,27
 124 21 124 21 101 45 c 128,-1,28
 78 69 78 69 65.5 101 c 128,-1,29
 53 133 53 133 53 167 c 2,30,-1
 53 308 l 2,31,32
 53 350 53 350 68.5 388.5 c 128,-1,33
 84 427 84 427 112 456 c 128,-1,34
 140 485 140 485 177 502 c 128,-1,35
 214 519 214 519 256 519 c 2,36,-1
 317 519 l 2,37,38
 362 519 362 519 399 495.5 c 128,-1,39
 436 472 436 472 458 434 c 1,40,41
 487 473 487 473 528.5 496 c 128,-1,42
 570 519 570 519 620 519 c 2,43,-1
 680 519 l 2,44,45
 715 519 715 519 745.5 504.5 c 128,-1,46
 776 490 776 490 799 466 c 128,-1,47
 822 442 822 442 834.5 410 c 128,-1,48
 847 378 847 378 847 344 c 2,49,-1
 847 267 l 1,50,-1
 484 267 l 1,51,-1
 484 167 l 2,0,1
416 344 m 2,52,53
 416 363 416 363 407.5 384 c 128,-1,54
 399 405 399 405 385.5 421 c 128,-1,55
 372 437 372 437 354 447.5 c 128,-1,56
 336 458 336 458 317 458 c 2,57,-1
 256 458 l 2,58,59
 228 458 228 458 203 445.5 c 128,-1,60
 178 433 178 433 160 411.5 c 128,-1,61
 142 390 142 390 131.5 363 c 128,-1,62
 121 336 121 336 121 308 c 2,63,-1
 121 167 l 2,64,65
 121 146 121 146 128.5 126 c 128,-1,66
 136 106 136 106 149.5 90 c 128,-1,67
 163 74 163 74 181 63.5 c 128,-1,68
 199 53 199 53 220 53 c 2,69,-1
 280 53 l 2,70,71
 309 53 309 53 334 65.5 c 128,-1,72
 359 78 359 78 377 99.5 c 128,-1,73
 395 121 395 121 405.5 148 c 128,-1,74
 416 175 416 175 416 203 c 2,75,-1
 416 344 l 2,52,53
620 458 m 2,76,77
 591 458 591 458 566 447.5 c 128,-1,78
 541 437 541 437 523 418 c 128,-1,79
 505 399 505 399 494.5 373.5 c 128,-1,80
 484 348 484 348 484 320 c 1,81,-1
 779 320 l 1,82,-1
 779 344 l 2,83,84
 779 363 779 363 771 384 c 128,-1,85
 763 405 763 405 749.5 421 c 128,-1,86
 736 437 736 437 717.5 447.5 c 128,-1,87
 699 458 699 458 680 458 c 2,88,-1
 620 458 l 2,76,77
EndSplineSet
EndChar
StartChar: florin
Encoding: 402 402 202
Width: 732
VWidth: 1507
Flags: W
HStem: -223 68<50 144.592> 466 45<235 345 416 522> 731 68<565.298 677>
Fore
378 65 m 1,0,1
 371 -5 371 -5 341.5 -58.5 c 128,-1,2
 312 -112 312 -112 266 -148.5 c 128,-1,3
 220 -185 220 -185 163 -204 c 128,-1,4
 106 -223 106 -223 44 -223 c 1,5,-1
 50 -155 l 1,6,7
 101 -155 101 -155 146 -141 c 128,-1,8
 191 -127 191 -127 226.5 -98 c 128,-1,9
 262 -69 262 -69 284 -28.5 c 128,-1,10
 306 12 306 12 311 65 c 2,11,-1
 345 466 l 1,12,-1
 232 466 l 1,13,-1
 235 511 l 1,14,-1
 348 511 l 1,15,16
 354 580 354 580 384.5 633.5 c 128,-1,17
 415 687 415 687 460.5 724 c 128,-1,18
 506 761 506 761 563.5 780 c 128,-1,19
 621 799 621 799 683 799 c 1,20,-1
 677 731 l 1,21,22
 573 731 573 731 500.5 674 c 128,-1,23
 428 617 428 617 416 511 c 1,24,-1
 525 511 l 1,25,-1
 522 466 l 1,26,-1
 413 466 l 1,27,-1
 378 65 l 1,0,1
EndSplineSet
EndChar
StartChar: circumflex
Encoding: 710 710 203
Width: 483
VWidth: 1507
Flags: W
HStem: 745 176<222 404 222 222>
VStem: 98 306<745 745 745 745>
Fore
222 921 m 1,0,-1
 280 921 l 1,1,-1
 404 745 l 1,2,-1
 339 745 l 1,3,-1
 250 876 l 1,4,-1
 163 745 l 1,5,-1
 98 745 l 1,6,-1
 222 921 l 1,0,-1
EndSplineSet
EndChar
StartChar: caron
Encoding: 711 711 204
Width: 483
VWidth: 1507
Flags: W
HStem: 745 176<98 280 98 98>
VStem: 98 306<921 921 921 921>
Fore
98 921 m 1,0,-1
 163 921 l 1,1,-1
 250 790 l 1,2,-1
 339 921 l 1,3,-1
 404 921 l 1,4,-1
 280 745 l 1,5,-1
 222 745 l 1,6,-1
 98 921 l 1,0,-1
EndSplineSet
EndChar
StartChar: breve
Encoding: 728 728 205
Width: 452
VWidth: 1507
Flags: W
HStem: 633 48<176.915 275.244>
VStem: 65 53<762.899 796> 335 52<762.899 796>
Fore
387 796 m 1,0,1
 387 763 387 763 374.5 733.5 c 128,-1,2
 362 704 362 704 340 681.5 c 128,-1,3
 318 659 318 659 288.5 646 c 128,-1,4
 259 633 259 633 226 633 c 256,5,6
 193 633 193 633 163.5 646 c 128,-1,7
 134 659 134 659 112 681.5 c 128,-1,8
 90 704 90 704 77.5 733.5 c 128,-1,9
 65 763 65 763 65 796 c 1,10,-1
 118 796 l 1,11,12
 118 749 118 749 148 715 c 128,-1,13
 178 681 178 681 226 681 c 256,14,15
 274 681 274 681 304.5 715 c 128,-1,16
 335 749 335 749 335 796 c 1,17,-1
 387 796 l 1,0,1
EndSplineSet
EndChar
StartChar: dotaccent
Encoding: 729 729 206
Width: 238
VWidth: 1507
Flags: W
HStem: 644 117<82.0179 164.982>
VStem: 65 117<661.018 743.982>
Fore
65 702 m 256,0,1
 65 728 65 728 81.5 744.5 c 128,-1,2
 98 761 98 761 124 761 c 256,3,4
 149 761 149 761 165.5 744.5 c 128,-1,5
 182 728 182 728 182 702 c 256,6,7
 182 677 182 677 165.5 660.5 c 128,-1,8
 149 644 149 644 124 644 c 256,9,10
 98 644 98 644 81.5 660.5 c 128,-1,11
 65 677 65 677 65 702 c 256,0,1
EndSplineSet
EndChar
StartChar: ring
Encoding: 730 730 207
Width: 419
VWidth: 1507
Flags: W
HStem: 598 49<163.618 253.039> 770 49<163.618 253.039>
VStem: 98 48<664.175 752.202> 270 48<663.571 752.817>
Fore
98 707 m 0,0,1
 98 755 98 755 129.5 787 c 128,-1,2
 161 819 161 819 210 819 c 0,3,4
 256 819 256 819 287 787 c 128,-1,5
 318 755 318 755 318 707 c 0,6,7
 318 660 318 660 287 629 c 128,-1,8
 256 598 256 598 210 598 c 0,9,10
 161 598 161 598 129.5 629 c 128,-1,11
 98 660 98 660 98 707 c 0,0,1
146 707 m 0,12,13
 146 683 146 683 165 665 c 128,-1,14
 184 647 184 647 210 647 c 0,15,16
 234 647 234 647 252 665 c 128,-1,17
 270 683 270 683 270 707 c 0,18,19
 270 733 270 733 252 751.5 c 128,-1,20
 234 770 234 770 210 770 c 0,21,22
 184 770 184 770 165 751.5 c 128,-1,23
 146 733 146 733 146 707 c 0,12,13
EndSplineSet
EndChar
StartChar: ogonek
Encoding: 731 731 208
Width: 292
VWidth: 1507
Flags: W
HStem: -193 53<113.829 163.664>
VStem: 44 193<-166.985 -106 -119 -106 -119 -119> 44 59<-138.045 -97.627>
Fore
151 -140 m 2,0,1
 163 -140 163 -140 170.5 -130.5 c 128,-1,2
 178 -121 178 -121 178 -106 c 1,3,-1
 237 -106 l 1,4,5
 237 -148 237 -148 213.5 -169 c 128,-1,6
 190 -190 190 -190 151 -193 c 2,7,-1
 139 -193 l 2,8,9
 99 -193 99 -193 71.5 -178 c 128,-1,10
 44 -163 44 -163 44 -119 c 0,11,12
 44 -96 44 -96 55 -81 c 128,-1,13
 66 -66 66 -66 81 -57 c 0,14,15
 93 -50 93 -50 102.5 -42.5 c 128,-1,16
 112 -35 112 -35 118 -17 c 1,17,-1
 118 6 l 1,18,-1
 173 6 l 1,19,-1
 173 -17 l 2,20,21
 173 -27 173 -27 168 -45 c 128,-1,22
 163 -63 163 -63 131 -84 c 0,23,24
 116 -92 116 -92 109.5 -102 c 128,-1,25
 103 -112 103 -112 103 -118 c 0,26,27
 103 -134 103 -134 113.5 -137 c 128,-1,28
 124 -140 124 -140 139 -140 c 2,29,-1
 151 -140 l 2,0,1
EndSplineSet
EndChar
StartChar: tilde
Encoding: 732 732 209
Width: 325
VWidth: 1507
Flags: W
HStem: 600 47<206.485 254.644> 677 47<75.5404 128.126>
VStem: 9 51<624 662.045> 270 51<661.44 699>
Fore
222 600 m 0,0,1
 200 600 200 600 185 612 c 128,-1,2
 170 624 170 624 156.5 638.5 c 128,-1,3
 143 653 143 653 129.5 665 c 128,-1,4
 116 677 116 677 99 677 c 0,5,6
 84 677 84 677 72 662.5 c 128,-1,7
 60 648 60 648 60 624 c 1,8,-1
 9 624 l 1,9,10
 11 654 11 654 20 673.5 c 128,-1,11
 29 693 29 693 42.5 704.5 c 128,-1,12
 56 716 56 716 72.5 720 c 128,-1,13
 89 724 89 724 106 724 c 0,14,15
 131 724 131 724 149 711.5 c 128,-1,16
 167 699 167 699 180.5 685 c 128,-1,17
 194 671 194 671 205.5 659 c 128,-1,18
 217 647 217 647 231 647 c 0,19,20
 246 647 246 647 258 661 c 128,-1,21
 270 675 270 675 270 699 c 1,22,-1
 321 699 l 1,23,24
 320 669 320 669 310.5 649.5 c 128,-1,25
 301 630 301 630 287.5 618.5 c 128,-1,26
 274 607 274 607 257 603.5 c 128,-1,27
 240 600 240 600 222 600 c 0,0,1
EndSplineSet
EndChar
StartChar: uni0E01
Encoding: 3585 3585 212
Width: 593
VWidth: 1507
Flags: W
HStem: 0 21G<106 173 443 511> 537 60<237.573 387.742>
VStem: 106 67<0 344.467> 443 68<0 475.64>
Fore
443 446 m 1,0,1
 442 481 442 481 417 509 c 128,-1,2
 392 537 392 537 359 537 c 2,3,-1
 264 537 l 2,4,5
 241 537 241 537 218.5 527 c 128,-1,6
 196 517 196 517 177 500.5 c 128,-1,7
 158 484 158 484 143 463.5 c 128,-1,8
 128 443 128 443 121 422 c 1,9,10
 151 398 151 398 162 369.5 c 128,-1,11
 173 341 173 341 173 312 c 2,12,-1
 173 0 l 1,13,-1
 106 0 l 1,14,-1
 106 312 l 2,15,16
 106 339 106 339 86 364 c 128,-1,17
 66 389 66 389 39 392 c 1,18,19
 44 434 44 434 64 472 c 128,-1,20
 84 510 84 510 115 537.5 c 128,-1,21
 146 565 146 565 185.5 581 c 128,-1,22
 225 597 225 597 267 597 c 2,23,-1
 359 597 l 2,24,25
 387 597 387 597 414.5 584 c 128,-1,26
 442 571 442 571 463.5 551 c 128,-1,27
 485 531 485 531 498 503 c 128,-1,28
 511 475 511 475 511 446 c 2,29,-1
 511 0 l 1,30,-1
 443 0 l 1,31,-1
 443 446 l 1,0,1
EndSplineSet
EndChar
StartChar: uni0E02
Encoding: 3586 3586 213
Width: 559
VWidth: 1507
Flags: W
HStem: 2 58<320 390.045> 327 42<98.7112 167.303> 475 42<106.955 167.819> 550 47<127.304 224.252>
VStem: 27 50<399.485 460.999> 181 44<382.863 461.467> 252 68<60.7334 69 69 335.109> 270 50<391.501 498.025> 418 67<122.391 597>
Fore
320 60 m 1,0,-1
 342 60 l 2,1,2
 371 63 371 63 394.5 86 c 128,-1,3
 418 109 418 109 418 142 c 2,4,-1
 418 597 l 1,5,-1
 485 597 l 1,6,-1
 485 152 l 2,7,8
 485 124 485 124 473 96.5 c 128,-1,9
 461 69 461 69 441.5 48 c 128,-1,10
 422 27 422 27 396.5 14.5 c 128,-1,11
 371 2 371 2 342 2 c 2,12,-1
 317 2 l 2,13,14
 291 2 291 2 271.5 22 c 128,-1,15
 252 42 252 42 252 69 c 2,16,-1
 252 308 l 2,17,18
 252 323 252 323 255 335.5 c 128,-1,19
 258 348 258 348 261 361.5 c 128,-1,20
 264 375 264 375 267 391 c 128,-1,21
 270 407 270 407 270 428 c 0,22,23
 267 476 267 476 238.5 513 c 128,-1,24
 210 550 210 550 164 550 c 0,25,26
 146 550 146 550 129 541 c 128,-1,27
 112 532 112 532 99 514 c 1,28,29
 107 516 107 516 114.5 516.5 c 128,-1,30
 122 517 122 517 130 517 c 0,31,32
 167 517 167 517 196 489 c 128,-1,33
 225 461 225 461 225 422 c 0,34,35
 225 384 225 384 196 355.5 c 128,-1,36
 167 327 167 327 130 327 c 0,37,38
 106 327 106 327 87 337 c 128,-1,39
 68 347 68 347 54.5 363.5 c 128,-1,40
 41 380 41 380 34 401 c 128,-1,41
 27 422 27 422 27 443 c 0,42,43
 27 485 27 485 44 519 c 0,44,45
 65 555 65 555 97.5 576 c 128,-1,46
 130 597 130 597 172 597 c 0,47,48
 243 595 243 595 281.5 547.5 c 128,-1,49
 320 500 320 500 320 430 c 2,50,-1
 320 60 l 1,0,-1
77 422 m 256,51,52
 77 401 77 401 93 385 c 128,-1,53
 109 369 109 369 130 369 c 0,54,55
 149 369 149 369 165 385 c 128,-1,56
 181 401 181 401 181 422 c 256,57,58
 181 443 181 443 166 459 c 128,-1,59
 151 475 151 475 130 475 c 256,60,61
 109 475 109 475 93 459 c 128,-1,62
 77 443 77 443 77 422 c 256,51,52
EndSplineSet
EndChar
StartChar: uni0E03
Encoding: 3587 3587 214
Width: 575
VWidth: 1507
Flags: W
HStem: 0 60<330 399.648> 312 41<75.2894 150.315> 452 38<75.9898 151.045> 577 20G<162.5 192.253 277.265 313 428 496>
VStem: 14 49<365.288 439.861> 163 39<365.772 440.2> 262 68<60.5348 68 68 359.961> 329 49<442.818 537.731> 428 68<122.391 142 142 597>
Fore
496 152 m 2,0,1
 496 124 496 124 484 96.5 c 128,-1,2
 472 69 472 69 452.5 47.5 c 128,-1,3
 433 26 433 26 407 13 c 128,-1,4
 381 0 381 0 353 0 c 2,5,-1
 327 0 l 2,6,7
 301 0 301 0 281.5 20.5 c 128,-1,8
 262 41 262 41 262 68 c 2,9,-1
 262 347 l 2,10,11
 262 363 262 363 272.5 377.5 c 128,-1,12
 283 392 283 392 297 409 c 0,13,14
 309 424 309 424 319 444 c 128,-1,15
 329 464 329 464 329 487 c 0,16,17
 329 517 329 517 304 541 c 1,18,-1
 234 434 l 1,19,-1
 157 544 l 1,20,21
 128 543 128 543 101 524 c 128,-1,22
 74 505 74 505 68 475 c 1,23,24
 89 490 89 490 113 490 c 0,25,26
 148 490 148 490 175 463.5 c 128,-1,27
 202 437 202 437 202 398 c 0,28,29
 202 363 202 363 174 337.5 c 128,-1,30
 146 312 146 312 112 312 c 0,31,32
 63 312 63 312 38.5 351 c 128,-1,33
 14 390 14 390 14 436 c 0,34,35
 14 469 14 469 27.5 499 c 128,-1,36
 41 529 41 529 63.5 550 c 128,-1,37
 86 571 86 571 116 584 c 128,-1,38
 146 597 146 597 179 597 c 1,39,-1
 234 514 l 1,40,-1
 291 597 l 1,41,42
 335 586 335 586 356.5 552.5 c 128,-1,43
 378 519 378 519 378 478 c 0,44,45
 378 425 378 425 347 381 c 0,46,47
 339 372 339 372 334.5 362.5 c 128,-1,48
 330 353 330 353 330 333 c 2,49,-1
 330 60 l 1,50,-1
 353 60 l 2,51,52
 381 63 381 63 404.5 86 c 128,-1,53
 428 109 428 109 428 142 c 2,54,-1
 428 597 l 1,55,-1
 496 597 l 1,56,-1
 496 152 l 2,0,1
113 452 m 0,57,58
 96 452 96 452 79.5 438 c 128,-1,59
 63 424 63 424 63 402 c 0,60,61
 63 383 63 383 77.5 368 c 128,-1,62
 92 353 92 353 113 353 c 0,63,64
 133 353 133 353 148 368.5 c 128,-1,65
 163 384 163 384 163 402 c 0,66,67
 163 424 163 424 148 438 c 128,-1,68
 133 452 133 452 113 452 c 0,57,58
EndSplineSet
EndChar
StartChar: uni0E04
Encoding: 3588 3588 215
Width: 634
VWidth: 1507
Flags: W
HStem: 0 21G<81 176.074 490 558> 203 44<278.08 357.056> 351 44<278.688 357.58> 537 60<246.844 457.771>
VStem: 81 68<112 404.773> 371 44<260.038 337.571> 490 68<0 503.319>
Fore
405 597 m 2,0,1
 470 597 470 597 514 555 c 128,-1,2
 558 513 558 513 558 446 c 2,3,-1
 558 0 l 1,4,-1
 490 0 l 1,5,-1
 490 446 l 2,6,7
 490 479 490 479 465 508 c 128,-1,8
 440 537 440 537 405 537 c 2,9,-1
 301 537 l 2,10,11
 273 537 273 537 246 522.5 c 128,-1,12
 219 508 219 508 197 484.5 c 128,-1,13
 175 461 175 461 162 432.5 c 128,-1,14
 149 404 149 404 149 375 c 2,15,-1
 149 112 l 1,16,-1
 226 327 l 2,17,18
 237 357 237 357 261.5 376 c 128,-1,19
 286 395 286 395 318 395 c 0,20,21
 360 395 360 395 387.5 365.5 c 128,-1,22
 415 336 415 336 415 298 c 0,23,24
 415 259 415 259 385.5 231 c 128,-1,25
 356 203 356 203 318 203 c 256,26,27
 280 203 280 203 250 229 c 1,28,-1
 169 0 l 1,29,-1
 81 0 l 1,30,-1
 81 375 l 2,31,32
 81 416 81 416 99.5 456 c 128,-1,33
 118 496 118 496 148 527 c 128,-1,34
 178 558 178 558 217 577.5 c 128,-1,35
 256 597 256 597 297 597 c 2,36,-1
 405 597 l 2,0,1
265 298 m 128,-1,38
 265 276 265 276 281 261.5 c 128,-1,39
 297 247 297 247 318 247 c 0,40,41
 338 247 338 247 354.5 262 c 128,-1,42
 371 277 371 277 371 298 c 256,43,44
 371 320 371 320 355 335.5 c 128,-1,45
 339 351 339 351 318 351 c 256,46,47
 297 351 297 351 281 335.5 c 128,-1,37
 265 320 265 320 265 298 c 128,-1,38
EndSplineSet
EndChar
StartChar: uni0E05
Encoding: 3589 3589 216
Width: 639
VWidth: 1507
Flags: W
HStem: 0 21G<81 176.186 490 558> 203 44<280.373 357.629> 353 43<280.301 358.654> 577 20G<266 305.722 399.611 430.5>
VStem: 81 68<112 404.967> 372 44<260.875 339.555> 490 68<0 478.887>
Fore
558 0 m 1,0,-1
 490 0 l 1,1,-1
 490 448 l 2,2,3
 490 476 490 476 472 499 c 128,-1,4
 454 522 454 522 427 529 c 1,5,-1
 357 440 l 1,6,-1
 274 526 l 1,7,8
 250 520 250 520 227.5 505.5 c 128,-1,9
 205 491 205 491 187.5 471 c 128,-1,10
 170 451 170 451 159.5 426.5 c 128,-1,11
 149 402 149 402 149 377 c 2,12,-1
 149 112 l 1,13,-1
 228 329 l 2,14,15
 238 357 238 357 263 376.5 c 128,-1,16
 288 396 288 396 320 396 c 0,17,18
 357 396 357 396 386.5 367.5 c 128,-1,19
 416 339 416 339 416 300 c 256,20,21
 416 261 416 261 386.5 232 c 128,-1,22
 357 203 357 203 320 203 c 0,23,24
 280 203 280 203 252 231 c 1,25,-1
 169 0 l 1,26,-1
 81 0 l 1,27,-1
 81 377 l 2,28,29
 81 418 81 418 98.5 455.5 c 128,-1,30
 116 493 116 493 144 524 c 128,-1,31
 172 555 172 555 209 574.5 c 128,-1,32
 246 594 246 594 286 597 c 1,33,-1
 357 525 l 1,34,-1
 416 597 l 1,35,36
 445 595 445 595 470.5 583 c 128,-1,37
 496 571 496 571 515 551 c 128,-1,38
 534 531 534 531 546 504.5 c 128,-1,39
 558 478 558 478 558 448 c 2,40,-1
 558 0 l 1,0,-1
267 300 m 256,41,42
 267 279 267 279 282.5 263 c 128,-1,43
 298 247 298 247 320 247 c 0,44,45
 339 247 339 247 355.5 263 c 128,-1,46
 372 279 372 279 372 300 c 256,47,48
 372 321 372 321 356.5 337 c 128,-1,49
 341 353 341 353 320 353 c 256,50,51
 298 353 298 353 282.5 337 c 128,-1,52
 267 321 267 321 267 300 c 256,41,42
EndSplineSet
EndChar
StartChar: uni0E06
Encoding: 3590 3590 217
Width: 714
VWidth: 1507
Flags: W
HStem: 0 45<216.204 263.589> 155 64<345.884 381.154> 161 49<210.018 264> 312 41<76.8309 151.175> 452 38<78.1641 152.11> 577 20G<164.5 194.012 278.265 314 567 635>
VStem: 15 50<365.288 439.861> 146 47<63.3035 146.058> 164 39<365.772 440.2> 264 68<45 155 219 359.961> 330 50<441.734 538.659> 567 68<89 597>
Fore
252 161 m 2,0,1
 226 161 226 161 209.5 144 c 128,-1,2
 193 127 193 127 193 106 c 0,3,4
 193 80 193 80 215.5 62.5 c 128,-1,5
 238 45 238 45 264 45 c 1,6,-1
 264 161 l 1,7,-1
 252 161 l 2,0,1
332 219 m 1,8,9
 368 210 368 210 404 196 c 128,-1,10
 440 182 440 182 471 165 c 128,-1,11
 502 148 502 148 527 128.5 c 128,-1,12
 552 109 552 109 567 89 c 1,13,-1
 567 597 l 1,14,-1
 635 597 l 1,15,-1
 635 0 l 1,16,-1
 567 0 l 1,17,18
 523 63 523 63 463.5 101 c 128,-1,19
 404 139 404 139 332 155 c 1,20,-1
 332 45 l 1,21,22
 320 24 320 24 305.5 12 c 128,-1,23
 291 0 291 0 252 0 c 0,24,25
 211 0 211 0 178.5 31.5 c 128,-1,26
 146 63 146 63 146 106 c 256,27,28
 146 148 146 148 178.5 179 c 128,-1,29
 211 210 211 210 252 210 c 2,30,-1
 264 210 l 1,31,-1
 264 347 l 2,32,33
 264 363 264 363 274.5 377.5 c 128,-1,34
 285 392 285 392 298 409 c 0,35,36
 311 424 311 424 320.5 444 c 128,-1,37
 330 464 330 464 330 487 c 0,38,39
 330 517 330 517 306 541 c 1,40,-1
 235 434 l 1,41,-1
 158 544 l 1,42,43
 130 543 130 543 102.5 524 c 128,-1,44
 75 505 75 505 69 475 c 1,45,46
 90 490 90 490 115 490 c 0,47,48
 149 490 149 490 176 463.5 c 128,-1,49
 203 437 203 437 203 398 c 0,50,51
 203 363 203 363 175.5 337.5 c 128,-1,52
 148 312 148 312 113 312 c 0,53,54
 65 312 65 312 40 351 c 128,-1,55
 15 390 15 390 15 436 c 0,56,57
 15 469 15 469 28.5 499 c 128,-1,58
 42 529 42 529 64.5 550 c 128,-1,59
 87 571 87 571 117.5 584 c 128,-1,60
 148 597 148 597 181 597 c 1,61,-1
 235 514 l 1,62,-1
 292 597 l 1,63,64
 336 586 336 586 358 552.5 c 128,-1,65
 380 519 380 519 380 478 c 0,66,67
 380 425 380 425 348 381 c 0,68,69
 341 372 341 372 336.5 362.5 c 128,-1,70
 332 353 332 353 332 333 c 2,71,-1
 332 219 l 1,8,9
115 452 m 0,72,73
 98 452 98 452 81.5 438 c 128,-1,74
 65 424 65 424 65 402 c 0,75,76
 65 383 65 383 79 368 c 128,-1,77
 93 353 93 353 115 353 c 0,78,79
 134 353 134 353 149 368.5 c 128,-1,80
 164 384 164 384 164 402 c 0,81,82
 164 424 164 424 149 438 c 128,-1,83
 134 452 134 452 115 452 c 0,72,73
EndSplineSet
EndChar
StartChar: uni0E07
Encoding: 3591 3591 218
Width: 517
VWidth: 1507
Flags: W
HStem: 0 21G<358.5 437> 404 44<302.958 366.533> 553 42<302.418 380.324>
VStem: 36 401<0 392 392 392> 246 43<462.232 539.543> 369 68<60 409> 393 44<465.016 537.014>
Fore
437 0 m 1,0,-1
 369 0 l 2,1,2
 348 0 348 0 332.5 4.5 c 128,-1,3
 317 9 317 9 300 18 c 0,4,5
 283 26 283 26 267.5 41.5 c 128,-1,6
 252 57 252 57 241 74 c 2,7,-1
 36 392 l 1,8,-1
 115 392 l 1,9,-1
 311 87 l 1,10,11
 321 75 321 75 337 67.5 c 128,-1,12
 353 60 353 60 369 60 c 1,13,-1
 369 409 l 1,14,15
 356 404 356 404 342 404 c 0,16,17
 303 404 303 404 274.5 432.5 c 128,-1,18
 246 461 246 461 246 500 c 256,19,20
 246 540 246 540 275 567.5 c 128,-1,21
 304 595 304 595 344 595 c 0,22,23
 380 595 380 595 408.5 568 c 128,-1,24
 437 541 437 541 437 503 c 2,25,-1
 437 0 l 1,0,-1
342 553 m 256,26,27
 321 553 321 553 305 537.5 c 128,-1,28
 289 522 289 522 289 500 c 0,29,30
 289 481 289 481 305 464.5 c 128,-1,31
 321 448 321 448 342 448 c 256,32,33
 363 448 363 448 378 464.5 c 128,-1,34
 393 481 393 481 393 500 c 0,35,36
 393 522 393 522 378 537.5 c 128,-1,37
 363 553 363 553 342 553 c 256,26,27
EndSplineSet
EndChar
StartChar: uni0E08
Encoding: 3592 3592 219
Width: 578
VWidth: 1507
Flags: W
HStem: 0 21G<286 367.5> 202 44<220.716 282.904> 350 43<219.687 298.467> 537 60<178.032 395.287>
VStem: 163 44<260.232 337.301> 312 42<261.986 334.53> 428 68<117.454 474.75>
Fore
428 445 m 2,0,1
 428 478 428 478 403 507.5 c 128,-1,2
 378 537 378 537 345 537 c 2,3,-1
 252 537 l 2,4,5
 196 537 196 537 159 500.5 c 128,-1,6
 122 464 122 464 103 419 c 1,7,-1
 36 442 l 1,8,9
 63 506 63 506 120.5 550.5 c 128,-1,10
 178 595 178 595 252 597 c 2,11,-1
 348 597 l 2,12,13
 378 597 378 597 404.5 584 c 128,-1,14
 431 571 431 571 451.5 550 c 128,-1,15
 472 529 472 529 484 501 c 128,-1,16
 496 473 496 473 496 445 c 2,17,-1
 496 146 l 2,18,19
 496 119 496 119 484 92.5 c 128,-1,20
 472 66 472 66 452.5 46 c 128,-1,21
 433 26 433 26 407 13 c 128,-1,22
 381 0 381 0 354 0 c 2,23,-1
 286 0 l 1,24,-1
 286 205 l 1,25,26
 289 205 289 205 279.5 203.5 c 128,-1,27
 270 202 270 202 259 202 c 0,28,29
 220 202 220 202 191.5 230.5 c 128,-1,30
 163 259 163 259 163 298 c 256,31,32
 163 338 163 338 191.5 365.5 c 128,-1,33
 220 393 220 393 259 393 c 256,34,35
 298 393 298 393 326 364.5 c 128,-1,36
 354 336 354 336 354 298 c 2,37,-1
 354 60 l 1,38,39
 383 63 383 63 405.5 91 c 128,-1,40
 428 119 428 119 428 151 c 2,41,-1
 428 445 l 2,0,1
259 350 m 256,42,43
 238 350 238 350 222.5 335 c 128,-1,44
 207 320 207 320 207 298 c 0,45,46
 207 279 207 279 222.5 262.5 c 128,-1,47
 238 246 238 246 259 246 c 256,48,49
 280 246 280 246 296 261.5 c 128,-1,50
 312 277 312 277 312 298 c 256,51,52
 312 320 312 320 296 335 c 128,-1,53
 280 350 280 350 259 350 c 256,42,43
EndSplineSet
EndChar
StartChar: uni0E09
Encoding: 3593 3593 220
Width: 610
VWidth: 1507
Flags: W
HStem: 0 48<452.476 537.79> 140 42<93.3582 150.375> 286 41<93.3582 171.217> 537 60<220.906 428.396>
VStem: 38 42<195.549 272.806> 157 68<75 143> 184 41<197.986 270.014> 389 48<65.0177 106> 461 68<225 474.311> 553 47<62.9109 149.213>
Fore
279 537 m 2,0,1
 249 537 249 537 220 521.5 c 128,-1,2
 191 506 191 506 169.5 482 c 128,-1,3
 148 458 148 458 135 427 c 128,-1,4
 122 396 122 396 122 366 c 1,5,-1
 53 366 l 1,6,7
 53 412 53 412 71.5 453 c 128,-1,8
 90 494 90 494 120.5 526 c 128,-1,9
 151 558 151 558 192.5 577.5 c 128,-1,10
 234 597 234 597 279 597 c 2,11,-1
 380 597 l 2,12,13
 410 597 410 597 437 584 c 128,-1,14
 464 571 464 571 484.5 550 c 128,-1,15
 505 529 505 529 517 501 c 128,-1,16
 529 473 529 473 529 443 c 2,17,-1
 529 207 l 1,18,19
 564 193 564 193 582 166 c 128,-1,20
 600 139 600 139 600 109 c 0,21,22
 600 65 600 65 570 32.5 c 128,-1,23
 540 0 540 0 491 0 c 0,24,25
 449 0 449 0 419.5 31.5 c 128,-1,26
 390 63 390 63 389 106 c 1,27,-1
 225 0 l 1,28,-1
 157 0 l 1,29,-1
 157 143 l 1,30,31
 149 142 149 142 144 141 c 128,-1,32
 139 140 139 140 133 140 c 0,33,34
 95 140 95 140 66.5 167 c 128,-1,35
 38 194 38 194 38 234 c 256,36,37
 38 273 38 273 66.5 300 c 128,-1,38
 95 327 95 327 133 327 c 0,39,40
 169 327 169 327 197 300 c 128,-1,41
 225 273 225 273 225 237 c 2,42,-1
 225 75 l 1,43,-1
 461 225 l 1,44,-1
 461 443 l 2,45,46
 461 478 461 478 437 506.5 c 128,-1,47
 413 535 413 535 377 537 c 2,48,-1
 279 537 l 2,0,1
80 234 m 0,49,50
 80 213 80 213 96 197.5 c 128,-1,51
 112 182 112 182 133 182 c 256,52,53
 154 182 154 182 169 197.5 c 128,-1,54
 184 213 184 213 184 234 c 256,55,56
 184 255 184 255 169 270.5 c 128,-1,57
 154 286 154 286 133 286 c 256,58,59
 112 286 112 286 96 271 c 128,-1,60
 80 256 80 256 80 234 c 0,49,50
494 164 m 256,61,62
 470 164 470 164 453.5 146 c 128,-1,63
 437 128 437 128 437 106 c 0,64,65
 437 81 437 81 454.5 64.5 c 128,-1,66
 472 48 472 48 496 48 c 0,67,68
 519 48 519 48 536 64.5 c 128,-1,69
 553 81 553 81 553 106 c 128,-1,70
 553 131 553 131 536 147.5 c 128,-1,71
 519 164 519 164 494 164 c 256,61,62
EndSplineSet
EndChar
StartChar: uni0E0A
Encoding: 3594 3594 221
Width: 563
VWidth: 1507
Flags: W
HStem: 0 60<320 389.259> 327 42<98.7112 167.303> 475 42<106.955 167.819> 550 47<127.304 224.252>
VStem: 27 50<399.485 460.999> 181 44<382.863 461.467> 252 68<60.5348 68 68 335.109> 270 50<391.501 498.025> 418 67<122.391 378>
Fore
77 422 m 256,0,1
 77 401 77 401 93 385 c 128,-1,2
 109 369 109 369 130 369 c 0,3,4
 149 369 149 369 165 385 c 128,-1,5
 181 401 181 401 181 422 c 256,6,7
 181 443 181 443 166 459 c 128,-1,8
 151 475 151 475 130 475 c 256,9,10
 109 475 109 475 93 459 c 128,-1,11
 77 443 77 443 77 422 c 256,0,1
320 60 m 1,12,-1
 342 60 l 2,13,14
 371 63 371 63 394.5 86.5 c 128,-1,15
 418 110 418 110 418 143 c 2,16,-1
 418 369 l 2,17,18
 418 378 418 378 408.5 387 c 128,-1,19
 399 396 399 396 385.5 403 c 128,-1,20
 372 410 372 410 358 414.5 c 128,-1,21
 344 419 344 419 333 419 c 1,22,-1
 333 449 l 1,23,24
 375 464 375 464 402.5 485 c 128,-1,25
 430 506 430 506 445.5 535 c 128,-1,26
 461 564 461 564 468.5 600 c 128,-1,27
 476 636 476 636 479 684 c 1,28,-1
 547 684 l 1,29,30
 541 645 541 645 534.5 606 c 128,-1,31
 528 567 528 567 514 533.5 c 128,-1,32
 500 500 500 500 476 474 c 128,-1,33
 452 448 452 448 412 433 c 1,34,35
 430 428 430 428 454 410.5 c 128,-1,36
 478 393 478 393 485 378 c 1,37,-1
 485 152 l 2,38,39
 485 124 485 124 473 96.5 c 128,-1,40
 461 69 461 69 441.5 47.5 c 128,-1,41
 422 26 422 26 396.5 13 c 128,-1,42
 371 0 371 0 342 0 c 2,43,-1
 317 0 l 2,44,45
 291 0 291 0 271.5 20.5 c 128,-1,46
 252 41 252 41 252 68 c 2,47,-1
 252 308 l 2,48,49
 252 323 252 323 255 335.5 c 128,-1,50
 258 348 258 348 261 361.5 c 128,-1,51
 264 375 264 375 267 391 c 128,-1,52
 270 407 270 407 270 428 c 0,53,54
 267 476 267 476 238.5 513 c 128,-1,55
 210 550 210 550 164 550 c 0,56,57
 146 550 146 550 129 541 c 128,-1,58
 112 532 112 532 99 514 c 1,59,60
 107 516 107 516 114.5 516.5 c 128,-1,61
 122 517 122 517 130 517 c 0,62,63
 167 517 167 517 196 489 c 128,-1,64
 225 461 225 461 225 422 c 0,65,66
 225 384 225 384 196 355.5 c 128,-1,67
 167 327 167 327 130 327 c 0,68,69
 106 327 106 327 87 337 c 128,-1,70
 68 347 68 347 54.5 363.5 c 128,-1,71
 41 380 41 380 34 401 c 128,-1,72
 27 422 27 422 27 443 c 0,73,74
 27 485 27 485 44 519 c 0,75,76
 65 555 65 555 97.5 576 c 128,-1,77
 130 597 130 597 172 597 c 0,78,79
 243 595 243 595 281.5 547.5 c 128,-1,80
 320 500 320 500 320 430 c 2,81,-1
 320 60 l 1,12,-1
EndSplineSet
EndChar
StartChar: uni0E0B
Encoding: 3595 3595 222
Width: 572
VWidth: 1507
Flags: W
HStem: 0 60<329 398.259> 312 41<73.8309 148.175> 452 38<75.1641 149.11> 577 20G<161.5 191.012 275.265 311>
VStem: 12 50<365.288 439.861> 161 39<365.772 440.2> 261 68<60.5348 359.961> 327 50<441.734 538.659> 393 101<386 443> 427 67<122.391 143 143 374>
Fore
261 347 m 2,0,1
 261 363 261 363 271.5 377.5 c 128,-1,2
 282 392 282 392 295 409 c 0,3,4
 308 424 308 424 317.5 444 c 128,-1,5
 327 464 327 464 327 487 c 0,6,7
 327 517 327 517 303 541 c 1,8,-1
 232 434 l 1,9,-1
 155 544 l 1,10,11
 127 543 127 543 99.5 524 c 128,-1,12
 72 505 72 505 66 475 c 1,13,14
 87 490 87 490 112 490 c 0,15,16
 146 490 146 490 173 463.5 c 128,-1,17
 200 437 200 437 200 398 c 0,18,19
 200 363 200 363 172.5 337.5 c 128,-1,20
 145 312 145 312 110 312 c 0,21,22
 62 312 62 312 37 351 c 128,-1,23
 12 390 12 390 12 436 c 0,24,25
 12 469 12 469 25.5 499 c 128,-1,26
 39 529 39 529 61.5 550 c 128,-1,27
 84 571 84 571 114.5 584 c 128,-1,28
 145 597 145 597 178 597 c 1,29,-1
 232 514 l 1,30,-1
 289 597 l 1,31,32
 333 586 333 586 355 552.5 c 128,-1,33
 377 519 377 519 377 478 c 0,34,35
 377 425 377 425 345 381 c 0,36,37
 338 372 338 372 333.5 362.5 c 128,-1,38
 329 353 329 353 329 333 c 2,39,-1
 329 60 l 1,40,-1
 351 60 l 2,41,42
 380 63 380 63 403.5 86.5 c 128,-1,43
 427 110 427 110 427 143 c 2,44,-1
 427 374 l 1,45,46
 424 384 424 384 415.5 392.5 c 128,-1,47
 407 401 407 401 395 409 c 2,48,49
 392 412 392 412 389 412 c 1,50,51
 393 427 393 427 393 443 c 256,52,53
 393 460 393 460 389 481 c 1,54,55
 422 499 422 499 440 518 c 128,-1,56
 458 537 458 537 468 561 c 128,-1,57
 478 585 478 585 481.5 616 c 128,-1,58
 485 647 485 647 488 689 c 1,59,-1
 555 689 l 1,60,61
 550 651 550 651 545.5 614 c 128,-1,62
 541 577 541 577 530 545 c 128,-1,63
 519 513 519 513 496 487 c 128,-1,64
 473 461 473 461 433 446 c 1,65,66
 494 412 494 412 494 386 c 2,67,-1
 494 152 l 2,68,69
 494 124 494 124 482 96.5 c 128,-1,70
 470 69 470 69 450.5 47.5 c 128,-1,71
 431 26 431 26 405.5 13 c 128,-1,72
 380 0 380 0 351 0 c 2,73,-1
 326 0 l 2,74,75
 300 0 300 0 280.5 20.5 c 128,-1,76
 261 41 261 41 261 68 c 2,77,-1
 261 347 l 2,0,1
112 452 m 0,78,79
 95 452 95 452 78.5 438 c 128,-1,80
 62 424 62 424 62 402 c 0,81,82
 62 383 62 383 76 368 c 128,-1,83
 90 353 90 353 112 353 c 0,84,85
 131 353 131 353 146 368.5 c 128,-1,86
 161 384 161 384 161 402 c 0,87,88
 161 424 161 424 146 438 c 128,-1,89
 131 452 131 452 112 452 c 0,78,79
EndSplineSet
EndChar
StartChar: uni0E0C
Encoding: 3596 3596 223
Width: 854
VWidth: 1507
Flags: W
HStem: 2 43<157.503 236.811 394.595 439> 140 56<524.863 622.977> 148 43<177.188 236.657> 158 47<394.595 439> 537 60<234.573 384.742>
VStem: 103 42<61.5012 131.5> 103 67<188 344.467> 249 43<58.4452 135.479> 330 45<62.1098 143.774> 439 69<48 140 205 475.64> 705 67<72 597>
Fore
772 0 m 1,0,-1
 705 0 l 1,1,2
 660 47 660 47 612.5 84.5 c 128,-1,3
 565 122 565 122 508 140 c 1,4,-1
 508 35 l 1,5,6
 494 21 494 21 476 11.5 c 128,-1,7
 458 2 458 2 439 2 c 0,8,9
 393 2 393 2 361.5 31 c 128,-1,10
 330 60 330 60 330 103 c 0,11,12
 330 148 330 148 360 176.5 c 128,-1,13
 390 205 390 205 439 205 c 1,14,-1
 439 446 l 2,15,16
 439 481 439 481 414 509 c 128,-1,17
 389 537 389 537 356 537 c 2,18,-1
 261 537 l 2,19,20
 238 537 238 537 215.5 527 c 128,-1,21
 193 517 193 517 174 500.5 c 128,-1,22
 155 484 155 484 140 463.5 c 128,-1,23
 125 443 125 443 118 422 c 1,24,25
 148 398 148 398 159 369.5 c 128,-1,26
 170 341 170 341 170 312 c 2,27,-1
 170 188 l 1,28,29
 178 190 178 190 184 190.5 c 128,-1,30
 190 191 190 191 197 191 c 0,31,32
 235 191 235 191 263.5 163.5 c 128,-1,33
 292 136 292 136 292 98 c 0,34,35
 292 59 292 59 264.5 30.5 c 128,-1,36
 237 2 237 2 197 2 c 0,37,38
 163 2 163 2 135 24.5 c 128,-1,39
 107 47 107 47 103 80 c 2,40,-1
 103 312 l 2,41,42
 103 339 103 339 83 364 c 128,-1,43
 63 389 63 389 36 392 c 1,44,45
 41 434 41 434 61 472 c 128,-1,46
 81 510 81 510 112 537.5 c 128,-1,47
 143 565 143 565 182.5 581 c 128,-1,48
 222 597 222 597 264 597 c 2,49,-1
 356 597 l 2,50,51
 384 597 384 597 411.5 584 c 128,-1,52
 439 571 439 571 460.5 551 c 128,-1,53
 482 531 482 531 495 503 c 128,-1,54
 508 475 508 475 508 446 c 2,55,-1
 508 196 l 1,56,57
 564 178 564 178 615 147 c 128,-1,58
 666 116 666 116 705 72 c 1,59,-1
 705 597 l 1,60,-1
 772 597 l 1,61,-1
 772 0 l 1,0,-1
145 98 m 0,62,63
 145 77 145 77 160.5 61 c 128,-1,64
 176 45 176 45 197 45 c 256,65,66
 219 45 219 45 234 61 c 128,-1,67
 249 77 249 77 249 98 c 0,68,69
 249 118 249 118 234 133 c 128,-1,70
 219 148 219 148 197 148 c 256,71,72
 176 148 176 148 160.5 132 c 128,-1,73
 145 116 145 116 145 98 c 0,62,63
375 103 m 256,74,75
 375 77 375 77 394 62.5 c 128,-1,76
 413 48 413 48 439 48 c 1,77,-1
 439 158 l 1,78,79
 413 158 413 158 394 143 c 128,-1,80
 375 128 375 128 375 103 c 256,74,75
EndSplineSet
EndChar
StartChar: uni0E0D
Encoding: 3597 3597 224
Width: 860
VWidth: 1507
Flags: W
HStem: -249 50<562.378 664.922> -78 40<469.735 545.712> 0 60<516.158 681.344> 0 47<167.096 244.555> 152 42<179.104 244.245> 537 60<240.573 392.375>
VStem: 110 45<62.9857 136.014> 110 68<190 363.218> 258 43<60.5853 138.782> 418 40<-165.656 -90.0672> 448 68<60.7864 475.64> 558 40<-164.756 -90.1865> 716 68<122.689 597> 749 53<-94.7673 -65>
Fore
178 190 m 1,0,1
 191 194 191 194 205 194 c 0,2,3
 240 194 240 194 270.5 167 c 128,-1,4
 301 140 301 140 301 98 c 0,5,6
 301 59 301 59 272.5 29.5 c 128,-1,7
 244 0 244 0 205 0 c 0,8,9
 167 0 167 0 138.5 25.5 c 128,-1,10
 110 51 110 51 110 83 c 2,11,-1
 110 312 l 2,12,13
 110 339 110 339 89.5 364 c 128,-1,14
 69 389 69 389 42 392 c 1,15,16
 47 434 47 434 67 472 c 128,-1,17
 87 510 87 510 118 537.5 c 128,-1,18
 149 565 149 565 188.5 581 c 128,-1,19
 228 597 228 597 270 597 c 2,20,-1
 363 597 l 2,21,22
 392 597 392 597 419 584 c 128,-1,23
 446 571 446 571 468 551 c 128,-1,24
 490 531 490 531 503 503 c 128,-1,25
 516 475 516 475 516 446 c 2,26,-1
 516 60 l 1,27,-1
 633 60 l 2,28,29
 666 63 666 63 691 91 c 128,-1,30
 716 119 716 119 716 154 c 2,31,-1
 716 597 l 1,32,-1
 784 597 l 1,33,-1
 784 154 l 2,34,35
 784 124 784 124 772 96 c 128,-1,36
 760 68 760 68 739.5 47 c 128,-1,37
 719 26 719 26 692 13 c 128,-1,38
 665 0 665 0 633 0 c 2,39,-1
 517 0 l 2,40,41
 490 0 490 0 470.5 21 c 128,-1,42
 451 42 451 42 448 68 c 2,43,-1
 448 446 l 2,44,45
 448 481 448 481 422 509 c 128,-1,46
 396 537 396 537 363 537 c 2,47,-1
 267 537 l 2,48,49
 244 537 244 537 221.5 527 c 128,-1,50
 199 517 199 517 180 500.5 c 128,-1,51
 161 484 161 484 146 463.5 c 128,-1,52
 131 443 131 443 124 422 c 1,53,54
 154 398 154 398 165 369.5 c 128,-1,55
 176 341 176 341 178 312 c 2,56,-1
 178 190 l 1,0,1
205 152 m 256,57,58
 184 152 184 152 169.5 136.5 c 128,-1,59
 155 121 155 121 155 99 c 256,60,61
 155 78 155 78 169.5 62.5 c 128,-1,62
 184 47 184 47 205 47 c 256,63,64
 226 47 226 47 242 62.5 c 128,-1,65
 258 78 258 78 258 99 c 256,66,67
 258 121 258 121 242 136.5 c 128,-1,68
 226 152 226 152 205 152 c 256,57,58
598 -128 m 0,69,70
 598 -151 598 -151 584.5 -167.5 c 128,-1,71
 571 -184 571 -184 559 -194 c 1,72,73
 577 -199 577 -199 594 -199 c 0,74,75
 650 -199 650 -199 693.5 -160 c 128,-1,76
 737 -121 737 -121 749 -65 c 1,77,-1
 802 -65 l 1,78,79
 794 -103 794 -103 774.5 -136.5 c 128,-1,80
 755 -170 755 -170 725.5 -195 c 128,-1,81
 696 -220 696 -220 660 -234.5 c 128,-1,82
 624 -249 624 -249 585 -249 c 0,83,84
 555 -249 555 -249 524.5 -241.5 c 128,-1,85
 494 -234 494 -234 471 -218.5 c 128,-1,86
 448 -203 448 -203 433 -180.5 c 128,-1,87
 418 -158 418 -158 418 -128 c 0,88,89
 418 -93 418 -93 445 -65.5 c 128,-1,90
 472 -38 472 -38 508 -38 c 0,91,92
 546 -38 546 -38 572 -63.5 c 128,-1,93
 598 -89 598 -89 598 -128 c 0,69,70
508 -78 m 0,94,95
 487 -78 487 -78 472.5 -92.5 c 128,-1,96
 458 -107 458 -107 458 -128 c 0,97,98
 458 -148 458 -148 472.5 -163 c 128,-1,99
 487 -178 487 -178 508 -178 c 256,100,101
 529 -178 529 -178 543.5 -163 c 128,-1,102
 558 -148 558 -148 558 -128 c 0,103,104
 558 -107 558 -107 543 -92.5 c 128,-1,105
 528 -78 528 -78 508 -78 c 0,94,95
EndSplineSet
Substitution2: "Single Substitution lookup 22 subtable" uni0E0D.alt1
Substitution2: "Single Substitution lookup 22 subtable" uni0E0D.alt1
EndChar
StartChar: uni0E0E
Encoding: 3598 3598 225
Width: 615
VWidth: 1507
Flags: W
HStem: -294 44<153.521 230.79> -146 43<152.677 223.524> 0 44<94.2144 172.069> 146 44<96.9857 159.75> 537 60<216.567 410.375>
VStem: 38 43<56.8539 133.474> 96 44<-236.71 -158.61> 160 68<187 326.368> 185 43<59.4702 131.56> 466 68<-136 475.64>
Fore
228 90 m 2,0,1
 228 53 228 53 199 26.5 c 128,-1,2
 170 0 170 0 133 0 c 0,3,4
 93 0 93 0 65.5 28.5 c 128,-1,5
 38 57 38 57 38 95 c 0,6,7
 38 134 38 134 65.5 162 c 128,-1,8
 93 190 93 190 133 190 c 0,9,10
 140 190 140 190 146 190 c 128,-1,11
 152 190 152 190 160 187 c 1,12,-1
 160 311 l 2,13,14
 160 323 160 323 151 337 c 128,-1,15
 142 351 142 351 127.5 364 c 128,-1,16
 113 377 113 377 95.5 386 c 128,-1,17
 78 395 78 395 62 396 c 1,18,19
 66 439 66 439 86.5 476 c 128,-1,20
 107 513 107 513 138 540 c 128,-1,21
 169 567 169 567 208 582 c 128,-1,22
 247 597 247 597 289 597 c 2,23,-1
 381 597 l 2,24,25
 410 597 410 597 437 584 c 128,-1,26
 464 571 464 571 486 551 c 128,-1,27
 508 531 508 531 521 503 c 128,-1,28
 534 475 534 475 534 446 c 2,29,-1
 534 -146 l 1,30,31
 508 -199 508 -199 471 -239 c 128,-1,32
 434 -279 434 -279 383 -301 c 1,33,-1
 283 -228 l 1,34,35
 273 -258 273 -258 247.5 -276 c 128,-1,36
 222 -294 222 -294 191 -294 c 0,37,38
 155 -294 155 -294 125.5 -265.5 c 128,-1,39
 96 -237 96 -237 96 -197 c 256,40,41
 96 -158 96 -158 125 -130.5 c 128,-1,42
 154 -103 154 -103 191 -103 c 0,43,44
 211 -103 211 -103 229 -110.5 c 128,-1,45
 247 -118 247 -118 264 -130 c 2,46,-1
 384 -223 l 1,47,48
 428 -203 428 -203 466 -136 c 1,49,-1
 466 446 l 2,50,51
 466 481 466 481 440.5 509 c 128,-1,52
 415 537 415 537 381 537 c 2,53,-1
 286 537 l 2,54,55
 240 537 240 537 200 503 c 128,-1,56
 160 469 160 469 143 427 c 1,57,58
 157 422 157 422 172 410.5 c 128,-1,59
 187 399 187 399 199 383.5 c 128,-1,60
 211 368 211 368 219.5 349 c 128,-1,61
 228 330 228 330 228 311 c 2,62,-1
 228 90 l 2,0,1
81 95 m 256,63,64
 81 74 81 74 97 59 c 128,-1,65
 113 44 113 44 133 44 c 0,66,67
 154 44 154 44 169.5 59 c 128,-1,68
 185 74 185 74 185 95 c 0,69,70
 185 118 185 118 169.5 132 c 128,-1,71
 154 146 154 146 133 146 c 256,72,73
 112 146 112 146 96.5 131 c 128,-1,74
 81 116 81 116 81 95 c 256,63,64
140 -197 m 256,75,76
 140 -219 140 -219 156 -234.5 c 128,-1,77
 172 -250 172 -250 191 -250 c 0,78,79
 213 -250 213 -250 228.5 -234.5 c 128,-1,80
 244 -219 244 -219 244 -197 c 256,81,82
 244 -176 244 -176 230.5 -161 c 128,-1,83
 217 -146 217 -146 191 -146 c 0,84,85
 170 -146 170 -146 155 -161 c 128,-1,86
 140 -176 140 -176 140 -197 c 256,75,76
EndSplineSet
Substitution2: "Single Substitution lookup 22 subtable" uni0E0E.alt1
Substitution2: "Single Substitution lookup 22 subtable" uni0E0E.alt1
EndChar
StartChar: uni0E0F
Encoding: 3599 3599 226
Width: 613
VWidth: 1507
Flags: W
HStem: -283 43<105.875 183.753> -134 44<105.875 183.717> 0 44<94.3625 172.326> 146 44<96.9857 159.812> 537 60<216.567 410.375>
VStem: 38 43<57.0378 132.137> 48 44<-225.784 -147.875> 160 68<187 326.368> 185 43<59.4702 130.53> 466 68<-186.621 -148 -148 475.64>
Fore
534 -148 m 2,0,1
 534 -185 534 -185 514 -219 c 0,2,3
 493 -253 493 -253 418 -301 c 1,4,-1
 345 -185 l 1,5,-1
 277 -301 l 1,6,-1
 228 -235 l 1,7,8
 216 -256 216 -256 193 -269.5 c 128,-1,9
 170 -283 170 -283 145 -283 c 0,10,11
 106 -283 106 -283 77 -254.5 c 128,-1,12
 48 -226 48 -226 48 -187 c 256,13,14
 48 -148 48 -148 77 -119 c 128,-1,15
 106 -90 106 -90 145 -90 c 0,16,17
 188 -90 188 -90 220 -127 c 2,18,-1
 279 -213 l 1,19,-1
 348 -95 l 1,20,-1
 424 -213 l 1,21,22
 433 -207 433 -207 440.5 -200.5 c 128,-1,23
 448 -194 448 -194 454 -187 c 0,24,25
 466 -175 466 -175 466 -148 c 2,26,-1
 466 446 l 2,27,28
 466 481 466 481 440.5 509 c 128,-1,29
 415 537 415 537 381 537 c 2,30,-1
 286 537 l 2,31,32
 240 537 240 537 200 503 c 128,-1,33
 160 469 160 469 143 427 c 1,34,35
 170 416 170 416 199 383.5 c 128,-1,36
 228 351 228 351 228 312 c 2,37,-1
 228 90 l 2,38,39
 228 53 228 53 199 26.5 c 128,-1,40
 170 0 170 0 133 0 c 256,41,42
 95 0 95 0 66.5 28 c 128,-1,43
 38 56 38 56 38 95 c 0,44,45
 38 133 38 133 66.5 161.5 c 128,-1,46
 95 190 95 190 133 190 c 0,47,48
 147 190 l 128,-1,49
 154 190 154 190 160 187 c 1,50,-1
 160 311 l 2,51,52
 160 323 160 323 151 337 c 128,-1,53
 142 351 142 351 127.5 364 c 128,-1,54
 113 377 113 377 95.5 386 c 128,-1,55
 78 395 78 395 62 396 c 1,56,57
 66 439 66 439 86.5 476 c 128,-1,58
 107 513 107 513 138 540 c 128,-1,59
 169 567 169 567 208 582 c 128,-1,60
 247 597 247 597 289 597 c 2,61,-1
 381 597 l 2,62,63
 410 597 410 597 437 584 c 128,-1,64
 464 571 464 571 486 551 c 128,-1,65
 508 531 508 531 521 503 c 128,-1,66
 534 475 534 475 534 446 c 2,67,-1
 534 -148 l 2,0,1
81 95 m 0,68,69
 81 74 81 74 97 59 c 128,-1,70
 113 44 113 44 133 44 c 0,71,72
 155 44 155 44 170 59 c 128,-1,73
 185 74 185 74 185 95 c 256,74,75
 185 116 185 116 169.5 131 c 128,-1,76
 154 146 154 146 133 146 c 0,77,78
 112 145 112 145 96.5 130 c 128,-1,79
 81 115 81 115 81 95 c 0,68,69
92 -187 m 0,80,81
 92 -207 92 -207 108 -223.5 c 128,-1,82
 124 -240 124 -240 145 -240 c 256,83,84
 166 -240 166 -240 181.5 -224 c 128,-1,85
 197 -208 197 -208 197 -187 c 256,86,87
 197 -166 197 -166 181.5 -150 c 128,-1,88
 166 -134 166 -134 145 -134 c 256,89,90
 124 -134 124 -134 108 -150 c 128,-1,91
 92 -166 92 -166 92 -187 c 0,80,81
EndSplineSet
Substitution2: "Single Substitution lookup 22 subtable" uni0E0F.alt1
Substitution2: "Single Substitution lookup 22 subtable" uni0E0F.alt1
EndChar
StartChar: uni0E10
Encoding: 3600 3600 227
Width: 538
VWidth: 1507
Flags: W
HStem: -268 43<31.3306 110.045> -154 32<340.429 387.743> -118 44<31.7913 102.377> -45 31<340.388 401.04> 0 21G<211 295> 134 45<145.395 208.364> 285 45<144.875 222.958> 494 55<351.228 432.4> 543 54<172.974 232.226>
VStem: -27 45<-211.067 -131.201> 87 44<193.831 271.209> 211 68<60 139> 237 42<195.501 268.499> 303 30<-108.642 -58.0229> 356 68<121.525 143 143 315> 389 50<-227.802 -151> 409 30<-101.06 -68.457>
Fore
424 152 m 2,0,1
 424 124 424 124 412.5 96.5 c 128,-1,2
 401 69 401 69 381.5 48 c 128,-1,3
 362 27 362 27 336.5 13.5 c 128,-1,4
 311 0 311 0 279 0 c 2,5,-1
 211 0 l 1,6,-1
 211 139 l 1,7,8
 197 134 197 134 184 134 c 0,9,10
 145 134 145 134 116 163.5 c 128,-1,11
 87 193 87 193 87 232 c 256,12,13
 87 271 87 271 116 300.5 c 128,-1,14
 145 330 145 330 184 330 c 256,15,16
 223 330 223 330 251 302 c 128,-1,17
 279 274 279 274 279 232 c 2,18,-1
 279 60 l 1,19,20
 309 63 309 63 332.5 87.5 c 128,-1,21
 356 112 356 112 356 143 c 2,22,-1
 356 315 l 1,23,24
 246 380 246 380 41 410 c 1,25,26
 41 448 41 448 51.5 488 c 128,-1,27
 62 528 62 528 92 553 c 0,28,29
 116 573 116 573 142.5 585 c 128,-1,30
 169 597 169 597 199 597 c 0,31,32
 223 597 223 597 247 590 c 128,-1,33
 271 583 271 583 294 575 c 128,-1,34
 317 567 317 567 340 559.5 c 128,-1,35
 363 552 363 552 389 549 c 0,36,37
 416 549 416 549 440 562.5 c 128,-1,38
 464 576 464 576 493 603 c 1,39,-1
 493 540 l 1,40,41
 472 514 472 514 447 504 c 128,-1,42
 422 494 422 494 395 494 c 0,43,44
 369 494 369 494 345 502 c 128,-1,45
 321 510 321 510 297 519 c 128,-1,46
 273 528 273 528 248 535.5 c 128,-1,47
 223 543 223 543 199 543 c 0,48,49
 182 543 182 543 166.5 534.5 c 128,-1,50
 151 526 151 526 138 512.5 c 128,-1,51
 125 499 125 499 117 482.5 c 128,-1,52
 109 466 109 466 109 451 c 1,53,54
 190 439 190 439 268.5 412.5 c 128,-1,55
 347 386 347 386 424 342 c 1,56,-1
 424 152 l 2,0,1
439 -190 m 2,57,58
 439 -267 439 -267 335 -300 c 1,59,-1
 267 -188 l 1,60,-1
 184 -300 l 1,61,-1
 146 -229 l 1,62,63
 121 -268 121 -268 74 -268 c 0,64,65
 33 -268 33 -268 3 -239 c 128,-1,66
 -27 -210 -27 -210 -27 -170 c 256,67,68
 -27 -131 -27 -131 2.5 -102.5 c 128,-1,69
 32 -74 32 -74 71 -74 c 0,70,71
 93 -74 93 -74 113.5 -83 c 128,-1,72
 134 -92 134 -92 146 -110 c 1,73,-1
 194 -213 l 1,74,-1
 267 -113 l 1,75,-1
 350 -240 l 1,76,77
 389 -222 389 -222 389 -184 c 2,78,-1
 389 -151 l 1,79,80
 380 -154 380 -154 371 -154 c 0,81,82
 342 -154 342 -154 322.5 -133 c 128,-1,83
 303 -112 303 -112 303 -83 c 256,84,85
 303 -54 303 -54 323.5 -34 c 128,-1,86
 344 -14 344 -14 371 -14 c 0,87,88
 396 -14 396 -14 417.5 -33.5 c 128,-1,89
 439 -53 439 -53 439 -83 c 2,90,-1
 439 -190 l 2,57,58
18 -170 m 256,91,92
 18 -191 18 -191 33 -208 c 128,-1,93
 48 -225 48 -225 71 -225 c 256,94,95
 93 -225 93 -225 108.5 -208 c 128,-1,96
 124 -191 124 -191 124 -170 c 256,97,98
 124 -149 124 -149 108 -133.5 c 128,-1,99
 92 -118 92 -118 71 -118 c 256,100,101
 50 -118 50 -118 34 -133.5 c 128,-1,102
 18 -149 18 -149 18 -170 c 256,91,92
184 179 m 256,103,104
 205 179 205 179 221 195 c 128,-1,105
 237 211 237 211 237 232 c 256,106,107
 237 253 237 253 221 269 c 128,-1,108
 205 285 205 285 184 285 c 256,109,110
 163 285 163 285 147 269 c 128,-1,111
 131 253 131 253 131 232 c 0,112,113
 131 213 131 213 147 196 c 128,-1,114
 163 179 163 179 184 179 c 256,103,104
333 -83 m 256,115,116
 333 -98 333 -98 343.5 -110 c 128,-1,117
 354 -122 354 -122 371 -122 c 0,118,119
 386 -122 386 -122 397.5 -111.5 c 128,-1,120
 409 -101 409 -101 409 -86 c 0,121,122
 409 -69 409 -69 398 -57 c 128,-1,123
 387 -45 387 -45 371 -45 c 256,124,125
 354 -45 354 -45 343.5 -56.5 c 128,-1,126
 333 -68 333 -68 333 -83 c 256,115,116
EndSplineSet
Substitution2: "Single Substitution lookup 22 subtable" uni0E10.alt1
Substitution2: "Single Substitution lookup 22 subtable" uni0E10.alt1
EndChar
StartChar: uni0E11
Encoding: 3601 3601 228
Width: 780
VWidth: 1507
Flags: W
HStem: 0 21G<265 341.987 635 702> 312 41<78.2894 153.315> 452 38<78.9898 154.045> 577 20G<165.5 195.253 280.265 316 515.9 540.5>
VStem: 17 49<365.288 439.861> 166 39<365.772 440.2> 265 68<175 363.664> 332 49<442.818 538.659> 635 67<0 492.765>
Fore
333 175 m 1,0,-1
 525 597 l 1,1,2
 556 597 556 597 588.5 586.5 c 128,-1,3
 621 576 621 576 646 555.5 c 128,-1,4
 671 535 671 535 686.5 506.5 c 128,-1,5
 702 478 702 478 702 443 c 2,6,-1
 702 0 l 1,7,-1
 635 0 l 1,8,-1
 635 443 l 2,9,10
 635 470 635 470 616.5 493.5 c 128,-1,11
 598 517 598 517 568 523 c 1,12,-1
 333 0 l 1,13,-1
 265 0 l 1,14,-1
 265 347 l 2,15,16
 265 363 265 363 275.5 377.5 c 128,-1,17
 286 392 286 392 300 409 c 0,18,19
 312 424 312 424 322 444 c 128,-1,20
 332 464 332 464 332 487 c 0,21,22
 332 517 332 517 308 541 c 1,23,-1
 237 434 l 1,24,-1
 160 544 l 1,25,26
 131 543 131 543 104 524 c 128,-1,27
 77 505 77 505 71 475 c 1,28,29
 92 490 92 490 116 490 c 0,30,31
 151 490 151 490 178 463.5 c 128,-1,32
 205 437 205 437 205 398 c 0,33,34
 205 363 205 363 177 337.5 c 128,-1,35
 149 312 149 312 115 312 c 0,36,37
 66 312 66 312 41.5 351 c 128,-1,38
 17 390 17 390 17 436 c 0,39,40
 17 469 17 469 30.5 499 c 128,-1,41
 44 529 44 529 66.5 550 c 128,-1,42
 89 571 89 571 119 584 c 128,-1,43
 149 597 149 597 182 597 c 1,44,-1
 237 514 l 1,45,-1
 294 597 l 1,46,47
 338 586 338 586 359.5 552.5 c 128,-1,48
 381 519 381 519 381 478 c 0,49,50
 381 425 381 425 350 381 c 0,51,52
 342 372 342 372 337.5 365.5 c 128,-1,53
 333 359 333 359 333 339 c 2,54,-1
 333 175 l 1,0,-1
116 452 m 0,55,56
 99 452 99 452 82.5 438 c 128,-1,57
 66 424 66 424 66 402 c 0,58,59
 66 383 66 383 80.5 368 c 128,-1,60
 95 353 95 353 116 353 c 0,61,62
 136 353 136 353 151 368.5 c 128,-1,63
 166 384 166 384 166 402 c 0,64,65
 166 424 166 424 151 438 c 128,-1,66
 136 452 136 452 116 452 c 0,55,56
EndSplineSet
EndChar
StartChar: uni0E12
Encoding: 3602 3602 229
Width: 901
VWidth: 1507
Flags: W
HStem: 0 48<443.564 486.999> 142 54<569.776 678.661> 160 47<442.017 487> 172 44<253.122 310.548> 321 44<253.645 329.146> 577 20G<269 307.108 399.054 429 754 822>
VStem: 84 68<53 446.744> 194 47<228.687 307.972> 342 44<229.365 307.453> 378 46<63.4907 144.353> 487 68<48 142 207 477.214> 754 68<72 597>
Fore
152 53 m 1,0,1
 200 59 200 59 242.5 93 c 128,-1,2
 285 127 285 127 311 175 c 1,3,4
 298 172 298 172 291 172 c 0,5,6
 252 172 252 172 223 200.5 c 128,-1,7
 194 229 194 229 194 268 c 256,8,9
 194 308 194 308 223 336.5 c 128,-1,10
 252 365 252 365 291 365 c 0,11,12
 329 365 329 365 357.5 336.5 c 128,-1,13
 386 308 386 308 386 268 c 0,14,15
 386 219 386 219 364 170.5 c 128,-1,16
 342 122 342 122 307.5 84.5 c 128,-1,17
 273 47 273 47 227.5 23.5 c 128,-1,18
 182 0 182 0 137 0 c 2,19,-1
 84 0 l 1,20,-1
 84 372 l 2,21,22
 84 413 84 413 101.5 453 c 128,-1,23
 119 493 119 493 147 524.5 c 128,-1,24
 175 556 175 556 212 576.5 c 128,-1,25
 249 597 249 597 289 597 c 1,26,-1
 356 523 l 1,27,-1
 415 597 l 1,28,29
 443 597 443 597 468.5 584 c 128,-1,30
 494 571 494 571 513 551 c 128,-1,31
 532 531 532 531 543.5 503 c 128,-1,32
 555 475 555 475 555 445 c 2,33,-1
 555 196 l 1,34,35
 671 163 671 163 754 72 c 1,36,-1
 754 597 l 1,37,-1
 822 597 l 1,38,-1
 822 0 l 1,39,-1
 754 0 l 1,40,41
 707 48 707 48 660.5 86.5 c 128,-1,42
 614 125 614 125 555 142 c 1,43,-1
 555 35 l 1,44,45
 543 18 543 18 521.5 9 c 128,-1,46
 500 0 500 0 481 0 c 0,47,48
 440 0 440 0 409 31 c 128,-1,49
 378 62 378 62 378 104 c 0,50,51
 378 143 378 143 408.5 175 c 128,-1,52
 439 207 439 207 478 207 c 2,53,-1
 487 207 l 1,54,-1
 487 445 l 2,55,56
 487 472 487 472 469 494.5 c 128,-1,57
 451 517 451 517 425 525 c 1,58,-1
 356 437 l 1,59,-1
 274 523 l 1,60,61
 225 510 225 510 188.5 467.5 c 128,-1,62
 152 425 152 425 152 372 c 2,63,-1
 152 53 l 1,0,1
241 268 m 256,64,65
 241 247 241 247 255.5 231.5 c 128,-1,66
 270 216 270 216 291 216 c 256,67,68
 312 216 312 216 327 231.5 c 128,-1,69
 342 247 342 247 342 268 c 256,70,71
 342 289 342 289 327 305 c 128,-1,72
 312 321 312 321 291 321 c 256,73,74
 270 321 270 321 255.5 305 c 128,-1,75
 241 289 241 289 241 268 c 256,64,65
424 104 m 0,76,77
 425 80 425 80 443 64 c 128,-1,78
 461 48 461 48 487 48 c 1,79,-1
 487 160 l 1,80,-1
 479 160 l 2,81,82
 458 160 458 160 441.5 142.5 c 128,-1,83
 425 125 425 125 424 104 c 0,76,77
EndSplineSet
EndChar
StartChar: uni0E13
Encoding: 3603 3603 230
Width: 857
VWidth: 1507
Flags: W
HStem: 0 44<159.147 236.637 701.374 782.171> 149 44<177.508 236.888> 537 60<234.573 384.742>
VStem: 103 43<61.0162 133.014> 103 67<188 344.275> 250 44<57.6846 135.71> 440 68<74 475.64> 638 46<66.5635 115.41> 708 68<214 597> 800 49<63.9579 147.231>
Fore
170 188 m 1,0,1
 178 191 178 191 184.5 192 c 128,-1,2
 191 193 191 193 199 193 c 0,3,4
 237 193 237 193 265.5 164.5 c 128,-1,5
 294 136 294 136 294 96 c 0,6,7
 294 60 294 60 265.5 30 c 128,-1,8
 237 0 237 0 199 0 c 0,9,10
 164 0 164 0 135.5 22.5 c 128,-1,11
 107 45 107 45 103 80 c 2,12,-1
 103 312 l 2,13,14
 103 339 103 339 83 364 c 128,-1,15
 63 389 63 389 36 392 c 1,16,17
 41 434 41 434 61 472 c 128,-1,18
 81 510 81 510 112 537.5 c 128,-1,19
 143 565 143 565 182.5 581 c 128,-1,20
 222 597 222 597 264 597 c 2,21,-1
 356 597 l 2,22,23
 384 597 384 597 411.5 584 c 128,-1,24
 439 571 439 571 460.5 551 c 128,-1,25
 482 531 482 531 495 503 c 128,-1,26
 508 475 508 475 508 446 c 2,27,-1
 508 74 l 1,28,29
 526 93 526 93 551 114.5 c 128,-1,30
 576 136 576 136 603 155.5 c 128,-1,31
 630 175 630 175 658 190 c 128,-1,32
 686 205 686 205 708 214 c 1,33,-1
 708 597 l 1,34,-1
 776 597 l 1,35,-1
 776 205 l 1,36,37
 806 194 806 194 827.5 166.5 c 128,-1,38
 849 139 849 139 849 104 c 0,39,40
 849 62 849 62 816.5 31 c 128,-1,41
 784 0 784 0 743 0 c 0,42,43
 699 0 699 0 668.5 31.5 c 128,-1,44
 638 63 638 63 638 106 c 2,45,-1
 638 116 l 1,46,47
 582 78 582 78 508 0 c 1,48,-1
 440 0 l 1,49,-1
 440 446 l 2,50,51
 440 481 440 481 414.5 509 c 128,-1,52
 389 537 389 537 356 537 c 2,53,-1
 261 537 l 2,54,55
 238 537 238 537 215.5 527 c 128,-1,56
 193 517 193 517 174 500.5 c 128,-1,57
 155 484 155 484 140 463.5 c 128,-1,58
 125 443 125 443 118 422 c 1,59,60
 148 398 148 398 159 369.5 c 128,-1,61
 170 341 170 341 170 311 c 2,62,-1
 170 188 l 1,0,1
146 96 m 0,63,64
 146 77 146 77 161 60.5 c 128,-1,65
 176 44 176 44 199 44 c 0,66,67
 220 44 220 44 235 60.5 c 128,-1,68
 250 77 250 77 250 96 c 0,69,70
 250 118 250 118 234.5 133.5 c 128,-1,71
 219 149 219 149 199 149 c 0,72,73
 178 149 178 149 162 133.5 c 128,-1,74
 146 118 146 118 146 96 c 0,63,64
800 106 m 128,-1,76
 800 128 800 128 783 145.5 c 128,-1,77
 766 163 766 163 742 163 c 0,78,79
 719 163 719 163 701.5 145.5 c 128,-1,80
 684 128 684 128 684 106 c 128,-1,81
 684 84 684 84 701 66 c 128,-1,82
 718 48 718 48 743 48 c 0,83,84
 766 48 766 48 783 66 c 128,-1,75
 800 84 800 84 800 106 c 128,-1,76
EndSplineSet
EndChar
StartChar: uni0E14
Encoding: 3604 3604 231
Width: 639
VWidth: 1507
Flags: W
HStem: 0 53<151 236.659> 136 40<281.501 317> 282 42<278.863 356.855> 537 60<248.876 425.09>
VStem: 81 477<0 443 1.53064e-18 1.53064e-18> 81 70<53 397.203> 223 42<190.039 267.88> 371 39<188.903 267.7> 488 70<0 468.833>
Fore
318 176 m 0,0,1
 341 176 341 176 356 191.5 c 128,-1,2
 371 207 371 207 371 228 c 256,3,4
 371 249 371 249 355 265.5 c 128,-1,5
 339 282 339 282 318 282 c 256,6,7
 297 282 297 282 281 265.5 c 128,-1,8
 265 249 265 249 265 229 c 0,9,10
 265 208 265 208 281 192 c 128,-1,11
 297 176 297 176 318 176 c 0,0,1
317 136 m 1,12,13
 273 136 273 136 248 163.5 c 128,-1,14
 223 191 223 191 223 229 c 256,15,16
 223 267 223 267 251.5 295.5 c 128,-1,17
 280 324 280 324 318 324 c 0,18,19
 353 324 353 324 381.5 296 c 128,-1,20
 410 268 410 268 410 229 c 0,21,22
 410 187 410 187 386 145.5 c 128,-1,23
 362 104 362 104 324 71.5 c 128,-1,24
 286 39 286 39 240 19.5 c 128,-1,25
 194 0 194 0 151 0 c 2,26,-1
 81 0 l 1,27,-1
 81 369 l 2,28,29
 81 413 81 413 101 454.5 c 128,-1,30
 121 496 121 496 152.5 527.5 c 128,-1,31
 184 559 184 559 225.5 578 c 128,-1,32
 267 597 267 597 311 597 c 2,33,-1
 405 597 l 2,34,35
 436 597 436 597 463 585 c 128,-1,36
 490 573 490 573 511 552 c 128,-1,37
 532 531 532 531 545 503 c 128,-1,38
 558 475 558 475 558 443 c 2,39,-1
 558 0 l 1,40,-1
 488 0 l 1,41,-1
 488 448 l 2,42,43
 488 463 488 463 480.5 479.5 c 128,-1,44
 473 496 473 496 462 508 c 128,-1,45
 451 520 451 520 436 528.5 c 128,-1,46
 421 537 421 537 405 537 c 2,47,-1
 308 537 l 2,48,49
 276 537 276 537 248 521.5 c 128,-1,50
 220 506 220 506 198 482 c 128,-1,51
 176 458 176 458 163.5 427 c 128,-1,52
 151 396 151 396 151 366 c 2,53,-1
 151 53 l 1,54,55
 194 53 194 53 239.5 76 c 128,-1,56
 285 99 285 99 317 136 c 1,12,13
EndSplineSet
EndChar
StartChar: uni0E15
Encoding: 3605 3605 232
Width: 637
VWidth: 1507
Flags: W
HStem: 0 53<149 181.25> 280 43<279.526 357.202> 577 20G<271.5 309.31 398.611 428.5>
VStem: 81 68<53 395.742> 223 44<189.495 267.224> 371 39<189.784 263.74> 490 68<0 474.186>
Fore
490 445 m 2,0,1
 490 470 490 470 472.5 492 c 128,-1,2
 455 514 455 514 425 522 c 1,3,-1
 356 434 l 1,4,-1
 274 520 l 1,5,6
 249 514 249 514 226 499 c 128,-1,7
 203 484 203 484 186.5 463.5 c 128,-1,8
 170 443 170 443 159.5 418 c 128,-1,9
 149 393 149 393 149 366 c 2,10,-1
 149 53 l 1,11,12
 169 53 169 53 193 59 c 128,-1,13
 217 65 217 65 239.5 75.5 c 128,-1,14
 262 86 262 86 282.5 101 c 128,-1,15
 303 116 303 116 317 133 c 1,16,17
 268 136 268 136 245.5 165 c 128,-1,18
 223 194 223 194 223 228 c 0,19,20
 223 267 223 267 251 295 c 128,-1,21
 279 323 279 323 318 323 c 256,22,23
 357 323 357 323 383.5 295 c 128,-1,24
 410 267 410 267 410 229 c 0,25,26
 410 184 410 184 386 142.5 c 128,-1,27
 362 101 362 101 324 69.5 c 128,-1,28
 286 38 286 38 240 19 c 128,-1,29
 194 0 194 0 149 0 c 2,30,-1
 81 0 l 1,31,-1
 81 366 l 2,32,33
 81 409 81 409 99.5 449.5 c 128,-1,34
 118 490 118 490 147 523 c 128,-1,35
 176 556 176 556 214 576.5 c 128,-1,36
 252 597 252 597 291 597 c 1,37,-1
 356 526 l 1,38,-1
 415 598 l 1,39,40
 442 594 442 594 467.5 579.5 c 128,-1,41
 493 565 493 565 513.5 545 c 128,-1,42
 534 525 534 525 546 499 c 128,-1,43
 558 473 558 473 558 445 c 2,44,-1
 558 0 l 1,45,-1
 490 0 l 1,46,-1
 490 445 l 2,0,1
267 228 m 0,47,48
 267 208 267 208 282 192 c 128,-1,49
 297 176 297 176 318 176 c 256,50,51
 339 176 339 176 355 191.5 c 128,-1,52
 371 207 371 207 371 228 c 256,53,54
 371 249 371 249 355 264.5 c 128,-1,55
 339 280 339 280 318 280 c 256,56,57
 297 280 297 280 282 264.5 c 128,-1,58
 267 249 267 249 267 228 c 0,47,48
EndSplineSet
EndChar
StartChar: uni0E16
Encoding: 3606 3606 233
Width: 592
VWidth: 1507
Flags: W
HStem: 0 42<163.328 240.041> 148 42<175.22 224.857> 537 60<237.573 387.742>
VStem: 106 67<187 344.275> 106 43<59.0167 130.984> 253 45<55.1038 125.68> 443 68<0 475.64>
Fore
149 96 m 0,0,1
 149 75 149 75 165 58.5 c 128,-1,2
 181 42 181 42 202 42 c 256,3,4
 223 42 223 42 238 58 c 128,-1,5
 253 74 253 74 253 96 c 0,6,7
 253 116 253 116 238 132 c 128,-1,8
 223 148 223 148 202 148 c 256,9,10
 181 148 181 148 165 131.5 c 128,-1,11
 149 115 149 115 149 96 c 0,0,1
511 0 m 1,12,-1
 443 0 l 1,13,-1
 443 446 l 2,14,15
 443 481 443 481 417.5 509 c 128,-1,16
 392 537 392 537 359 537 c 2,17,-1
 264 537 l 2,18,19
 241 537 241 537 218.5 527 c 128,-1,20
 196 517 196 517 177 500.5 c 128,-1,21
 158 484 158 484 143 463.5 c 128,-1,22
 128 443 128 443 121 422 c 1,23,24
 151 398 151 398 162 369.5 c 128,-1,25
 173 341 173 341 173 311 c 2,26,-1
 173 187 l 1,27,28
 181 190 181 190 187.5 190 c 128,-1,29
 194 190 194 190 202 190 c 0,30,31
 220 190 220 190 237.5 181.5 c 128,-1,32
 255 173 255 173 268.5 160.5 c 128,-1,33
 282 148 282 148 290 131.5 c 128,-1,34
 298 115 298 115 298 96 c 0,35,36
 298 56 298 56 269.5 28 c 128,-1,37
 241 0 241 0 202 0 c 0,38,39
 169 0 169 0 139.5 22.5 c 128,-1,40
 110 45 110 45 106 78 c 2,41,-1
 106 312 l 2,42,43
 106 339 106 339 86 364 c 128,-1,44
 66 389 66 389 39 392 c 1,45,46
 44 434 44 434 64 472 c 128,-1,47
 84 510 84 510 115 537.5 c 128,-1,48
 146 565 146 565 185.5 581 c 128,-1,49
 225 597 225 597 267 597 c 2,50,-1
 359 597 l 2,51,52
 387 597 387 597 414.5 584 c 128,-1,53
 442 571 442 571 463.5 551 c 128,-1,54
 485 531 485 531 498 503 c 128,-1,55
 511 475 511 475 511 446 c 2,56,-1
 511 0 l 1,12,-1
EndSplineSet
EndChar
StartChar: uni0E17
Encoding: 3607 3607 234
Width: 673
VWidth: 1507
Flags: W
HStem: 0 21G<158 234.642 528 595> 409 42<95.6901 157.016> 552 42<96.2054 171.959>
VStem: 41 42<463.694 539.653> 158 68<149 413> 185 41<466.47 536.53> 528 67<0 491.844>
Fore
421 597 m 1,0,1
 452 597 452 597 484 586.5 c 128,-1,2
 516 576 516 576 540.5 555.5 c 128,-1,3
 565 535 565 535 580 506.5 c 128,-1,4
 595 478 595 478 595 443 c 2,5,-1
 595 0 l 1,6,-1
 528 0 l 1,7,-1
 528 443 l 2,8,9
 528 470 528 470 505 493.5 c 128,-1,10
 482 517 482 517 452 523 c 1,11,-1
 226 0 l 1,12,-1
 158 0 l 1,13,-1
 158 413 l 1,14,15
 146 409 146 409 134 409 c 0,16,17
 98 409 98 409 69.5 436 c 128,-1,18
 41 463 41 463 41 502 c 0,19,20
 41 540 41 540 69.5 567 c 128,-1,21
 98 594 98 594 134 594 c 256,22,23
 170 594 170 594 198 567.5 c 128,-1,24
 226 541 226 541 226 503 c 2,25,-1
 226 149 l 1,26,-1
 421 597 l 1,0,1
134 552 m 256,27,28
 115 552 115 552 99 537.5 c 128,-1,29
 83 523 83 523 83 502 c 256,30,31
 83 481 83 481 98 466 c 128,-1,32
 113 451 113 451 134 451 c 256,33,34
 155 451 155 451 170 466 c 128,-1,35
 185 481 185 481 185 502 c 0,36,37
 185 522 185 522 169.5 537 c 128,-1,38
 154 552 154 552 134 552 c 256,27,28
EndSplineSet
EndChar
StartChar: uni0E18
Encoding: 3608 3608 235
Width: 523
VWidth: 1507
Flags: W
HStem: 0 60<167.379 320.038> 537 60<169.106 230.627 230.16 231.094 231.094 258>
VStem: 56 423<410 604 424.16 425.094> 99 68<60.7701 354> 377 68<121.86 314>
Fore
167 354 m 1,0,-1
 167 60 l 1,1,-1
 292 60 l 2,2,3
 326 60 326 60 351.5 91 c 128,-1,4
 377 122 377 122 377 155 c 2,5,-1
 377 314 l 1,6,7
 320 345 320 345 239 369 c 128,-1,8
 158 393 158 393 56 410 c 1,9,10
 56 446 56 446 66.5 484 c 128,-1,11
 77 522 77 522 106 552 c 0,12,13
 151 597 151 597 216 597 c 0,14,15
 237 597 237 597 258 590 c 128,-1,16
 279 583 279 583 301 574 c 128,-1,17
 323 565 323 565 344 557 c 128,-1,18
 365 549 365 549 386 547 c 1,19,20
 413 550 413 550 438 566.5 c 128,-1,21
 463 583 463 583 479 604 c 1,22,-1
 479 541 l 1,23,24
 445 491 445 491 387 491 c 0,25,26
 365 491 365 491 344 498 c 128,-1,27
 323 505 323 505 301.5 514 c 128,-1,28
 280 523 280 523 258.5 530 c 128,-1,29
 237 537 237 537 214 537 c 0,30,31
 196 537 196 537 178.5 531.5 c 128,-1,32
 161 526 161 526 149 511 c 0,33,34
 136 494 136 494 128.5 483 c 128,-1,35
 121 472 121 472 121 454 c 1,36,37
 207 442 207 442 286.5 414.5 c 128,-1,38
 366 387 366 387 445 344 c 1,39,-1
 445 152 l 2,40,41
 445 122 445 122 432 95 c 128,-1,42
 419 68 419 68 397 47 c 128,-1,43
 375 26 375 26 347.5 13 c 128,-1,44
 320 0 320 0 289 0 c 2,45,-1
 169 0 l 2,46,47
 143 0 143 0 121 19.5 c 128,-1,48
 99 39 99 39 99 69 c 2,49,-1
 99 354 l 1,50,-1
 167 354 l 1,0,-1
EndSplineSet
EndChar
StartChar: uni0E19
Encoding: 3609 3609 236
Width: 612
VWidth: 1507
Flags: W
HStem: 0 50<451.566 536.344> 413 42<96.0472 157.843> 556 41<95.6901 172.403>
VStem: 41 42<467.513 543.718> 158 70<84 416> 185 43<469.955 540.53> 390 47<65.0731 129.539> 460 69<214 597> 552 48<64.8154 149.896>
Fore
134 597 m 256,0,1
 170 597 170 597 199 571.5 c 128,-1,2
 228 546 228 546 228 508 c 2,3,-1
 228 84 l 1,4,5
 267 128 267 128 329.5 167.5 c 128,-1,6
 392 207 392 207 460 214 c 1,7,-1
 460 597 l 1,8,-1
 529 597 l 1,9,-1
 529 207 l 1,10,11
 561 196 561 196 580.5 169 c 128,-1,12
 600 142 600 142 600 107 c 0,13,14
 600 63 600 63 568.5 31.5 c 128,-1,15
 537 0 537 0 494 0 c 256,16,17
 452 0 452 0 421 31.5 c 128,-1,18
 390 63 390 63 390 107 c 0,19,20
 390 115 390 115 391 122.5 c 128,-1,21
 392 130 392 130 393 137 c 1,22,23
 348 121 348 121 306 81 c 128,-1,24
 264 41 264 41 228 0 c 1,25,-1
 158 0 l 1,26,-1
 158 416 l 1,27,28
 151 413 151 413 134 413 c 0,29,30
 99 413 99 413 70 441 c 128,-1,31
 41 469 41 469 41 505 c 0,32,33
 41 544 41 544 69.5 570.5 c 128,-1,34
 98 597 98 597 134 597 c 256,0,1
134 556 m 256,35,36
 113 556 113 556 98 541 c 128,-1,37
 83 526 83 526 83 505 c 256,38,39
 83 484 83 484 99 469.5 c 128,-1,40
 115 455 115 455 134 455 c 0,41,42
 155 455 155 455 170 469.5 c 128,-1,43
 185 484 185 484 185 505 c 256,44,45
 185 526 185 526 170 541 c 128,-1,46
 155 556 155 556 134 556 c 256,35,36
494 164 m 0,47,48
 473 164 473 164 455 146 c 128,-1,49
 437 128 437 128 437 107 c 0,50,51
 437 84 437 84 453.5 67 c 128,-1,52
 470 50 470 50 494 50 c 0,53,54
 517 50 517 50 534.5 66.5 c 128,-1,55
 552 83 552 83 552 107 c 0,56,57
 552 133 552 133 535.5 148 c 128,-1,58
 519 163 519 163 494 164 c 0,47,48
EndSplineSet
EndChar
StartChar: uni0E1A
Encoding: 3610 3610 237
Width: 652
VWidth: 1507
Flags: W
HStem: 0 60<231 450.915> 402 46<96.9568 162.672> 552 45<97.8693 174.716>
VStem: 41 43<460.776 537.97> 163 68<60.5851 66 66 405> 188 43<462.44 535.499> 502 68<114.113 597>
Fore
419 60 m 2,0,1
 451 60 451 60 476.5 88 c 128,-1,2
 502 116 502 116 502 149 c 2,3,-1
 502 597 l 1,4,-1
 570 597 l 1,5,-1
 570 145 l 2,6,7
 570 115 570 115 558 88.5 c 128,-1,8
 546 62 546 62 524.5 42.5 c 128,-1,9
 503 23 503 23 476 11.5 c 128,-1,10
 449 0 449 0 419 0 c 2,11,-1
 226 0 l 2,12,13
 200 0 200 0 181.5 20.5 c 128,-1,14
 163 41 163 41 163 66 c 2,15,-1
 163 405 l 1,16,17
 148 402 148 402 136 402 c 0,18,19
 96 402 96 402 68.5 431.5 c 128,-1,20
 41 461 41 461 41 500 c 0,21,22
 41 537 41 537 69.5 567 c 128,-1,23
 98 597 98 597 136 597 c 0,24,25
 175 597 175 597 203 567.5 c 128,-1,26
 231 538 231 538 231 499 c 2,27,-1
 231 60 l 1,28,-1
 419 60 l 2,0,1
136 552 m 0,29,30
 116 552 116 552 100 536 c 128,-1,31
 84 520 84 520 84 499 c 256,32,33
 84 478 84 478 99.5 463 c 128,-1,34
 115 448 115 448 136 448 c 256,35,36
 157 448 157 448 172.5 462 c 128,-1,37
 188 476 188 476 188 499 c 0,38,39
 188 520 188 520 172.5 536 c 128,-1,40
 157 552 157 552 136 552 c 0,29,30
EndSplineSet
EndChar
StartChar: uni0E1B
Encoding: 3611 3611 238
Width: 652
VWidth: 1507
Flags: W
HStem: 0 60<231.57 450.311> 405 44<97.0699 160.391> 555 42<97.46 173.819>
VStem: 39 44<462.875 540.373> 163 68<60.4331 69 69 410> 187 44<465.501 538.499> 502 68<117.113 894>
Fore
570 894 m 1,0,-1
 570 148 l 2,1,2
 570 118 570 118 558 91.5 c 128,-1,3
 546 65 546 65 525.5 44.5 c 128,-1,4
 505 24 505 24 477 12 c 128,-1,5
 449 0 449 0 419 0 c 2,6,-1
 234 0 l 2,7,8
 208 0 208 0 185.5 20.5 c 128,-1,9
 163 41 163 41 163 69 c 2,10,-1
 163 410 l 1,11,12
 149 405 149 405 136 405 c 0,13,14
 96 405 96 405 67.5 434 c 128,-1,15
 39 463 39 463 39 502 c 0,16,17
 39 540 39 540 68.5 568.5 c 128,-1,18
 98 597 98 597 136 597 c 256,19,20
 173 597 173 597 202 569 c 128,-1,21
 231 541 231 541 231 502 c 2,22,-1
 231 60 l 1,23,-1
 419 60 l 2,24,25
 452 60 452 60 477 89.5 c 128,-1,26
 502 119 502 119 502 152 c 2,27,-1
 502 894 l 1,28,-1
 570 894 l 1,0,-1
136 449 m 256,29,30
 157 449 157 449 172 465 c 128,-1,31
 187 481 187 481 187 502 c 256,32,33
 187 523 187 523 172 539 c 128,-1,34
 157 555 157 555 136 555 c 0,35,36
 116 555 116 555 99.5 538.5 c 128,-1,37
 83 522 83 522 83 502 c 0,38,39
 83 481 83 481 99 465 c 128,-1,40
 115 449 115 449 136 449 c 256,29,30
EndSplineSet
EndChar
StartChar: uni0E1C
Encoding: 3612 3612 239
Width: 636
VWidth: 1507
Flags: W
HStem: 0 21G<136 167.618 461.217 489.5> 405 44<152.088 214.499> 553 44<139.347 217.225>
VStem: 83 68<86 409> 83 44<464.47 537.529> 231 43<462.181 539.71> 488 68<91.5898 597>
Fore
556 113 m 2,0,1
 556 98 556 98 554 79 c 128,-1,2
 552 60 552 60 543.5 43.5 c 128,-1,3
 535 27 535 27 519 14.5 c 128,-1,4
 503 2 503 2 476 0 c 1,5,-1
 323 207 l 1,6,-1
 151 0 l 1,7,8
 121 0 121 0 102 24 c 128,-1,9
 83 48 83 48 83 77 c 2,10,-1
 83 503 l 2,11,12
 83 541 83 541 111.5 569 c 128,-1,13
 140 597 140 597 178 597 c 256,14,15
 216 597 216 597 245 568.5 c 128,-1,16
 274 540 274 540 274 500 c 0,17,18
 274 463 274 463 245 434 c 128,-1,19
 216 405 216 405 178 405 c 0,20,21
 170 405 170 405 164 405 c 128,-1,22
 158 405 158 405 151 409 c 1,23,-1
 151 86 l 1,24,-1
 314 282 l 1,25,26
 333 282 333 282 348 262 c 2,27,-1
 479 90 l 1,28,29
 488 99 488 99 488 124 c 2,30,-1
 488 597 l 1,31,-1
 556 597 l 1,32,-1
 556 113 l 2,0,1
178 553 m 256,33,34
 157 553 157 553 142 538 c 128,-1,35
 127 523 127 523 127 500 c 0,36,37
 127 479 127 479 142 464 c 128,-1,38
 157 449 157 449 178 449 c 256,39,40
 199 449 199 449 215 464 c 128,-1,41
 231 479 231 479 231 500 c 256,42,43
 231 522 231 522 215 537.5 c 128,-1,44
 199 553 199 553 178 553 c 256,33,34
EndSplineSet
EndChar
